SplineFontDB: 3.0
FontName: ThanLwin
FullName: ThanLwin
FamilyName: ThanLwin
Weight: Medium
Copyright: Created by Keith Stribley,,, with FontForge 2.0 (http://fontforge.sf.net)
UComments: "2010-9-20: Created." 
Version: 001.000
ItalicAngle: 0
UnderlinePosition: -93
UnderlineWidth: 46
Ascent: 699
Descent: 325
LayerCount: 2
Layer: 0 0 "Back"  1
Layer: 1 0 "Fore"  0
XUID: [1021 164 2051210458 15560559]
FSType: 0
OS2Version: 0
OS2_WeightWidthSlopeOnly: 0
OS2_UseTypoMetrics: 1
CreationTime: 1284975866
ModificationTime: 1284996865
OS2TypoAscent: 0
OS2TypoAOffset: 1
OS2TypoDescent: 0
OS2TypoDOffset: 1
OS2TypoLinegap: 92
OS2WinAscent: 0
OS2WinAOffset: 1
OS2WinDescent: 0
OS2WinDOffset: 1
HheadAscent: 0
HheadAOffset: 1
HheadDescent: 0
HheadDOffset: 1
OS2Vendor: 'PfEd'
Lookup: 1 0 0 "correctSequence"  {"removeDottedCircle"  } []
Lookup: 1 0 0 "mark2DottedCircleMark"  {"dottedCircleMark"  } ['ccmp' ('mymr' <'dflt' 'DFLT' 'BRM ' > ) ]
Lookup: 4 0 1 "medialLig"  {"reorder"  "medialLigSub"  } ['liga' ('mymr' <'dflt' 'DFLT' 'BRM ' > ) ]
Lookup: 3 0 0 "mymralternates"  {"mymralt"  } ['aalt' ('mymr' <'dflt' > ) ]
Lookup: 3 0 0 "latnalternates"  {"latnalt"  } ['aalt' ('latn' <'dflt' > ) ]
Lookup: 6 0 0 "sequenceCheck"  {"checkAsat"  "checkEVowel"  "checkLowerVowel"  "checkLowerDot"  "checkAnusvara"  "checkUpperVowel"  "checkVisarga"  "checkAVowel"  "checkMedialH"  "checkMedialW"  "checkMedialR"  "checkMedialY"  } ['clig' ('mymr' <'BRM ' 'DFLT' 'dflt' > ) ]
MarkAttachClasses: 1
DEI: 91125
ChainSub2: coverage "checkMedialY"  0 0 0 1
 1 1 0
  Coverage: 11 u25cc_u103b
  BCoverage: 215 u1000 u1001 u1002 u1003 u1004 u1005 u1006 u1007 u1008 u1009 u100a u100b u100c u100d u100e u100f u1010 u1011 u1012 u1013 u1014 u1015 u1016 u1017 u1018 u1019 u101a u101b u101c u101d u101e u101f u1021 u103a u103f u25cc
 1
  SeqLookup: 0 "correctSequence" 
EndFPST
ChainSub2: coverage "checkMedialR"  0 0 0 1
 1 1 0
  Coverage: 11 u25cc_u103c

StartChar: u0020
Encoding: 32 32 0
Width: 480
VWidth: 0
Flags: HW
LayerCount: 2
Fore
SplineSet
480 -51 m 0
EndSplineSet
Validated: 1
EndChar

StartChar: u0021
Encoding: 33 33 1
Width: 155
VWidth: 0
Flags: HW
LayerCount: 2
Fore
SplineSet
40 549 m 1
 90 549 l 1
 90 74 l 1
 40 74 l 1
 40 549 l 1
78 -51 m 2
 76 -51 l 2
 56 -51 40 -34 40 -14 c 0
 40 7 56 24 77 24 c 0
 98 24 114 7 114 -14 c 0
 114 -34 98 -51 78 -51 c 2
EndSplineSet
Validated: 1
EndChar

StartChar: u0022
Encoding: 34 34 2
Width: 230
VWidth: 0
Flags: HW
LayerCount: 2
Fore
SplineSet
40 549 m 1
 90 549 l 1
 90 429 l 1
 40 429 l 1
 40 549 l 1
140 549 m 1
 190 549 l 1
 190 429 l 1
 140 429 l 1
 140 549 l 1
EndSplineSet
Validated: 1
EndChar

StartChar: u0023
Encoding: 35 35 3
Width: 480
VWidth: 0
Flags: HW
LayerCount: 2
Fore
SplineSet
100 -51 m 1
 120 49 l 1
 20 49 l 1
 30 99 l 1
 130 99 l 1
 150 199 l 1
 50 199 l 1
 60 249 l 1
 160 249 l 1
 180 349 l 1
 230 349 l 1
 210 249 l 1
 310 249 l 1
 330 349 l 1
 380 349 l 1
 360 249 l 1
 460 249 l 1
 450 199 l 1
 350 199 l 1
 330 99 l 1
 430 99 l 1
 420 49 l 1
 320 49 l 1
 300 -51 l 1
 250 -51 l 1
 270 49 l 1
 170 49 l 1
 150 -51 l 1
 100 -51 l 1
180 99 m 1
 280 99 l 1
 300 199 l 1
 200 199 l 1
 180 99 l 1
EndSplineSet
Validated: 1
EndChar

StartChar: u0024
Encoding: 36 36 4
Width: 480
VWidth: 0
Flags: HW
LayerCount: 2
Fore
SplineSet
440 386 m 1
 440 476 350 549 240 549 c 0
 130 549 40 476 40 386 c 0
 40 296 130 224 240 224 c 0
 323 224 390 174 390 112 c 0
 390 50 323 -1 240 -1 c 0
 157 -1 90 50 90 112 c 1
 40 112 l 1
 40 22 130 -51 240 -51 c 0
 350 -51 440 22 440 112 c 0
 440 202 350 274 240 274 c 0
 157 274 90 324 90 386 c 0
 90 448 157 499 240 499 c 0
 323 499 390 448 390 386 c 1
 440 386 l 1
215 599 m 1
 265 599 l 1
 265 -101 l 1
 215 -101 l 1
 215 599 l 1
EndSplineSet
Validated: 5
EndChar

StartChar: u0025
Encoding: 37 37 5
Width: 480
VWidth: 0
Flags: HW
LayerCount: 2
Fore
SplineSet
440 349 m 1
 106 -51 l 1
 40 -51 l 1
 374 349 l 1
 440 349 l 1
140 149 m 2
 139 149 l 2
 84 149 40 194 40 249 c 0
 40 304 85 349 140 349 c 0
 195 349 240 304 240 249 c 0
 240 194 195 149 140 149 c 2
139 199 m 2
 140 199 l 2
 167 199 190 222 190 249 c 0
 190 277 168 299 140 299 c 0
 112 299 90 277 90 249 c 0
 90 222 112 199 139 199 c 2
340 -51 m 2
 339 -51 l 2
 284 -51 240 -6 240 49 c 0
 240 104 285 149 340 149 c 0
 395 149 440 104 440 49 c 0
 440 -6 395 -51 340 -51 c 2
339 -1 m 2
 340 -1 l 2
 367 -1 390 22 390 49 c 0
 390 77 368 99 340 99 c 0
 312 99 290 77 290 49 c 0
 290 22 312 -1 339 -1 c 2
EndSplineSet
Validated: 1
EndChar

StartChar: u0026
Encoding: 38 38 6
Width: 480
VWidth: 0
Flags: HW
LayerCount: 2
Fore
SplineSet
440 249 m 1
 440 83 350 -51 240 -51 c 0
 130 -51 40 39 40 149 c 0
 40 259 130 349 240 349 c 1
 240 349 l 1
 281 349 315 383 315 424 c 0
 315 465 281 499 240 499 c 0
 199 499 165 465 165 424 c 0
 165 413 169 396 175 386 c 2
 413 -25 l 1
 369 -50 l 1
 132 362 l 2
 123 378 115 406 115 424 c 0
 115 493 171 549 240 549 c 0
 309 549 365 493 365 424 c 0
 365 355 309 299 240 299 c 0
 157 299 90 232 90 149 c 0
 90 66 157 -1 240 -1 c 0
 323 -1 390 111 390 249 c 1
 440 249 l 1
EndSplineSet
Validated: 5
EndChar

StartChar: u0027
Encoding: 39 39 7
Width: 130
VWidth: 0
Flags: HW
LayerCount: 2
Fore
SplineSet
40 549 m 1
 90 549 l 1
 90 429 l 1
 40 429 l 1
 40 549 l 1
EndSplineSet
Validated: 1
EndChar

StartChar: u0028
Encoding: 40 40 8
Width: 237
VWidth: 0
Flags: HW
LayerCount: 2
Fore
SplineSet
147 -251 m 1
 17 -326 l 1
 190 -226 l 1
 135 -130 90 38 90 149 c 0
 90 260 135 428 190 524 c 1
 147 549 l 1
 88 447 40 267 40 149 c 0
 40 31 88 -149 147 -251 c 1
EndSplineSet
Validated: 5
EndChar

StartChar: u0029
Encoding: 41 41 9
Width: 237
VWidth: 0
Flags: HW
LayerCount: 2
Fore
SplineSet
90 -251 m 1
 149 -149 197 31 197 149 c 0
 197 267 149 447 90 549 c 1
 47 524 l 1
 102 428 147 260 147 149 c 0
 147 38 102 -130 47 -226 c 1
 220 -326 l 1
 90 -251 l 1
EndSplineSet
Validated: 5
EndChar

StartChar: u002a
Encoding: 42 42 10
Width: 480
VWidth: 0
Flags: HW
LayerCount: 2
Fore
SplineSet
288 349 m 1
 424 271 l 1
 419 258 407 239 399 228 c 1
 264 308 l 1
 265 151 l 1
 258 150 247 149 240 149 c 0
 233 149 222 150 215 151 c 1
 216 308 l 1
 81 228 l 1
 73 239 61 258 56 271 c 1
 192 349 l 1
 56 427 l 1
 61 440 73 459 81 470 c 1
 216 390 l 1
 215 547 l 1
 222 548 233 549 240 549 c 0
 247 549 258 548 265 547 c 1
 264 390 l 1
 399 470 l 1
 407 459 419 440 424 427 c 1
 288 349 l 1
EndSplineSet
Validated: 1
EndChar

StartChar: u002b
Encoding: 43 43 11
Width: 480
VWidth: 0
Flags: HW
LayerCount: 2
Fore
SplineSet
40 174 m 1
 215 174 l 1
 215 349 l 1
 265 349 l 1
 265 174 l 1
 440 174 l 1
 440 124 l 1
 265 124 l 1
 265 -51 l 1
 215 -51 l 1
 215 124 l 1
 40 124 l 1
 40 174 l 1
EndSplineSet
Validated: 1
EndChar

StartChar: u002c
Encoding: 44 44 12
Width: 155
VWidth: 0
Flags: HW
LayerCount: 2
Fore
SplineSet
78 -51 m 1
 57 -51 40 -35 40 -14 c 0
 40 7 57 24 78 24 c 0
 99 24 115 7 115 -14 c 0
 115 -55 81 -88 40 -88 c 1
 78 -51 l 1
EndSplineSet
Validated: 1
EndChar

StartChar: u002d
Encoding: 45 45 13
Width: 280
VWidth: 0
Flags: HW
LayerCount: 2
Fore
SplineSet
40 174 m 1
 240 174 l 1
 240 124 l 1
 40 124 l 1
 40 174 l 1
EndSplineSet
Validated: 1
EndChar

StartChar: u002e
Encoding: 46 46 14
Width: 155
VWidth: 0
Flags: HW
LayerCount: 2
Fore
SplineSet
78 -51 m 2
 76 -51 l 2
 56 -51 40 -34 40 -14 c 0
 40 7 56 24 77 24 c 0
 98 24 114 7 114 -14 c 0
 114 -34 98 -51 78 -51 c 2
EndSplineSet
Validated: 1
EndChar

StartChar: u002f
Encoding: 47 47 15
Width: 480
VWidth: 0
Flags: HW
LayerCount: 2
Fore
SplineSet
440 549 m 1
 98 -51 l 1
 40 -51 l 1
 382 549 l 1
 440 549 l 1
EndSplineSet
Validated: 1
EndChar

StartChar: u0030
Encoding: 48 48 16
Width: 480
VWidth: 0
Flags: HW
LayerCount: 2
Fore
SplineSet
240 -51 m 2
 239 -51 l 2
 129 -51 40 84 40 249 c 0
 40 415 130 549 240 549 c 0
 350 549 440 415 440 249 c 0
 440 84 350 -51 240 -51 c 2
239 -1 m 2
 240 -1 l 2
 323 -1 390 111 390 249 c 0
 390 387 323 499 240 499 c 0
 157 499 90 387 90 249 c 0
 90 111 156 -1 239 -1 c 2
EndSplineSet
Validated: 1
EndChar

StartChar: u0031
Encoding: 49 49 17
Width: 271
VWidth: 0
Flags: HW
LayerCount: 2
Fore
SplineSet
40 408 m 1
 181 549 l 1
 231 549 l 1
 231 -51 l 1
 181 -51 l 1
 181 478 l 1
 40 337 l 1
 5 372 l 1
 40 408 l 1
EndSplineSet
Validated: 1
EndChar

StartChar: u0032
Encoding: 50 50 18
Width: 480
VWidth: 0
Flags: HW
LayerCount: 2
Fore
SplineSet
440 -51 m 1
 40 -51 l 1
 345 245 l 2
 370 269 390 317 390 352 c 0
 390 435 323 502 240 502 c 0
 157 502 90 435 90 352 c 1
 40 352 l 1
 40 462 130 552 240 552 c 0
 350 552 440 462 440 352 c 0
 440 305 412 242 379 209 c 2
 163 -1 l 1
 440 -1 l 1
 440 -51 l 1
EndSplineSet
Validated: 1
EndChar

StartChar: u0033
Encoding: 51 51 19
Width: 480
VWidth: 0
Flags: HW
LayerCount: 2
Fore
SplineSet
40 386 m 1
 40 476 130 549 240 549 c 0
 350 549 440 476 440 386 c 0
 440 336 399 275 347 249 c 1
 399 223 440 162 440 112 c 0
 440 22 350 -51 240 -51 c 0
 130 -51 40 22 40 112 c 1
 90 112 l 1
 90 50 157 -1 240 -1 c 0
 323 -1 390 50 390 112 c 0
 390 174 323 224 240 224 c 1
 240 274 l 1
 323 274 390 324 390 386 c 0
 390 448 323 499 240 499 c 0
 157 499 90 448 90 386 c 1
 40 386 l 1
EndSplineSet
Validated: 1
EndChar

StartChar: u0034
Encoding: 52 52 20
Width: 480
VWidth: 0
Flags: HW
LayerCount: 2
Fore
SplineSet
340 549 m 1
 390 549 l 1
 390 149 l 1
 440 149 l 1
 440 99 l 1
 390 99 l 1
 390 -51 l 1
 340 -51 l 1
 340 99 l 1
 40 99 l 1
 40 149 l 1
 340 549 l 1
102 149 m 1
 340 149 l 1
 340 466 l 1
 102 149 l 1
EndSplineSet
Validated: 1
EndChar

StartChar: u0035
Encoding: 53 53 21
Width: 480
VWidth: 0
Flags: HW
LayerCount: 2
Fore
SplineSet
59 64 m 1
 104 86 l 1
 126 38 187 -1 240 -1 c 0
 323 -1 390 66 390 149 c 0
 390 232 323 299 240 299 c 0
 210 299 167 283 144 264 c 0
 134 256 116 249 103 249 c 0
 68 249 40 277 40 312 c 2
 40 474 l 2
 40 515 74 549 115 549 c 2
 440 549 l 1
 440 499 l 1
 115 499 l 2
 101 499 90 488 90 474 c 2
 90 312 l 2
 90 305 96 299 103 299 c 0
 106 299 109 300 111 302 c 0
 142 328 200 349 240 349 c 0
 350 349 440 259 440 149 c 0
 440 39 350 -51 240 -51 c 0
 170 -51 89 0 59 64 c 1
EndSplineSet
Validated: 1
EndChar

StartChar: u0036
Encoding: 54 54 22
Width: 480
VWidth: 0
Flags: HW
LayerCount: 2
Fore
SplineSet
104 295 m 1
 136 325 197 349 240 349 c 0
 350 349 440 259 440 149 c 0
 440 39 350 -51 240 -51 c 0
 130 -51 40 39 40 149 c 0
 40 370 130 549 240 549 c 0
 257 549 285 540 302 529 c 1
 286 482 l 1
 274 491 253 499 240 499 c 0
 187 499 126 407 104 295 c 1
240 -1 m 2
 241 -1 l 2
 324 -1 390 66 390 149 c 0
 390 232 323 299 240 299 c 0
 157 299 90 232 90 149 c 0
 90 66 157 -1 240 -1 c 2
EndSplineSet
Validated: 1
EndChar

StartChar: u0037
Encoding: 55 55 23
Width: 480
VWidth: 0
Flags: HW
LayerCount: 2
Fore
SplineSet
40 -51 m 1
 358 499 l 1
 40 499 l 1
 40 549 l 1
 440 549 l 1
 96 -51 l 1
 40 -51 l 1
EndSplineSet
Validated: 1
EndChar

StartChar: u0038
Encoding: 56 56 24
Width: 480
VWidth: 0
Flags: HW
LayerCount: 2
Fore
SplineSet
133 249 m 1
 81 275 40 336 40 386 c 0
 40 476 130 549 240 549 c 0
 350 549 440 476 440 386 c 0
 440 336 399 275 347 249 c 1
 399 223 440 162 440 112 c 0
 440 22 350 -51 240 -51 c 0
 130 -51 40 22 40 112 c 0
 40 162 81 223 133 249 c 1
240 274 m 2
 323 274 390 324 390 386 c 0
 390 448 323 499 240 499 c 0
 157 499 90 448 90 386 c 0
 90 324 156 274 239 274 c 2
 240 274 l 2
240 -1 m 2
 323 -1 390 49 390 111 c 0
 390 173 323 224 240 224 c 0
 157 224 90 173 90 111 c 0
 90 49 156 -1 239 -1 c 2
 240 -1 l 2
EndSplineSet
Validated: 1
EndChar

StartChar: u0039
Encoding: 57 57 25
Width: 480
VWidth: 0
Flags: HW
LayerCount: 2
Fore
SplineSet
376 203 m 1
 344 173 283 149 240 149 c 0
 130 149 40 239 40 349 c 0
 40 459 130 549 240 549 c 0
 350 549 440 459 440 349 c 0
 440 128 350 -51 240 -51 c 0
 223 -51 195 -42 178 -31 c 1
 194 16 l 1
 206 7 227 -1 240 -1 c 0
 293 -1 354 91 376 203 c 1
240 199 m 2
 241 199 l 2
 324 199 390 266 390 349 c 0
 390 432 323 499 240 499 c 0
 157 499 90 432 90 349 c 0
 90 266 157 199 240 199 c 2
EndSplineSet
Validated: 1
EndChar

StartChar: u003a
Encoding: 58 58 26
Width: 155
VWidth: 0
Flags: HW
LayerCount: 2
Fore
SplineSet
100 -51 m 2
 99 -51 l 2
 79 -51 62 -34 62 -14 c 0
 62 7 79 24 100 24 c 0
 121 24 137 7 137 -14 c 0
 137 -34 120 -51 100 -51 c 2
78 312 m 2
 76 312 l 2
 56 312 40 329 40 349 c 0
 40 370 56 386 77 386 c 0
 98 386 114 370 114 349 c 0
 114 329 98 312 78 312 c 2
EndSplineSet
Validated: 1
EndChar

StartChar: u003b
Encoding: 59 59 27
Width: 115
VWidth: 0
Flags: HW
LayerCount: 2
Fore
SplineSet
78 -51 m 1
 57 -51 40 -35 40 -14 c 0
 40 7 57 24 78 24 c 0
 99 24 115 7 115 -14 c 0
 115 -55 81 -88 40 -88 c 1
 78 -51 l 1
78 312 m 2
 76 312 l 2
 56 312 40 329 40 349 c 0
 40 370 56 386 77 386 c 0
 98 386 114 370 114 349 c 0
 114 329 98 312 78 312 c 2
EndSplineSet
Validated: 1
EndChar

StartChar: u003c
Encoding: 60 60 28
Width: 480
VWidth: 0
Flags: HW
LayerCount: 2
Fore
SplineSet
440 -51 m 1
 40 149 l 1
 440 349 l 1
 440 293 l 1
 152 149 l 1
 440 5 l 1
 440 -51 l 1
EndSplineSet
Validated: 1
EndChar

StartChar: u003d
Encoding: 61 61 29
Width: 480
VWidth: 0
Flags: HW
LayerCount: 2
Fore
SplineSet
40 99 m 1
 440 99 l 1
 440 49 l 1
 40 49 l 1
 40 99 l 1
40 199 m 1
 440 199 l 1
 440 149 l 1
 40 149 l 1
 40 199 l 1
EndSplineSet
Validated: 1
EndChar

StartChar: u003e
Encoding: 62 62 30
Width: 480
VWidth: 0
Flags: HW
LayerCount: 2
Fore
SplineSet
40 -51 m 1
 40 5 l 1
 328 149 l 1
 40 293 l 1
 40 349 l 1
 440 149 l 1
 40 -51 l 1
EndSplineSet
Validated: 1
EndChar

StartChar: u003f
Encoding: 63 63 31
Width: 480
VWidth: 0
Flags: HW
LayerCount: 2
Fore
SplineSet
40 349 m 1
 40 459 130 549 240 549 c 0
 350 549 440 459 440 349 c 1
 425 302 380 241 340 212 c 1
 310 187 276 137 265 99 c 1
 215 99 l 1
 230 146 275 207 315 236 c 1
 345 261 379 311 390 349 c 1
 390 432 323 499 240 499 c 0
 157 499 90 432 90 349 c 1
 40 349 l 1
240 -51 m 2
 239 -51 l 2
 219 -51 202 -34 202 -14 c 0
 202 7 219 24 240 24 c 0
 261 24 277 7 277 -14 c 0
 277 -34 260 -51 240 -51 c 2
EndSplineSet
Validated: 1
EndChar

StartChar: u0040
Encoding: 64 64 32
Width: 480
VWidth: 0
Flags: HW
LayerCount: 2
Fore
SplineSet
365 249 m 1
 365 99 l 1
 393 99 415 144 415 199 c 0
 415 282 348 349 265 349 c 0
 155 349 65 259 65 149 c 0
 65 39 155 -51 265 -51 c 0
 311 -51 374 -24 406 8 c 1
 442 -28 l 1
 402 -68 322 -101 265 -101 c 0
 127 -101 15 11 15 149 c 0
 15 287 127 399 265 399 c 0
 375 399 465 309 465 199 c 0
 465 116 420 49 365 49 c 2
 315 49 l 1
 315 62 l 1
 302 55 280 49 265 49 c 0
 210 49 165 94 165 149 c 0
 165 204 210 249 265 249 c 0
 280 249 302 243 315 236 c 1
 315 249 l 1
 365 249 l 1
265 99 m 2
 266 99 l 2
 293 99 316 122 316 149 c 0
 316 177 294 199 266 199 c 0
 238 199 216 177 216 149 c 0
 216 122 238 99 265 99 c 2
EndSplineSet
Validated: 1
EndChar

StartChar: u0041
Encoding: 65 65 33
Width: 480
VWidth: 0
Flags: HW
LayerCount: 2
Fore
SplineSet
40 -51 m 1
 240 549 l 1
 440 -51 l 1
 387 -51 l 1
 337 99 l 1
 143 99 l 1
 93 -51 l 1
 40 -51 l 1
159 149 m 1
 321 149 l 1
 240 391 l 1
 159 149 l 1
EndSplineSet
Validated: 1
EndChar

StartChar: u0042
Encoding: 66 66 34
Width: 480
VWidth: 0
Flags: HW
LayerCount: 2
Fore
SplineSet
40 549 m 1
 240 549 l 1
 240 549 l 1
 350 549 440 476 440 386 c 0
 440 336 399 275 347 249 c 1
 399 223 440 162 440 112 c 0
 440 22 350 -51 240 -51 c 2
 40 -51 l 1
 40 549 l 1
90 499 m 1
 90 274 l 1
 240 274 l 2
 323 274 390 324 390 386 c 0
 390 448 323 499 240 499 c 2
 90 499 l 1
90 224 m 1
 90 -1 l 1
 240 -1 l 2
 323 -1 390 50 390 112 c 0
 390 174 323 224 240 224 c 2
 90 224 l 1
EndSplineSet
Validated: 5
EndChar

StartChar: u0043
Encoding: 67 67 35
Width: 480
VWidth: 0
Flags: HW
LayerCount: 2
Fore
SplineSet
413 399 m 1
 370 374 l 1
 346 443 288 499 240 499 c 0
 157 499 90 387 90 249 c 0
 90 111 157 -1 240 -1 c 0
 288 -1 346 55 370 124 c 1
 413 99 l 1
 381 16 304 -51 240 -51 c 0
 130 -51 40 83 40 249 c 0
 40 415 130 549 240 549 c 0
 304 549 381 482 413 399 c 1
EndSplineSet
Validated: 1
EndChar

StartChar: u0044
Encoding: 68 68 36
Width: 480
VWidth: 0
Flags: HW
LayerCount: 2
Fore
SplineSet
40 549 m 1
 240 549 l 2
 350 549 440 415 440 249 c 0
 440 83 350 -51 240 -51 c 2
 40 -51 l 1
 40 549 l 1
90 499 m 1
 90 -1 l 1
 240 -1 l 2
 323 -1 390 111 390 249 c 0
 390 387 323 499 240 499 c 2
 90 499 l 1
EndSplineSet
Validated: 1
EndChar

StartChar: u0045
Encoding: 69 69 37
Width: 480
VWidth: 0
Flags: HW
LayerCount: 2
Fore
SplineSet
40 549 m 1
 440 549 l 1
 440 499 l 1
 90 499 l 1
 90 274 l 1
 240 274 l 1
 240 224 l 1
 90 224 l 1
 90 -1 l 1
 440 -1 l 1
 440 -51 l 1
 40 -51 l 1
 40 549 l 1
EndSplineSet
Validated: 1
EndChar

StartChar: u0046
Encoding: 70 70 38
Width: 480
VWidth: 0
Flags: HW
LayerCount: 2
Fore
SplineSet
40 549 m 1
 440 549 l 1
 440 499 l 1
 90 499 l 1
 90 274 l 1
 240 274 l 1
 240 224 l 1
 90 224 l 1
 90 -51 l 1
 40 -51 l 1
 40 549 l 1
EndSplineSet
Validated: 1
EndChar

StartChar: u0047
Encoding: 71 71 39
Width: 480
VWidth: 0
Flags: HW
LayerCount: 2
Fore
SplineSet
413 399 m 1
 370 374 l 1
 346 443 288 499 240 499 c 0
 157 499 90 387 90 249 c 0
 90 111 157 -1 240 -1 c 0
 288 -1 346 55 370 124 c 1
 373 130 l 2
 375 133 377 138 377 142 c 0
 377 156 366 167 352 167 c 2
 195 167 l 1
 195 217 l 1
 352 217 l 2
 393 217 427 183 427 142 c 0
 427 131 423 115 417 105 c 2
 413 99 l 1
 381 16 304 -51 240 -51 c 0
 130 -51 40 83 40 249 c 0
 40 415 130 549 240 549 c 0
 304 549 381 482 413 399 c 1
EndSplineSet
Validated: 1
EndChar

StartChar: u0048
Encoding: 72 72 40
Width: 480
VWidth: 0
Flags: HW
LayerCount: 2
Fore
SplineSet
40 549 m 1
 90 549 l 1
 90 274 l 1
 390 274 l 1
 390 549 l 1
 440 549 l 1
 440 -51 l 1
 390 -51 l 1
 390 224 l 1
 90 224 l 1
 90 -51 l 1
 40 -51 l 1
 40 699 l 1
 40 549 l 1
EndSplineSet
Validated: 5
EndChar

StartChar: u0049
Encoding: 73 73 41
Width: 230
VWidth: 0
Flags: HW
LayerCount: 2
Fore
SplineSet
40 549 m 1
 190 549 l 1
 190 499 l 1
 140 499 l 1
 140 -1 l 1
 190 -1 l 1
 190 -51 l 1
 40 -51 l 1
 40 -1 l 1
 90 -1 l 1
 90 499 l 1
 40 499 l 1
 40 549 l 1
EndSplineSet
Validated: 1
EndChar

StartChar: u004a
Encoding: 74 74 42
Width: 480
VWidth: 0
Flags: HW
LayerCount: 2
Fore
SplineSet
40 149 m 1
 90 149 l 1
 90 66 157 -1 240 -1 c 0
 323 -1 390 66 390 149 c 2
 390 549 l 1
 440 549 l 1
 440 149 l 2
 440 39 350 -51 240 -51 c 0
 130 -51 40 39 40 149 c 1
EndSplineSet
Validated: 1
EndChar

StartChar: u004b
Encoding: 75 75 43
Width: 480
VWidth: 0
Flags: HW
LayerCount: 2
Fore
SplineSet
40 549 m 1
 90 549 l 1
 90 282 l 1
 363 549 l 1
 440 549 l 1
 128 249 l 1
 440 -51 l 1
 363 -51 l 1
 90 216 l 1
 90 -51 l 1
 40 -51 l 1
 40 549 l 1
EndSplineSet
Validated: 1
EndChar

StartChar: u004c
Encoding: 76 76 44
Width: 480
VWidth: 0
Flags: HW
LayerCount: 2
Fore
SplineSet
40 549 m 1
 90 549 l 1
 90 -1 l 1
 440 -1 l 1
 440 -51 l 1
 40 -51 l 1
 40 549 l 1
EndSplineSet
Validated: 1
EndChar

StartChar: u004d
Encoding: 77 77 45
Width: 830
VWidth: 0
Flags: HW
LayerCount: 2
Fore
SplineSet
40 549 m 1
 90 549 l 1
 415 -4 l 1
 740 549 l 1
 790 549 l 1
 790 -51 l 1
 740 -51 l 1
 740 456 l 1
 445 -51 l 1
 385 -51 l 1
 90 456 l 1
 90 -51 l 1
 40 -51 l 1
 40 549 l 1
EndSplineSet
Validated: 1
EndChar

StartChar: u004e
Encoding: 78 78 46
Width: 480
VWidth: 0
Flags: HW
LayerCount: 2
Fore
SplineSet
40 549 m 1
 90 549 l 1
 390 42 l 1
 390 549 l 1
 440 549 l 1
 440 -51 l 1
 390 -51 l 1
 90 456 l 1
 90 -51 l 1
 40 -51 l 1
 40 549 l 1
EndSplineSet
Validated: 1
EndChar

StartChar: u004f
Encoding: 79 79 47
Width: 680
VWidth: 0
Flags: HW
LayerCount: 2
Fore
SplineSet
340 -51 m 2
 339 -51 l 2
 174 -51 40 84 40 249 c 0
 40 415 174 549 340 549 c 0
 506 549 640 415 640 249 c 0
 640 84 505 -51 340 -51 c 2
339 -1 m 2
 340 -1 l 2
 478 -1 590 111 590 249 c 0
 590 387 478 499 340 499 c 0
 202 499 90 387 90 249 c 0
 90 111 201 -1 339 -1 c 2
EndSplineSet
Validated: 1
EndChar

StartChar: u0050
Encoding: 80 80 48
Width: 480
VWidth: 0
Flags: HW
LayerCount: 2
Fore
SplineSet
40 549 m 1
 240 549 l 2
 350 549 440 476 440 386 c 0
 440 296 350 224 240 224 c 2
 90 224 l 1
 90 -51 l 1
 40 -51 l 1
 40 549 l 1
90 499 m 1
 90 274 l 1
 240 274 l 2
 323 274 390 324 390 386 c 0
 390 448 323 499 240 499 c 2
 90 499 l 1
EndSplineSet
Validated: 1
EndChar

StartChar: u0051
Encoding: 81 81 49
Width: 480
VWidth: 0
Flags: HW
LayerCount: 2
Fore
SplineSet
354 3 m 1
 428 -65 l 1
 391 -98 l 1
 325 -22 l 1
 303 -38 265 -51 240 -51 c 0
 130 -51 40 83 40 249 c 0
 40 415 130 549 240 549 c 0
 350 549 440 415 440 249 c 0
 440 162 401 52 354 3 c 1
240 -1 m 2
 241 -1 l 2
 324 -1 390 111 390 249 c 0
 390 387 323 499 240 499 c 0
 157 499 90 387 90 249 c 0
 90 111 157 -1 240 -1 c 2
EndSplineSet
Validated: 1
EndChar

StartChar: u0052
Encoding: 82 82 50
Width: 480
VWidth: 0
Flags: HW
LayerCount: 2
Fore
SplineSet
40 549 m 1
 240 549 l 2
 350 549 440 476 440 386 c 0
 440 296 350 224 240 224 c 2
 164 224 l 1
 440 -51 l 1
 366 -51 l 1
 90 224 l 1
 90 -51 l 1
 40 -51 l 1
 40 549 l 1
90 499 m 1
 90 274 l 1
 240 274 l 2
 323 274 390 324 390 386 c 0
 390 448 323 499 240 499 c 2
 90 499 l 1
EndSplineSet
Validated: 1
EndChar

StartChar: u0053
Encoding: 83 83 51
Width: 480
VWidth: 0
Flags: HW
LayerCount: 2
Fore
SplineSet
440 386 m 1
 390 386 l 1
 390 448 323 499 240 499 c 0
 157 499 90 448 90 386 c 0
 90 324 157 274 240 274 c 0
 350 274 440 202 440 112 c 0
 440 22 350 -51 240 -51 c 0
 130 -51 40 22 40 112 c 1
 90 112 l 1
 90 50 157 -1 240 -1 c 0
 323 -1 390 50 390 112 c 0
 390 174 323 224 240 224 c 0
 130 224 40 296 40 386 c 0
 40 476 130 549 240 549 c 0
 350 549 440 476 440 386 c 1
EndSplineSet
Validated: 1
EndChar

StartChar: u0054
Encoding: 84 84 52
Width: 480
VWidth: 0
Flags: HW
LayerCount: 2
Fore
SplineSet
40 549 m 1
 440 549 l 1
 440 499 l 1
 265 499 l 1
 265 -51 l 1
 215 -51 l 1
 215 499 l 1
 40 499 l 1
 40 449 l 1
 40 549 l 1
EndSplineSet
Validated: 5
EndChar

StartChar: u0055
Encoding: 85 85 53
Width: 480
VWidth: 0
Flags: HW
LayerCount: 2
Fore
SplineSet
40 549 m 1
 90 549 l 1
 90 112 l 2
 90 50 157 -1 240 -1 c 0
 323 -1 390 50 390 112 c 2
 390 549 l 1
 440 549 l 1
 440 112 l 2
 440 22 350 -51 240 -51 c 0
 130 -51 40 22 40 112 c 2
 40 549 l 1
EndSplineSet
Validated: 1
EndChar

StartChar: u0056
Encoding: 86 86 54
Width: 480
VWidth: 0
Flags: HW
LayerCount: 2
Fore
SplineSet
40 549 m 1
 93 549 l 1
 240 107 l 1
 387 549 l 1
 440 549 l 1
 240 -51 l 1
 40 549 l 1
EndSplineSet
Validated: 1
EndChar

StartChar: u0057
Encoding: 87 87 55
Width: 830
VWidth: 0
Flags: HW
LayerCount: 2
Fore
SplineSet
40 549 m 1
 93 549 l 1
 240 107 l 1
 387 549 l 1
 440 549 l 1
 587 107 l 1
 735 549 l 1
 787 549 l 1
 587 -51 l 1
 414 470 l 1
 240 -51 l 1
 40 549 l 1
EndSplineSet
Validated: 1
EndChar

StartChar: u0058
Encoding: 88 88 56
Width: 480
VWidth: 0
Flags: HW
LayerCount: 2
Fore
SplineSet
40 549 m 1
 98 549 l 1
 240 305 l 1
 382 549 l 1
 440 549 l 1
 269 249 l 1
 440 -51 l 1
 382 -51 l 1
 240 193 l 1
 98 -51 l 1
 40 -51 l 1
 211 249 l 1
 40 549 l 1
EndSplineSet
Validated: 1
EndChar

StartChar: u0059
Encoding: 89 89 57
Width: 480
VWidth: 0
Flags: HW
LayerCount: 2
Fore
SplineSet
40 549 m 1
 98 549 l 1
 240 305 l 1
 382 549 l 1
 440 549 l 1
 265 249 l 1
 265 -51 l 1
 215 -51 l 1
 215 249 l 1
 40 549 l 1
EndSplineSet
Validated: 1
EndChar

StartChar: u005a
Encoding: 90 90 58
Width: 480
VWidth: 0
Flags: HW
LayerCount: 2
Fore
SplineSet
40 549 m 1
 440 549 l 1
 440 499 l 1
 104 -1 l 1
 440 -1 l 1
 440 -51 l 1
 40 -51 l 1
 40 -1 l 1
 376 499 l 1
 40 499 l 1
 40 449 l 1
 40 549 l 1
EndSplineSet
Validated: 5
EndChar

StartChar: u005b
Encoding: 91 91 59
Width: 230
VWidth: 0
Flags: HW
LayerCount: 2
Fore
SplineSet
40 549 m 1
 190 549 l 1
 190 499 l 1
 90 499 l 1
 90 -201 l 1
 190 -201 l 1
 190 -251 l 1
 40 -251 l 1
 40 549 l 1
EndSplineSet
Validated: 1
EndChar

StartChar: u005c
Encoding: 92 92 60
Width: 480
VWidth: 0
Flags: HW
LayerCount: 2
Fore
SplineSet
40 549 m 1
 98 549 l 1
 440 -51 l 1
 382 -51 l 1
 40 549 l 1
EndSplineSet
Validated: 1
EndChar

StartChar: u005d
Encoding: 93 93 61
Width: 230
VWidth: 0
Flags: HW
LayerCount: 2
Fore
SplineSet
190 549 m 1
 190 -251 l 1
 40 -251 l 1
 40 -201 l 1
 140 -201 l 1
 140 499 l 1
 40 499 l 1
 40 549 l 1
 190 549 l 1
EndSplineSet
Validated: 1
EndChar

StartChar: u005e
Encoding: 94 94 62
Width: 480
VWidth: 0
Flags: HW
LayerCount: 2
Fore
SplineSet
120 374 m 1
 240 494 l 1
 360 374 l 1
 289 374 l 1
 240 423 l 1
 191 374 l 1
 120 374 l 1
EndSplineSet
Validated: 1
EndChar

StartChar: u005f
Encoding: 95 95 63
Width: 480
VWidth: 0
Flags: HW
LayerCount: 2
Fore
SplineSet
0 -76 m 1
 480 -76 l 1
 480 -126 l 1
 0 -126 l 1
 0 -76 l 1
EndSplineSet
Validated: 1
EndChar

StartChar: u0060
Encoding: 96 96 64
Width: 480
VWidth: 0
Flags: HW
LayerCount: 2
Fore
SplineSet
155 614 m 1
 395 374 l 1
 325 374 l 1
 85 614 l 1
 155 614 l 1
EndSplineSet
Validated: 1
EndChar

StartChar: u0061
Encoding: 97 97 65
Width: 480
VWidth: 0
Flags: HW
LayerCount: 2
Fore
SplineSet
40 216 m 1
 40 290 130 349 240 349 c 0
 350 349 440 290 440 216 c 2
 440 -51 l 1
 390 -51 l 1
 390 -6 l 1
 357 -31 290 -51 240 -51 c 0
 130 -51 40 8 40 82 c 0
 40 156 130 216 240 216 c 2
 390 216 l 1
 390 262 323 299 240 299 c 0
 157 299 90 262 90 216 c 1
 40 216 l 1
390 166 m 1
 240 166 l 2
 157 166 90 128 90 82 c 0
 90 36 157 -1 240 -1 c 0
 323 -1 390 36 390 82 c 2
 390 249 l 1
 390 166 l 1
EndSplineSet
Validated: 5
AlternateSubs2: "latnalt" u0061_alt
EndChar

StartChar: u0062
Encoding: 98 98 66
Width: 480
VWidth: 0
Flags: HW
LayerCount: 2
Fore
SplineSet
40 549 m 1
 90 549 l 1
 90 281 l 1
 123 318 190 349 240 349 c 0
 350 349 440 259 440 149 c 0
 440 39 350 -51 240 -51 c 0
 190 -51 123 -20 90 17 c 1
 90 -51 l 1
 40 -51 l 1
 40 549 l 1
240 -1 m 2
 323 -1 390 66 390 149 c 0
 390 232 323 299 240 299 c 0
 157 299 90 232 90 149 c 0
 90 66 156 -1 239 -1 c 2
 240 -1 l 2
EndSplineSet
Validated: 1
EndChar

StartChar: u0063
Encoding: 99 99 67
Width: 480
VWidth: 0
Flags: HW
LayerCount: 2
Fore
SplineSet
413 249 m 1
 370 224 l 1
 346 265 288 299 240 299 c 0
 157 299 90 232 90 149 c 0
 90 66 157 -1 240 -1 c 0
 288 -1 346 33 370 74 c 1
 413 49 l 1
 381 -6 304 -51 240 -51 c 0
 130 -51 40 39 40 149 c 0
 40 259 130 349 240 349 c 0
 304 349 381 304 413 249 c 1
EndSplineSet
Validated: 1
EndChar

StartChar: u0064
Encoding: 100 100 68
Width: 480
VWidth: 0
Flags: HW
LayerCount: 2
Fore
SplineSet
440 549 m 1
 440 -51 l 1
 390 -51 l 1
 390 17 l 1
 357 -20 290 -51 240 -51 c 0
 130 -51 40 39 40 149 c 0
 40 259 130 349 240 349 c 0
 290 349 357 318 390 281 c 1
 390 549 l 1
 440 549 l 1
240 -1 m 2
 241 -1 l 2
 324 -1 390 66 390 149 c 0
 390 232 323 299 240 299 c 0
 157 299 90 232 90 149 c 0
 90 66 157 -1 240 -1 c 2
EndSplineSet
Validated: 1
EndChar

StartChar: u0065
Encoding: 101 101 69
Width: 480
VWidth: 0
Flags: HW
LayerCount: 2
Fore
SplineSet
440 149 m 1
 90 149 l 1
 90 66 157 -1 240 -1 c 0
 288 -1 346 33 370 74 c 1
 413 49 l 1
 381 -6 304 -51 240 -51 c 0
 130 -51 40 39 40 149 c 0
 40 259 130 349 240 349 c 0
 350 349 440 259 440 149 c 1
98 199 m 0
 382 199 l 1
 363 255 299 300 240 300 c 0
 181 300 117 255 98 199 c 0
EndSplineSet
Validated: 1
EndChar

StartChar: u0066
Encoding: 102 102 70
Width: 380
VWidth: 0
Flags: HW
LayerCount: 2
Fore
SplineSet
140 -51 m 1
 140 299 l 1
 40 299 l 1
 40 349 l 1
 140 349 l 1
 140 449 l 2
 140 504 185 549 240 549 c 0
 295 549 340 504 340 449 c 1
 290 449 l 1
 290 477 268 499 240 499 c 0
 212 499 190 477 190 449 c 2
 190 349 l 1
 340 349 l 1
 340 299 l 1
 190 299 l 1
 190 -51 l 1
 140 -51 l 1
EndSplineSet
Validated: 1
EndChar

StartChar: u0067
Encoding: 103 103 71
Width: 480
VWidth: 0
Flags: HW
LayerCount: 2
Fore
SplineSet
440 349 m 1
 440 -51 l 2
 440 -161 350 -251 240 -251 c 0
 130 -251 40 -161 40 -51 c 1
 90 -51 l 1
 90 -134 157 -201 240 -201 c 0
 323 -201 390 -134 390 -51 c 2
 390 17 l 1
 357 -20 290 -51 240 -51 c 0
 130 -51 40 39 40 149 c 0
 40 259 130 349 240 349 c 0
 290 349 357 318 390 281 c 1
 390 349 l 1
 440 349 l 1
240 -1 m 2
 241 -1 l 2
 324 -1 390 66 390 149 c 0
 390 232 323 299 240 299 c 0
 157 299 90 232 90 149 c 0
 90 66 157 -1 240 -1 c 2
EndSplineSet
Validated: 1
EndChar

StartChar: u0068
Encoding: 104 104 72
Width: 480
VWidth: 0
Flags: HW
LayerCount: 2
Fore
SplineSet
40 549 m 1
 90 549 l 1
 90 281 l 1
 123 318 190 349 240 349 c 0
 350 349 440 259 440 149 c 2
 440 -51 l 1
 390 -51 l 1
 390 149 l 2
 390 232 323 299 240 299 c 0
 157 299 90 232 90 149 c 2
 90 -51 l 1
 40 -51 l 1
 40 549 l 1
EndSplineSet
Validated: 1
EndChar

StartChar: u0069
Encoding: 105 105 73
Width: 130
VWidth: 0
Flags: HW
LayerCount: 2
Fore
SplineSet
40 349 m 1
 90 349 l 1
 90 -51 l 1
 40 -51 l 1
 40 349 l 1
65 412 m 2
 64 412 l 2
 44 412 27 429 27 449 c 0
 27 470 43 486 64 486 c 0
 85 486 102 470 102 449 c 0
 102 429 85 412 65 412 c 2
EndSplineSet
Validated: 1
EndChar

StartChar: u006a
Encoding: 106 106 74
Width: 280
VWidth: 0
Flags: HW
LayerCount: 2
Fore
SplineSet
40 -151 m 1
 90 -151 l 1
 90 -179 112 -201 140 -201 c 0
 168 -201 190 -179 190 -151 c 2
 190 349 l 1
 240 349 l 1
 240 -151 l 2
 240 -206 195 -251 140 -251 c 0
 85 -251 40 -206 40 -151 c 1
215 412 m 2
 214 412 l 2
 194 412 177 429 177 449 c 0
 177 470 193 486 214 486 c 0
 235 486 252 470 252 449 c 0
 252 429 235 412 215 412 c 2
EndSplineSet
Validated: 1
EndChar

StartChar: u006b
Encoding: 107 107 75
Width: 480
VWidth: 0
Flags: HW
LayerCount: 2
Fore
SplineSet
40 549 m 1
 90 549 l 1
 90 188 l 1
 375 349 l 1
 440 349 l 1
 122 149 l 1
 440 -51 l 1
 375 -51 l 1
 90 110 l 1
 90 -51 l 1
 40 -51 l 1
 40 549 l 1
EndSplineSet
Validated: 1
EndChar

StartChar: u006c
Encoding: 108 108 76
Width: 130
VWidth: 0
Flags: HW
LayerCount: 2
Fore
SplineSet
40 549 m 1
 90 549 l 1
 90 -51 l 1
 40 -51 l 1
 40 549 l 1
EndSplineSet
Validated: 1
EndChar

StartChar: u006d
Encoding: 109 109 77
Width: 830
VWidth: 0
Flags: HW
LayerCount: 2
Fore
SplineSet
40 349 m 1
 90 349 l 1
 90 281 l 1
 123 318 190 349 240 349 c 0
 305 349 383 303 415 246 c 1
 447 303 525 349 590 349 c 0
 700 349 790 259 790 149 c 2
 790 -51 l 1
 740 -51 l 1
 740 149 l 2
 740 232 673 299 590 299 c 0
 507 299 440 232 440 149 c 2
 440 -51 l 1
 390 -51 l 1
 390 149 l 2
 390 232 323 299 240 299 c 0
 157 299 90 232 90 149 c 2
 90 -51 l 1
 40 -51 l 1
 40 349 l 1
EndSplineSet
Validated: 1
EndChar

StartChar: u006e
Encoding: 110 110 78
Width: 480
VWidth: 0
Flags: HW
LayerCount: 2
Fore
SplineSet
40 349 m 1
 90 349 l 1
 90 281 l 1
 123 318 190 349 240 349 c 0
 350 349 440 259 440 149 c 2
 440 -51 l 1
 390 -51 l 1
 390 149 l 2
 390 232 323 299 240 299 c 0
 157 299 90 232 90 149 c 2
 90 -51 l 1
 40 -51 l 1
 40 349 l 1
EndSplineSet
Validated: 1
EndChar

StartChar: u006f
Encoding: 111 111 79
Width: 480
VWidth: 0
Flags: HW
LayerCount: 2
Fore
SplineSet
240 -51 m 2
 239 -51 l 2
 129 -51 40 39 40 149 c 0
 40 259 130 349 240 349 c 0
 350 349 440 259 440 149 c 0
 440 39 350 -51 240 -51 c 2
239 -1 m 2
 240 -1 l 2
 323 -1 390 66 390 149 c 0
 390 232 323 299 240 299 c 0
 157 299 90 232 90 149 c 0
 90 66 156 -1 239 -1 c 2
EndSplineSet
Validated: 1
EndChar

StartChar: u0070
Encoding: 112 112 80
Width: 480
VWidth: 0
Flags: HW
LayerCount: 2
Fore
SplineSet
40 349 m 1
 90 349 l 1
 90 281 l 1
 123 318 190 349 240 349 c 0
 350 349 440 259 440 149 c 0
 440 39 350 -51 240 -51 c 0
 190 -51 123 -20 90 17 c 1
 90 -251 l 1
 40 -251 l 1
 40 149 l 1
 40 349 l 1
240 -1 m 2
 323 -1 390 66 390 149 c 0
 390 232 323 299 240 299 c 0
 157 299 90 232 90 149 c 0
 90 66 156 -1 239 -1 c 2
 240 -1 l 2
EndSplineSet
Validated: 1
EndChar

StartChar: u0071
Encoding: 113 113 81
Width: 480
VWidth: 0
Flags: HW
LayerCount: 2
Fore
SplineSet
440 349 m 1
 440 -251 l 1
 390 -251 l 1
 390 17 l 1
 357 -20 290 -51 240 -51 c 0
 130 -51 40 39 40 149 c 0
 40 259 130 349 240 349 c 0
 290 349 357 318 390 281 c 1
 390 349 l 1
 440 349 l 1
240 -1 m 2
 241 -1 l 2
 324 -1 390 66 390 149 c 0
 390 232 323 299 240 299 c 0
 157 299 90 232 90 149 c 0
 90 66 157 -1 240 -1 c 2
EndSplineSet
Validated: 1
EndChar

StartChar: u0072
Encoding: 114 114 82
Width: 480
VWidth: 0
Flags: HW
LayerCount: 2
Fore
SplineSet
40 349 m 1
 90 349 l 1
 90 246 l 1
 153 303 310 349 440 349 c 1
 440 299 l 1
 247 299 90 232 90 149 c 2
 90 -51 l 1
 40 -51 l 1
 40 349 l 1
EndSplineSet
Validated: 1
EndChar

StartChar: u0073
Encoding: 115 115 83
Width: 480
VWidth: 0
Flags: HW
LayerCount: 2
Fore
SplineSet
440 236 m 1
 390 236 l 1
 390 270 323 299 240 299 c 0
 157 299 90 270 90 236 c 0
 90 202 157 174 240 174 c 0
 350 174 440 124 440 62 c 0
 440 0 350 -51 240 -51 c 0
 130 -51 40 0 40 62 c 1
 90 62 l 1
 90 28 157 -1 240 -1 c 0
 323 -1 390 28 390 62 c 0
 390 96 323 124 240 124 c 0
 130 124 40 174 40 236 c 0
 40 298 130 349 240 349 c 0
 350 349 440 298 440 236 c 1
EndSplineSet
Validated: 1
EndChar

StartChar: u0074
Encoding: 116 116 84
Width: 380
VWidth: 0
Flags: HW
LayerCount: 2
Fore
SplineSet
140 549 m 1
 190 549 l 1
 190 349 l 1
 340 349 l 1
 340 299 l 1
 190 299 l 1
 190 49 l 2
 190 21 212 -1 240 -1 c 0
 268 -1 290 21 290 49 c 1
 340 49 l 1
 340 -6 295 -51 240 -51 c 0
 185 -51 140 -6 140 49 c 2
 140 299 l 1
 40 299 l 1
 40 349 l 1
 140 349 l 1
 140 549 l 1
EndSplineSet
Validated: 1
EndChar

StartChar: u0075
Encoding: 117 117 85
Width: 480
VWidth: 0
Flags: HW
LayerCount: 2
Fore
SplineSet
440 -51 m 1
 390 -51 l 1
 390 17 l 1
 357 -20 290 -51 240 -51 c 0
 130 -51 40 39 40 149 c 2
 40 349 l 1
 90 349 l 1
 90 149 l 2
 90 66 157 -1 240 -1 c 0
 323 -1 390 66 390 149 c 2
 390 349 l 1
 440 349 l 1
 440 -51 l 1
EndSplineSet
Validated: 1
EndChar

StartChar: u0076
Encoding: 118 118 86
Width: 480
VWidth: 0
Flags: HW
LayerCount: 2
Fore
SplineSet
40 349 m 1
 96 349 l 1
 240 61 l 1
 384 349 l 1
 440 349 l 1
 240 -51 l 1
 40 349 l 1
EndSplineSet
Validated: 1
EndChar

StartChar: u0077
Encoding: 119 119 87
Width: 830
VWidth: 0
Flags: HW
LayerCount: 2
Fore
SplineSet
40 349 m 1
 96 349 l 1
 240 61 l 1
 384 349 l 1
 440 349 l 1
 584 61 l 1
 728 349 l 1
 784 349 l 1
 584 -51 l 1
 412 293 l 1
 240 -51 l 1
 40 349 l 1
EndSplineSet
Validated: 1
EndChar

StartChar: u0078
Encoding: 120 120 88
Width: 480
VWidth: 0
Flags: HW
LayerCount: 2
Fore
SplineSet
40 349 m 1
 106 349 l 1
 240 196 l 1
 374 349 l 1
 440 349 l 1
 273 149 l 1
 440 -51 l 1
 374 -51 l 1
 240 102 l 1
 106 -51 l 1
 40 -51 l 1
 207 149 l 1
 40 349 l 1
EndSplineSet
Validated: 1
EndChar

StartChar: u0079
Encoding: 121 121 89
Width: 480
VWidth: 0
Flags: HW
LayerCount: 2
Fore
SplineSet
40 349 m 1
 94 349 l 1
 240 11 l 1
 386 349 l 1
 440 349 l 1
 267 -51 l 1
 181 -251 l 1
 127 -251 l 1
 213 -51 l 1
 40 349 l 1
EndSplineSet
Validated: 1
EndChar

StartChar: u007a
Encoding: 122 122 90
Width: 480
VWidth: 0
Flags: HW
LayerCount: 2
Fore
SplineSet
40 349 m 1
 440 349 l 1
 440 299 l 1
 123 -1 l 1
 440 -1 l 1
 440 -51 l 1
 40 -51 l 1
 40 -1 l 1
 357 299 l 1
 40 299 l 1
 40 249 l 1
 40 349 l 1
EndSplineSet
Validated: 5
EndChar

StartChar: u007b
Encoding: 123 123 91
Width: 280
VWidth: 0
Flags: HW
LayerCount: 2
Fore
SplineSet
240 549 m 1
 240 499 l 1
 212 499 190 387 190 249 c 0
 190 217 173 173 152 149 c 1
 173 125 190 81 190 49 c 0
 190 -89 212 -201 240 -201 c 1
 240 -251 l 1
 185 -251 140 -117 140 49 c 0
 140 104 95 149 40 149 c 1
 95 149 140 194 140 249 c 0
 140 415 185 549 240 549 c 1
EndSplineSet
Validated: 1
EndChar

StartChar: u007c
Encoding: 124 124 92
Width: 130
VWidth: 0
Flags: HW
LayerCount: 2
Fore
SplineSet
40 549 m 1
 90 549 l 1
 90 -251 l 1
 40 -251 l 1
 40 549 l 1
EndSplineSet
Validated: 1
EndChar

StartChar: u007d
Encoding: 125 125 93
Width: 280
VWidth: 0
Flags: HW
LayerCount: 2
Fore
SplineSet
40 549 m 0
 95 549 140 415 140 249 c 0
 140 194 185 149 240 149 c 1
 185 149 140 104 140 49 c 0
 140 -117 95 -251 40 -251 c 1
 40 -201 l 1
 68 -201 90 -89 90 49 c 0
 90 81 107 125 128 149 c 1
 107 173 90 217 90 249 c 0
 90 387 68 499 40 499 c 1
 40 549 l 0
EndSplineSet
Validated: 1
EndChar

StartChar: u007e
Encoding: 126 126 94
Width: 480
VWidth: 0
Flags: HW
LayerCount: 2
Fore
SplineSet
40 149 m 1
 62 187 116 218 160 218 c 0
 192 218 236 200 258 178 c 0
 272 164 300 152 320 152 c 0
 348 152 383 172 397 196 c 1
 440 171 l 1
 418 133 364 102 320 102 c 0
 288 102 244 120 222 142 c 0
 208 156 180 168 160 168 c 0
 132 168 97 148 83 124 c 1
 40 149 l 1
EndSplineSet
Validated: 1
EndChar

StartChar: u00b0
Encoding: 176 176 95
Width: 180
VWidth: 0
Flags: HW
LayerCount: 2
Fore
SplineSet
90 449 m 2
 89 449 l 2
 62 449 40 472 40 499 c 0
 40 527 62 549 90 549 c 0
 118 549 140 527 140 499 c 0
 140 472 117 449 90 449 c 2
89 479 m 2
 90 479 l 2
 101 479 110 488 110 499 c 0
 110 510 101 519 90 519 c 0
 79 519 70 510 70 499 c 0
 70 488 78 479 89 479 c 2
EndSplineSet
Validated: 1
EndChar

StartChar: u00b6
Encoding: 182 182 96
Width: 480
VWidth: 0
Flags: HW
LayerCount: 2
Fore
SplineSet
240 549 m 2
 390 549 l 1
 390 -51 l 1
 340 -51 l 1
 340 499 l 1
 290 499 l 1
 290 -51 l 1
 240 -51 l 1
 240 149 l 1
 130 149 40 239 40 349 c 0
 40 459 130 549 240 549 c 2
EndSplineSet
Validated: 1
EndChar

StartChar: u00b7
Encoding: 183 183 97
Width: 200
VWidth: 0
Flags: HW
LayerCount: 2
Fore
SplineSet
100 89 m 2
 99 89 l 2
 66 89 40 116 40 149 c 0
 40 182 67 209 100 209 c 0
 133 209 160 182 160 149 c 0
 160 116 133 89 100 89 c 2
EndSplineSet
Validated: 1
EndChar

StartChar: u00d7
Encoding: 215 215 98
Width: 480
VWidth: 0
Flags: HW
LayerCount: 2
Fore
SplineSet
81 43 m 1
 205 167 l 1
 81 290 l 1
 116 326 l 1
 240 202 l 1
 364 326 l 1
 399 290 l 1
 275 167 l 1
 399 43 l 1
 364 8 l 1
 240 131 l 1
 116 8 l 1
 81 43 l 1
EndSplineSet
Validated: 1
EndChar

StartChar: u00f7
Encoding: 247 247 99
Width: 280
VWidth: 0
Flags: HW
LayerCount: 2
Fore
SplineSet
40 174 m 1
 240 174 l 1
 240 124 l 1
 40 124 l 1
 40 174 l 1
140 224 m 2
 139 224 l 2
 125 224 114 235 114 249 c 0
 114 263 126 274 140 274 c 0
 154 274 164 263 164 249 c 0
 164 235 154 224 140 224 c 2
140 24 m 2
 139 24 l 2
 125 24 114 35 114 49 c 0
 114 63 126 74 140 74 c 0
 154 74 164 63 164 49 c 0
 164 35 154 24 140 24 c 2
EndSplineSet
Validated: 1
EndChar

StartChar: u1000
Encoding: 4096 4096 100
Width: 830
VWidth: 0
GlyphClass: 2
Flags: HW
LayerCount: 2
Fore
SplineSet
415 246 m 1
 447 303 525 349 590 349 c 0
 700 349 790 259 790 149 c 0
 790 39 700 -51 590 -51 c 1
 590 -1 l 1
 673 -1 740 66 740 149 c 0
 740 232 673 299 590 299 c 0
 507 299 440 232 440 149 c 0
 440 79 389 -2 325 -32 c 1
 303 13 l 1
 351 35 390 96 390 149 c 0
 390 232 323 299 240 299 c 0
 157 299 90 232 90 149 c 0
 90 96 129 35 177 13 c 1
 155 -32 l 1
 91 -2 40 79 40 149 c 0
 40 259 130 349 240 349 c 0
 305 349 383 303 415 246 c 1
EndSplineSet
Validated: 1
EndChar

StartChar: u1001
Encoding: 4097 4097 101
Width: 480
VWidth: 0
GlyphClass: 2
Flags: HW
LayerCount: 2
Fore
SplineSet
59 234 m 1
 89 298 170 349 240 349 c 0
 350 349 440 259 440 149 c 0
 440 39 350 -51 240 -51 c 0
 176 -51 99 -6 67 49 c 1
 99 82 163 109 209 109 c 0
 255 109 320 82 352 49 c 1
 373 73 390 117 390 149 c 0
 390 232 323 299 240 299 c 0
 187 299 126 260 104 212 c 1
 59 234 l 1
128 49 m 1
 153 21 203 -1 240 -1 c 0
 267 -1 307 12 329 28 c 1
 304 56 254 78 217 78 c 0
 190 78 150 65 128 49 c 1
EndSplineSet
Validated: 1
EndChar

StartChar: u1002
Encoding: 4098 4098 102
Width: 480
VWidth: 0
GlyphClass: 2
Flags: HW
LayerCount: 2
Fore
SplineSet
155 -32 m 1
 91 -2 40 79 40 149 c 0
 40 259 130 349 240 349 c 0
 350 349 440 259 440 149 c 0
 440 79 389 -2 325 -32 c 1
 303 13 l 1
 351 35 390 96 390 149 c 0
 390 232 323 299 240 299 c 0
 157 299 90 232 90 149 c 0
 90 96 129 35 177 13 c 1
 155 -32 l 1
EndSplineSet
Validated: 1
EndChar

StartChar: u1003
Encoding: 4099 4099 103
Width: 830
VWidth: 0
GlyphClass: 2
Flags: HW
LayerCount: 2
Fore
SplineSet
415 52 m 1
 383 -5 305 -51 240 -51 c 0
 130 -51 40 39 40 149 c 0
 40 189 61 247 87 278 c 0
 89 280 90 283 90 286 c 0
 90 293 84 299 77 299 c 0
 74 299 69 297 67 294 c 1
 28 326 l 1
 38 338 61 349 77 349 c 0
 112 349 140 321 140 286 c 0
 140 273 133 255 125 245 c 0
 106 222 90 179 90 149 c 0
 90 66 157 -1 240 -1 c 0
 323 -1 390 66 390 149 c 0
 390 202 351 263 303 285 c 1
 325 330 l 1
 389 300 440 219 440 149 c 0
 440 66 507 -1 590 -1 c 0
 673 -1 740 66 740 149 c 0
 740 232 673 299 590 299 c 1
 590 349 l 1
 700 349 790 259 790 149 c 0
 790 39 700 -51 590 -51 c 0
 525 -51 447 -5 415 52 c 1
EndSplineSet
Validated: 1
EndChar

StartChar: u1004
Encoding: 4100 4100 104
Width: 480
VWidth: 0
GlyphClass: 2
Flags: HW
LayerCount: 2
Fore
SplineSet
421 234 m 1
 376 212 l 1
 354 260 293 299 240 299 c 0
 157 299 90 232 90 149 c 0
 90 66 157 -1 240 -1 c 0
 293 -1 354 38 376 86 c 1
 421 64 l 1
 391 0 310 -51 240 -51 c 0
 130 -51 40 39 40 149 c 0
 40 259 130 349 240 349 c 0
 310 349 391 298 421 234 c 1
EndSplineSet
Validated: 1
EndChar

StartChar: u1005
Encoding: 4101 4101 105
Width: 480
VWidth: 0
GlyphClass: 2
Flags: HW
LayerCount: 2
Fore
SplineSet
240 -51 m 2
 239 -51 l 2
 129 -51 40 39 40 149 c 0
 40 259 130 349 240 349 c 0
 350 349 440 259 440 149 c 0
 440 39 350 -51 240 -51 c 2
182 287 m 1
 213 255 238 193 238 149 c 0
 238 105 213 43 182 11 c 1
 197 5 223 -1 240 -1 c 0
 323 -1 390 66 390 149 c 0
 390 232 323 299 240 299 c 0
 223 299 197 293 182 287 c 1
140 261 m 1
 112 236 90 186 90 149 c 0
 90 112 112 62 140 37 c 1
 168 62 190 112 190 149 c 0
 190 186 168 236 140 261 c 1
EndSplineSet
Validated: 1
EndChar

StartChar: u1006
Encoding: 4102 4102 106
Width: 830
VWidth: 0
GlyphClass: 2
Flags: HW
LayerCount: 2
Fore
SplineSet
59 234 m 1
 89 298 170 349 240 349 c 0
 305 349 383 303 415 246 c 1
 447 303 525 349 590 349 c 0
 700 349 790 259 790 149 c 0
 790 39 700 -51 590 -51 c 0
 525 -51 447 -5 415 52 c 1
 383 -5 305 -51 240 -51 c 0
 176 -51 99 -6 67 49 c 1
 99 82 163 109 209 109 c 0
 255 109 320 82 352 49 c 1
 373 73 390 117 390 149 c 0
 390 232 323 299 240 299 c 0
 187 299 126 260 104 212 c 1
 59 234 l 1
128 49 m 1
 153 21 203 -1 240 -1 c 0
 267 -1 307 12 329 28 c 1
 304 56 254 78 217 78 c 0
 190 78 150 65 128 49 c 1
440 149 m 2
 440 66 507 0 590 -0 c 0
 673 0 740 67 740 150 c 0
 740 233 673 300 590 300 c 0
 507 300 440 233 440 150 c 2
 440 149 l 2
EndSplineSet
Validated: 1
EndChar

StartChar: u1007
Encoding: 4103 4103 107
Width: 480
VWidth: 0
GlyphClass: 2
Flags: HW
LayerCount: 2
Fore
SplineSet
381 290 m 1
 384 287 l 1
 409 266 429 224 429 191 c 0
 429 123 374 67 306 66 c 0
 305 66 l 0
 279 66 243 80 224 96 c 0
 207 110 192 140 192 163 c 0
 192 211 232 250 280 250 c 0
 298 250 323 241 336 230 c 1
 449 96 l 1
 410 64 l 1
 298 198 l 1
 292 203 282 206 274 206 c 0
 253 206 236 190 236 169 c 0
 236 159 243 146 250 140 c 0
 262 130 283 123 298 123 c 0
 299 123 l 0
 340 124 373 157 373 198 c 0
 373 218 361 243 346 255 c 1
 322 279 274 299 240 299 c 0
 157 299 90 232 90 149 c 0
 90 66 157 -1 240 -1 c 0
 274 -1 322 19 346 43 c 1
 381 8 l 1
 349 -24 286 -51 240 -51 c 0
 130 -51 40 39 40 149 c 0
 40 259 130 349 240 349 c 0
 286 349 349 322 381 290 c 1
EndSplineSet
Validated: 5
EndChar

StartChar: u1008
Encoding: 4104 4104 108
Width: 620
VWidth: 0
GlyphClass: 2
Flags: HW
LayerCount: 2
Fore
SplineSet
240 -51 m 2
 239 -51 l 2
 129 -51 40 39 40 149 c 0
 40 259 130 349 240 349 c 0
 350 349 440 259 440 149 c 0
 440 39 350 -51 240 -51 c 2
182 287 m 1
 213 255 238 193 238 149 c 0
 238 105 213 43 182 11 c 1
 197 5 223 -1 240 -1 c 0
 323 -1 390 66 390 149 c 0
 390 232 323 299 240 299 c 0
 223 299 197 293 182 287 c 1
140 261 m 1
 112 236 90 186 90 149 c 0
 90 112 112 62 140 37 c 1
 168 62 190 112 190 149 c 0
 190 186 168 236 140 261 c 1
263 -10 m 1
 313 -10 l 1
 313 -189 l 2
 313 -197 319 -207 326 -211 c 2
 388 -247 l 1
 426 -269 l 2
 429 -271 434 -272 438 -272 c 0
 452 -272 463 -261 463 -247 c 2
 463 349 l 1
 513 349 l 1
 513 -353 l 2
 513 -367 502 -378 488 -378 c 0
 484 -378 478 -375 474 -373 c 2
 388 -314 l 1
 274 -233 l 2
 268 -229 263 -220 263 -213 c 2
 263 -10 l 1
EndSplineSet
Validated: 5
EndChar

StartChar: u1009
Encoding: 4105 4105 109
Width: 830
VWidth: 0
GlyphClass: 2
Flags: HW
LayerCount: 2
Fore
SplineSet
59 234 m 1
 89 298 170 349 240 349 c 0
 350 349 440 259 440 149 c 0
 440 39 350 -51 240 -51 c 0
 200 -51 142 -30 111 -4 c 0
 109 -2 106 -1 103 -1 c 0
 96 -1 90 -7 90 -14 c 2
 90 -326 l 2
 90 -340 101 -351 115 -351 c 2
 340 -351 l 1
 715 -351 l 2
 729 -351 740 -340 740 -326 c 1
 740 -326 l 1
 790 -326 l 1
 790 -326 l 1
 790 -367 756 -401 715 -401 c 2
 440 -401 l 1
 115 -401 l 2
 74 -401 40 -367 40 -326 c 2
 40 -14 l 2
 40 21 68 49 103 49 c 0
 116 49 134 42 144 34 c 0
 167 15 210 -1 240 -1 c 0
 323 -1 390 66 390 149 c 0
 390 232 323 299 240 299 c 0
 187 299 126 260 104 212 c 1
 59 234 l 1
EndSplineSet
Validated: 5
EndChar

StartChar: u100a
Encoding: 4106 4106 110
Width: 830
VWidth: 0
GlyphClass: 2
Flags: HW
LayerCount: 2
Fore
SplineSet
415 52 m 1
 383 -5 305 -51 240 -51 c 0
 200 -51 142 -30 111 -4 c 0
 109 -2 106 -1 103 -1 c 0
 96 -1 90 -7 90 -14 c 2
 90 -326 l 2
 90 -340 101 -351 115 -351 c 2
 340 -351 l 1
 715 -351 l 2
 729 -351 740 -340 740 -326 c 1
 740 -326 l 1
 790 -326 l 1
 790 -326 l 1
 790 -367 756 -401 715 -401 c 2
 440 -401 l 1
 115 -401 l 2
 74 -401 40 -367 40 -326 c 2
 40 -14 l 2
 40 21 68 49 103 49 c 0
 116 49 134 42 144 34 c 0
 167 15 210 -1 240 -1 c 0
 323 -1 390 66 390 149 c 0
 390 232 323 299 240 299 c 0
 187 299 126 260 104 212 c 1
 59 234 l 1
 89 298 170 349 240 349 c 0
 350 349 440 259 440 149 c 0
 440 66 507 -1 590 -1 c 0
 673 -1 740 66 740 149 c 0
 740 232 673 299 590 299 c 1
 590 349 l 1
 700 349 790 259 790 149 c 0
 790 39 700 -51 590 -51 c 0
 525 -51 447 -5 415 52 c 1
EndSplineSet
Validated: 5
AlternateSubs2: "mymralt" u100a_alt
EndChar

StartChar: u100b
Encoding: 4107 4107 111
Width: 480
VWidth: 0
GlyphClass: 2
Flags: HW
LayerCount: 2
Fore
SplineSet
421 234 m 1
 376 212 l 1
 354 260 293 299 240 299 c 0
 157 299 90 232 90 149 c 0
 90 66 157 -1 240 -1 c 0
 270 -1 313 15 336 34 c 0
 346 42 364 49 377 49 c 0
 412 49 440 21 440 -14 c 0
 440 -30 429 -53 417 -63 c 2
 369 -104 l 2
 338 -130 280 -150 240 -150 c 0
 200 -150 142 -130 111 -104 c 0
 109 -102 106 -101 103 -101 c 0
 96 -101 90 -107 90 -114 c 0
 90 -117 92 -122 95 -124 c 2
 144 -165 l 2
 167 -184 210 -200 240 -200 c 0
 270 -200 313 -184 336 -165 c 0
 346 -157 364 -150 377 -150 c 0
 412 -150 440 -178 440 -213 c 2
 440 -263 l 2
 440 -277 451 -288 465 -288 c 1
 465 -288 l 1
 465 -338 l 1
 465 -338 l 1
 424 -338 390 -304 390 -263 c 2
 390 -213 l 2
 390 -206 384 -200 377 -200 c 0
 374 -200 371 -201 369 -203 c 0
 338 -229 280 -250 240 -250 c 0
 200 -250 142 -229 111 -203 c 2
 63 -162 l 2
 51 -152 40 -130 40 -114 c 0
 40 -79 68 -51 103 -51 c 0
 116 -51 134 -57 144 -65 c 0
 167 -84 210 -100 240 -100 c 0
 270 -100 313 -84 336 -65 c 2
 385 -24 l 2
 388 -22 390 -17 390 -14 c 0
 390 -7 384 -1 377 -1 c 0
 374 -1 371 -2 369 -4 c 0
 338 -30 280 -51 240 -51 c 0
 130 -51 40 39 40 149 c 0
 40 259 130 349 240 349 c 0
 310 349 391 298 421 234 c 1
EndSplineSet
Validated: 5
EndChar

StartChar: u100c
Encoding: 4108 4108 112
Width: 480
VWidth: 0
GlyphClass: 2
Flags: HW
LayerCount: 2
Fore
SplineSet
421 234 m 1
 376 212 l 1
 354 260 293 299 240 299 c 0
 157 299 90 232 90 149 c 0
 90 66 157 -1 240 -1 c 0
 270 -1 313 15 336 34 c 0
 346 42 364 49 377 49 c 0
 412 49 440 21 440 -14 c 2
 440 -326 l 2
 440 -367 406 -401 365 -401 c 2
 240 -401 l 1
 115 -401 l 2
 74 -401 40 -367 40 -326 c 1
 40 -326 l 1
 90 -326 l 1
 90 -326 l 1
 90 -340 101 -351 115 -351 c 2
 240 -351 l 1
 365 -351 l 2
 379 -351 390 -340 390 -326 c 2
 390 -14 l 2
 390 -7 384 -1 377 -1 c 0
 374 -1 371 -2 369 -4 c 0
 338 -30 280 -51 240 -51 c 0
 130 -51 40 39 40 149 c 0
 40 259 130 349 240 349 c 0
 310 349 391 298 421 234 c 1
EndSplineSet
Validated: 5
EndChar

StartChar: u100d
Encoding: 4109 4109 113
Width: 480
VWidth: 0
GlyphClass: 2
Flags: HW
LayerCount: 2
Fore
SplineSet
59 234 m 0
 89 298 170 349 240 349 c 0
 350 349 440 259 440 149 c 0
 440 39 350 -51 240 -51 c 0
 200 -51 142 -30 111 -4 c 0
 109 -2 106 -1 103 -1 c 0
 96 -1 90 -7 90 -14 c 0
 90 -17 92 -22 95 -24 c 2
 144 -65 l 2
 167 -84 210 -100 240 -100 c 0
 270 -100 313 -84 336 -65 c 0
 346 -57 364 -51 377 -51 c 0
 412 -51 440 -79 440 -114 c 2
 440 -364 l 2
 440 -378 451 -389 465 -389 c 1
 465 -389 l 1
 465 -439 l 1
 465 -439 l 1
 424 -439 390 -405 390 -364 c 2
 390 -114 l 2
 390 -107 384 -101 377 -101 c 0
 374 -101 371 -102 369 -104 c 0
 338 -130 280 -150 240 -150 c 0
 200 -150 142 -130 111 -104 c 2
 63 -63 l 2
 51 -53 40 -30 40 -14 c 0
 40 21 68 49 103 49 c 0
 116 49 134 42 144 34 c 0
 167 15 210 -1 240 -1 c 0
 323 -1 390 66 390 149 c 0
 390 232 323 299 240 299 c 0
 187 299 126 260 104 212 c 1
 59 234 l 0
EndSplineSet
Validated: 5
EndChar

StartChar: u100e
Encoding: 4110 4110 114
Width: 480
VWidth: 0
GlyphClass: 2
Flags: HW
LayerCount: 2
Fore
SplineSet
325 330 m 1
 389 300 440 219 440 149 c 0
 440 39 350 -51 240 -51 c 0
 130 -51 40 39 40 149 c 0
 40 189 61 247 87 278 c 0
 89 280 90 283 90 286 c 0
 90 293 84 299 77 299 c 0
 74 299 69 297 67 294 c 1
 28 326 l 1
 38 338 61 349 77 349 c 0
 112 349 140 321 140 286 c 0
 140 273 133 255 125 245 c 0
 106 222 90 179 90 149 c 0
 90 66 157 -1 240 -1 c 0
 323 -1 390 66 390 149 c 0
 390 202 351 263 303 285 c 1
 325 330 l 1
EndSplineSet
Validated: 1
EndChar

StartChar: u100f
Encoding: 4111 4111 115
Width: 980
VWidth: 0
GlyphClass: 2
Flags: HW
LayerCount: 2
Fore
SplineSet
573 260 m 1
 606 309 681 349 740 349 c 0
 850 349 940 259 940 149 c 0
 940 39 850 -51 740 -51 c 1
 740 -1 l 1
 823 -1 890 66 890 149 c 0
 890 232 823 299 740 299 c 0
 657 299 590 232 590 149 c 0
 590 39 545 -51 490 -51 c 0
 435 -51 390 39 390 149 c 0
 390 232 323 299 240 299 c 0
 157 299 90 232 90 149 c 0
 90 66 157 -1 240 -1 c 1
 240 -51 l 1
 130 -51 40 39 40 149 c 0
 40 259 130 349 240 349 c 0
 299 349 374 309 407 260 c 1
 423 309 460 349 490 349 c 0
 520 349 557 309 573 260 c 1
490 299 m 2
 463 298 440 231 440 149 c 0
 440 66 462 -1 490 -1 c 0
 518 -1 540 66 540 149 c 0
 540 231 518 298 491 299 c 2
 490 299 l 2
EndSplineSet
Validated: 1
EndChar

StartChar: u1010
Encoding: 4112 4112 116
Width: 830
VWidth: 0
GlyphClass: 2
Flags: HW
LayerCount: 2
Fore
SplineSet
415 246 m 1
 447 303 525 349 590 349 c 0
 700 349 790 259 790 149 c 0
 790 39 700 -51 590 -51 c 1
 590 -1 l 1
 673 -1 740 66 740 149 c 0
 740 232 673 299 590 299 c 0
 507 299 440 232 440 149 c 0
 440 39 350 -51 240 -51 c 0
 130 -51 40 39 40 149 c 0
 40 259 130 349 240 349 c 0
 305 349 383 303 415 246 c 1
390 149 m 2
 390 232 323 298 240 298 c 0
 157 298 90 231 90 148 c 0
 90 65 157 -2 240 -2 c 0
 323 -2 390 65 390 148 c 2
 390 149 l 2
440 149 m 0
EndSplineSet
Validated: 1
EndChar

StartChar: u1011
Encoding: 4113 4113 117
Width: 830
VWidth: 0
GlyphClass: 2
Flags: HW
LayerCount: 2
Fore
SplineSet
415 246 m 1
 447 303 525 349 590 349 c 0
 700 349 790 259 790 149 c 0
 790 39 700 -51 590 -51 c 0
 525 -51 447 -5 415 52 c 1
 383 -5 305 -51 240 -51 c 0
 130 -51 40 39 40 149 c 0
 40 259 130 349 240 349 c 0
 305 349 383 303 415 246 c 1
390 149 m 2
 390 232 323 298 240 298 c 0
 157 298 90 231 90 148 c 0
 90 65 157 -2 240 -2 c 0
 323 -2 390 65 390 148 c 2
 390 149 l 2
440 149 m 2
 440 66 507 0 590 -0 c 0
 673 0 740 67 740 150 c 0
 740 233 673 300 590 300 c 0
 507 300 440 233 440 150 c 2
 440 149 l 2
EndSplineSet
Validated: 1
EndChar

StartChar: u1012
Encoding: 4114 4114 118
Width: 480
VWidth: 0
GlyphClass: 2
Flags: HW
LayerCount: 2
Fore
SplineSet
40 236 m 1
 40 298 130 349 240 349 c 0
 350 349 440 298 440 236 c 0
 440 206 407 168 366 149 c 1
 407 130 440 92 440 62 c 0
 440 0 350 -51 240 -51 c 0
 130 -51 40 0 40 62 c 1
 90 62 l 1
 90 28 157 -1 240 -1 c 0
 323 -1 390 28 390 62 c 0
 390 96 323 124 240 124 c 1
 240 174 l 1
 323 174 390 202 390 236 c 0
 390 270 323 299 240 299 c 0
 157 299 90 270 90 236 c 1
 40 236 l 1
EndSplineSet
Validated: 1
EndChar

StartChar: u1013
Encoding: 4115 4115 119
Width: 480
VWidth: 0
GlyphClass: 2
Flags: HW
LayerCount: 2
Fore
SplineSet
240 -51 m 2
 239 -51 l 2
 129 -51 40 39 40 149 c 0
 40 259 130 349 240 349 c 0
 350 349 440 259 440 149 c 0
 440 39 350 -51 240 -51 c 2
102 91 m 1
 134 122 196 147 240 147 c 0
 284 147 346 122 378 91 c 1
 384 106 390 132 390 149 c 0
 390 232 323 299 240 299 c 0
 157 299 90 232 90 149 c 0
 90 132 96 106 102 91 c 1
128 49 m 1
 153 21 203 -1 240 -1 c 0
 277 -1 327 21 352 49 c 1
 327 77 277 99 240 99 c 0
 203 99 153 77 128 49 c 1
EndSplineSet
Validated: 1
EndChar

StartChar: u1014
Encoding: 4116 4116 120
Width: 480
VWidth: 0
GlyphClass: 2
Flags: HW
LayerCount: 2
Fore
SplineSet
328 262 m 1
 278 262 l 1
 278 283 261 299 240 299 c 0
 219 299 202 283 202 262 c 0
 202 241 219 224 240 224 c 0
 350 224 440 152 440 62 c 0
 440 0 350 -51 240 -51 c 0
 130 -51 40 0 40 62 c 0
 40 124 90 174 152 174 c 0
 214 174 265 124 265 62 c 2
 265 -401 l 1
 215 -401 l 1
 215 62 l 2
 215 96 186 124 152 124 c 0
 118 124 90 96 90 62 c 0
 90 28 157 -1 240 -1 c 0
 323 -1 390 28 390 62 c 0
 390 124 323 174 240 174 c 0
 192 174 152 214 152 262 c 0
 152 310 192 349 240 349 c 0
 288 349 328 310 328 262 c 1
EndSplineSet
Validated: 5
AlternateSubs2: "mymralt" u1014_alt
EndChar

StartChar: u1015
Encoding: 4117 4117 121
Width: 480
VWidth: 0
GlyphClass: 2
Flags: HW
LayerCount: 2
Fore
SplineSet
325 330 m 1
 389 300 440 219 440 149 c 0
 440 39 350 -51 240 -51 c 0
 130 -51 40 39 40 149 c 0
 40 219 91 300 155 330 c 1
 177 285 l 1
 129 263 90 202 90 149 c 0
 90 66 157 -1 240 -1 c 0
 323 -1 390 66 390 149 c 0
 390 202 351 263 303 285 c 1
 325 330 l 1
EndSplineSet
Validated: 1
EndChar

StartChar: u1016
Encoding: 4118 4118 122
Width: 480
VWidth: 0
GlyphClass: 2
Flags: HW
LayerCount: 2
Fore
SplineSet
155 330 m 1
 177 285 l 1
 129 263 90 202 90 149 c 0
 90 66 157 -1 240 -1 c 0
 272 -1 316 16 340 37 c 1
 307 69 280 134 280 180 c 0
 280 226 307 290 340 322 c 1
 395 290 440 213 440 149 c 0
 440 39 350 -51 240 -51 c 0
 130 -51 40 39 40 149 c 0
 40 219 91 300 155 330 c 1
340 261 m 1
 324 239 311 199 311 172 c 0
 311 135 333 85 361 60 c 1
 377 82 390 122 390 149 c 0
 390 186 368 236 340 261 c 1
EndSplineSet
Validated: 1
EndChar

StartChar: u1017
Encoding: 4119 4119 123
Width: 480
VWidth: 0
GlyphClass: 2
Flags: HW
LayerCount: 2
Fore
SplineSet
360 309 m 1
 404 276 440 204 440 149 c 0
 440 39 350 -51 240 -51 c 0
 130 -51 40 39 40 149 c 0
 40 204 76 276 120 309 c 1
 145 276 199 249 240 249 c 0
 281 249 335 276 360 309 c 1
120 239 m 1
 103 217 90 177 90 149 c 0
 90 66 157 -1 240 -1 c 0
 323 -1 390 66 390 149 c 0
 390 177 377 217 360 239 c 1
 331 217 277 199 240 199 c 0
 203 199 149 217 120 239 c 1
EndSplineSet
Validated: 1
EndChar

StartChar: u1018
Encoding: 4120 4120 124
Width: 830
VWidth: 0
GlyphClass: 2
Flags: HW
LayerCount: 2
Fore
SplineSet
415 246 m 1
 447 303 525 349 590 349 c 0
 700 349 790 259 790 149 c 0
 790 39 700 -51 590 -51 c 1
 590 -1 l 1
 673 -1 740 66 740 149 c 0
 740 232 673 299 590 299 c 0
 507 299 440 232 440 149 c 0
 440 39 350 -51 240 -51 c 0
 170 -51 89 0 59 64 c 1
 104 86 l 1
 126 38 187 -1 240 -1 c 0
 323 -1 390 66 390 149 c 0
 390 232 323 299 240 299 c 0
 187 299 126 260 104 212 c 1
 59 234 l 1
 89 298 170 349 240 349 c 0
 305 349 383 303 415 246 c 1
EndSplineSet
Validated: 1
EndChar

StartChar: u1019
Encoding: 4121 4121 125
Width: 480
VWidth: 0
GlyphClass: 2
Flags: HW
LayerCount: 2
Fore
SplineSet
325 330 m 1
 389 300 440 219 440 149 c 0
 440 39 350 -51 240 -51 c 0
 130 -51 40 39 40 149 c 0
 40 219 91 300 155 330 c 1
 177 285 l 1
 129 263 90 202 90 149 c 0
 90 132 96 106 102 91 c 1
 134 122 196 147 240 147 c 0
 284 147 346 122 378 91 c 1
 384 106 390 132 390 149 c 0
 390 202 351 263 303 285 c 1
 325 330 l 1
352 49 m 1
 327 77 277 99 240 99 c 0
 203 99 153 77 128 49 c 1
 153 21 203 -1 240 -1 c 0
 277 -1 327 21 352 49 c 1
EndSplineSet
Validated: 1
EndChar

StartChar: u101a
Encoding: 4122 4122 126
Width: 830
VWidth: 0
GlyphClass: 2
Flags: HW
LayerCount: 2
Fore
SplineSet
415 52 m 1
 383 -5 305 -51 240 -51 c 0
 130 -51 40 39 40 149 c 0
 40 219 91 300 155 330 c 1
 177 285 l 1
 129 263 90 202 90 149 c 0
 90 66 157 -1 240 -1 c 0
 323 -1 390 66 390 149 c 0
 390 202 351 263 303 285 c 1
 325 330 l 1
 389 300 440 219 440 149 c 0
 440 66 507 -1 590 -1 c 0
 673 -1 740 66 740 149 c 0
 740 232 673 299 590 299 c 1
 590 349 l 1
 700 349 790 259 790 149 c 0
 790 39 700 -51 590 -51 c 0
 525 -51 447 -5 415 52 c 1
EndSplineSet
Validated: 1
EndChar

StartChar: u101b
Encoding: 4123 4123 127
Width: 480
VWidth: 0
GlyphClass: 2
Flags: HW
LayerCount: 2
Fore
SplineSet
240 -51 m 1
 130 -51 40 39 40 149 c 0
 40 259 130 349 240 349 c 0
 350 349 440 259 440 149 c 2
 440 -326 l 2
 440 -340 451 -351 465 -351 c 1
 465 -351 l 1
 465 -401 l 1
 465 -401 l 1
 424 -401 390 -367 390 -326 c 2
 390 149 l 1
 389 231 322 297 240 297 c 0
 157 297 90 230 90 147 c 0
 90 93 131 31 180 9 c 1
 167 40 131 76 100 89 c 1
 40 149 l 1
 150 149 240 59 240 -51 c 1
EndSplineSet
Validated: 5
AlternateSubs2: "mymralt" u101b_alt
EndChar

StartChar: u101c
Encoding: 4124 4124 128
Width: 830
VWidth: 0
GlyphClass: 2
Flags: HW
LayerCount: 2
Fore
SplineSet
240 -51 m 1
 130 -51 40 39 40 149 c 0
 40 259 130 349 240 349 c 0
 350 349 440 259 440 149 c 0
 440 66 507 -1 590 -1 c 0
 673 -1 740 66 740 149 c 0
 740 232 673 299 590 299 c 1
 590 349 l 1
 700 349 790 259 790 149 c 0
 790 39 700 -51 590 -51 c 0
 480 -51 390 39 390 149 c 0
 390 232 323 299 240 299 c 0
 157 299 90 232 90 149 c 0
 90 66 157 -1 240 -1 c 1
 240 -51 l 1
EndSplineSet
Validated: 1
EndChar

StartChar: u101d
Encoding: 4125 4125 129
Width: 480
VWidth: 0
GlyphClass: 2
Flags: HW
LayerCount: 2
Fore
SplineSet
240 -51 m 2
 239 -51 l 2
 129 -51 40 39 40 149 c 0
 40 259 130 349 240 349 c 0
 350 349 440 259 440 149 c 0
 440 39 350 -51 240 -51 c 2
239 -1 m 2
 240 -1 l 2
 323 -1 390 66 390 149 c 0
 390 232 323 299 240 299 c 0
 157 299 90 232 90 149 c 0
 90 66 156 -1 239 -1 c 2
EndSplineSet
Validated: 1
EndChar

StartChar: u101e
Encoding: 4126 4126 130
Width: 830
VWidth: 0
GlyphClass: 2
Flags: HW
LayerCount: 2
Fore
SplineSet
415 52 m 1
 383 -5 305 -51 240 -51 c 0
 170 -51 89 0 59 64 c 1
 104 86 l 1
 126 38 187 -1 240 -1 c 0
 323 -1 390 66 390 149 c 0
 390 232 323 299 240 299 c 0
 187 299 126 260 104 212 c 1
 59 234 l 1
 89 298 170 349 240 349 c 0
 350 349 440 259 440 149 c 0
 440 66 507 -1 590 -1 c 0
 673 -1 740 66 740 149 c 0
 740 232 673 299 590 299 c 1
 590 349 l 1
 700 349 790 259 790 149 c 0
 790 39 700 -51 590 -51 c 0
 525 -51 447 -5 415 52 c 1
EndSplineSet
Validated: 1
EndChar

StartChar: u101f
Encoding: 4127 4127 131
Width: 830
VWidth: 0
GlyphClass: 2
Flags: HW
LayerCount: 2
Fore
SplineSet
415 246 m 1
 429 221 440 178 440 149 c 0
 440 39 350 -51 240 -51 c 0
 130 -51 40 39 40 149 c 0
 40 219 91 300 155 330 c 1
 177 285 l 1
 129 263 90 202 90 149 c 0
 90 66 157 -1 240 -1 c 0
 323 -1 390 66 390 149 c 0
 390 202 351 263 303 285 c 1
 325 330 l 1
 389 300 440 219 440 149 c 1
 440 232 507 299 590 299 c 0
 673 299 740 232 740 149 c 0
 740 66 673 -1 590 -1 c 1
 590 -51 l 1
 700 -51 790 39 790 149 c 0
 790 259 700 349 590 349 c 0
 525 349 447 303 415 246 c 1
EndSplineSet
Validated: 5
EndChar

StartChar: u1020
Encoding: 4128 4128 132
Width: 480
VWidth: 0
GlyphClass: 2
Flags: HW
LayerCount: 2
Fore
SplineSet
421 234 m 1
 376 212 l 1
 354 260 293 299 240 299 c 0
 157 299 90 232 90 149 c 0
 90 66 157 -1 240 -1 c 0
 270 -1 313 15 336 34 c 0
 346 42 364 49 377 49 c 0
 412 49 440 21 440 -14 c 0
 440 -30 429 -53 417 -63 c 2
 369 -104 l 2
 338 -130 280 -150 240 -150 c 0
 200 -150 142 -130 111 -104 c 0
 109 -102 106 -101 103 -101 c 0
 96 -101 90 -107 90 -114 c 2
 90 -339 l 2
 90 -353 101 -364 115 -364 c 2
 240 -364 l 1
 365 -364 l 2
 379 -364 390 -353 390 -339 c 1
 390 -339 l 1
 440 -339 l 1
 440 -339 l 1
 440 -380 406 -414 365 -414 c 2
 240 -414 l 1
 115 -414 l 2
 74 -414 40 -380 40 -339 c 2
 40 -114 l 2
 40 -79 68 -51 103 -51 c 0
 116 -51 134 -57 144 -65 c 0
 167 -84 210 -100 240 -100 c 0
 270 -100 313 -84 336 -65 c 2
 385 -24 l 2
 388 -22 390 -17 390 -14 c 0
 390 -7 384 -1 377 -1 c 0
 374 -1 371 -2 369 -4 c 0
 338 -30 280 -51 240 -51 c 0
 130 -51 40 39 40 149 c 0
 40 259 130 349 240 349 c 0
 310 349 391 298 421 234 c 1
EndSplineSet
Validated: 5
EndChar

StartChar: u1021
Encoding: 4129 4129 133
Width: 830
VWidth: 0
GlyphClass: 2
Flags: HW
LayerCount: 2
Fore
SplineSet
40 236 m 1
 40 298 130 349 240 349 c 0
 350 349 440 298 440 236 c 0
 440 206 407 168 366 149 c 1
 407 130 440 92 440 62 c 0
 440 0 350 -51 240 -51 c 0
 130 -51 40 0 40 62 c 1
 90 62 l 1
 90 28 157 -1 240 -1 c 0
 323 -1 390 28 390 62 c 0
 390 96 323 124 240 124 c 1
 240 174 l 1
 323 174 390 202 390 236 c 0
 390 270 323 299 240 299 c 0
 157 299 90 270 90 236 c 1
 40 236 l 1
390 236 m 1
 390 298 480 349 590 349 c 0
 700 349 790 259 790 149 c 0
 790 39 700 -51 590 -51 c 1
 590 59 680 149 790 149 c 1
 730 89 l 1
 699 76 663 40 650 9 c 1
 703 30 746 92 746 149 c 0
 746 232 679 299 596 299 c 0
 594 299 592 299 590 299 c 0
 507 299 440 270 440 236 c 1
 390 236 l 1
EndSplineSet
Validated: 5
EndChar

StartChar: u1023
Encoding: 4131 4131 134
Width: 830
VWidth: 0
Flags: HW
LayerCount: 2
Fore
SplineSet
415 246 m 1
 447 303 525 349 590 349 c 0
 700 349 790 259 790 149 c 0
 790 39 700 -51 590 -51 c 1
 590 -1 l 1
 673 -1 740 66 740 149 c 0
 740 232 673 299 590 299 c 0
 507 299 440 232 440 149 c 1
 390 149 l 1
 390 232 323 299 240 299 c 0
 157 299 90 232 90 149 c 0
 90 66 157 -1 240 -1 c 1
 240 -51 l 1
 240 -51 l 1
 130 -51 40 39 40 149 c 0
 40 259 130 349 240 349 c 0
 305 349 383 303 415 246 c 1
424 -143 m 1
 444 -106 496 -76 538 -76 c 0
 610 -76 668 -134 668 -206 c 0
 668 -278 610 -336 538 -336 c 1
 538 -368 l 1
 570 -368 l 1
 570 -401 l 1
 505 -401 l 1
 505 -304 l 1
 538 -304 l 2
 592 -304 635 -260 635 -206 c 0
 635 -152 592 -108 538 -108 c 0
 484 -108 440 -152 440 -206 c 1
 408 -206 l 1
 408 -152 364 -108 310 -108 c 0
 256 -108 212 -152 212 -206 c 0
 212 -260 256 -304 310 -304 c 1
 310 -336 l 1
 310 -336 l 1
 238 -336 180 -278 180 -206 c 0
 180 -134 238 -76 310 -76 c 0
 352 -76 404 -106 424 -143 c 1
EndSplineSet
Validated: 5
EndChar

StartChar: u1024
Encoding: 4132 4132 135
Width: 960
VWidth: 0
Flags: HW
LayerCount: 2
Fore
SplineSet
415 246 m 1
 447 303 525 349 590 349 c 0
 700 349 790 259 790 149 c 2
 790 -326 l 2
 790 -367 756 -401 715 -401 c 2
 590 -401 l 1
 115 -401 l 2
 74 -401 40 -367 40 -326 c 1
 40 -326 l 1
 40 -326 l 1
 40 -285 74 -251 115 -251 c 2
 240 -251 l 1
 240 -301 l 1
 115 -301 l 2
 101 -301 90 -312 90 -326 c 1
 90 -326 l 1
 90 -326 l 1
 90 -340 101 -351 115 -351 c 2
 590 -351 l 1
 715 -351 l 2
 729 -351 740 -340 740 -326 c 2
 740 149 l 2
 740 232 673 299 590 299 c 0
 507 299 440 232 440 149 c 0
 440 79 389 -2 325 -32 c 1
 303 13 l 1
 351 35 390 96 390 149 c 0
 390 232 323 299 240 299 c 0
 157 299 90 232 90 149 c 0
 90 96 129 35 177 13 c 1
 155 -32 l 1
 91 -2 40 79 40 149 c 0
 40 259 130 349 240 349 c 0
 305 349 383 303 415 246 c 1
920 574 m 1
 882 539 l 1
 871 550 848 559 832 559 c 0
 793 559 762 528 762 489 c 0
 762 473 772 451 783 440 c 2
 896 327 l 2
 900 323 903 315 903 309 c 2
 903 -448 l 1
 853 -448 l 1
 853 271 l 2
 853 288 843 312 831 324 c 2
 750 404 l 2
 731 423 715 462 715 489 c 0
 715 555 769 609 835 609 c 0
 862 609 901 593 920 574 c 1
EndSplineSet
Validated: 5
EndChar

StartChar: u1025
Encoding: 4133 4133 136
Width: 480
VWidth: 0
Flags: HW
LayerCount: 2
Fore
SplineSet
59 234 m 1
 89 298 170 349 240 349 c 0
 350 349 440 259 440 149 c 0
 440 39 350 -51 240 -51 c 0
 200 -51 142 -30 111 -4 c 0
 109 -2 106 -1 103 -1 c 0
 96 -1 90 -7 90 -14 c 2
 90 -326 l 2
 90 -340 101 -351 115 -351 c 2
 240 -351 l 1
 365 -351 l 2
 379 -351 390 -340 390 -326 c 1
 390 -326 l 1
 440 -326 l 1
 440 -326 l 1
 440 -367 406 -401 365 -401 c 2
 240 -401 l 1
 115 -401 l 2
 74 -401 40 -367 40 -326 c 2
 40 -14 l 2
 40 21 68 49 103 49 c 0
 116 49 134 42 144 34 c 0
 167 15 210 -1 240 -1 c 0
 323 -1 390 66 390 149 c 0
 390 232 323 299 240 299 c 0
 187 299 126 260 104 212 c 1
 59 234 l 1
EndSplineSet
Validated: 5
EndChar

StartChar: u1026
Encoding: 4134 4134 137
Width: 480
VWidth: 0
Flags: HW
LayerCount: 2
Fore
SplineSet
59 234 m 1
 89 298 170 349 240 349 c 0
 350 349 440 259 440 149 c 0
 440 39 350 -51 240 -51 c 0
 200 -51 142 -30 111 -4 c 0
 109 -2 106 -1 103 -1 c 0
 96 -1 90 -7 90 -14 c 2
 90 -326 l 2
 90 -340 101 -351 115 -351 c 2
 240 -351 l 1
 365 -351 l 2
 379 -351 390 -340 390 -326 c 1
 390 -326 l 1
 440 -326 l 1
 440 -326 l 1
 440 -367 406 -401 365 -401 c 2
 240 -401 l 1
 115 -401 l 2
 74 -401 40 -367 40 -326 c 2
 40 -14 l 2
 40 21 68 49 103 49 c 0
 116 49 134 42 144 34 c 0
 167 15 210 -1 240 -1 c 0
 323 -1 390 66 390 149 c 0
 390 232 323 299 240 299 c 0
 187 299 126 260 104 212 c 1
 59 234 l 1
240 374 m 2
 239 374 l 2
 173 374 120 428 120 494 c 0
 120 560 174 614 240 614 c 0
 306 614 360 560 360 494 c 0
 360 428 306 374 240 374 c 2
157 459 m 1
 176 477 213 493 240 493 c 0
 267 493 304 477 323 459 c 1
 327 468 330 484 330 494 c 0
 330 544 290 584 240 584 c 0
 190 584 150 544 150 494 c 0
 150 484 153 468 157 459 c 1
173 434 m 1
 188 417 218 404 240 404 c 0
 262 404 292 417 307 434 c 1
 292 451 262 464 240 464 c 0
 218 464 188 451 173 434 c 1
EndSplineSet
Validated: 5
EndChar

StartChar: u1027
Encoding: 4135 4135 138
Width: 480
VWidth: 0
Flags: HW
LayerCount: 2
Fore
SplineSet
413 249 m 1
 381 216 317 189 271 189 c 0
 225 189 160 216 128 249 c 1
 107 225 90 181 90 149 c 0
 90 117 107 73 128 49 c 1
 160 82 225 109 271 109 c 0
 317 109 381 82 413 49 c 1
 381 -6 304 -51 240 -51 c 0
 130 -51 40 39 40 149 c 0
 40 259 130 349 240 349 c 0
 304 349 381 304 413 249 c 1
352 49 m 1
 330 65 290 78 263 78 c 0
 226 78 176 56 151 28 c 1
 173 12 213 -1 240 -1 c 0
 277 -1 327 21 352 49 c 1
352 249 m 1
 327 277 277 299 240 299 c 0
 213 299 173 286 151 270 c 1
 176 242 226 220 263 220 c 0
 290 220 330 233 352 249 c 1
EndSplineSet
Validated: 1
EndChar

StartChar: u1029
Encoding: 4137 4137 139
Width: 1000
VWidth: 0
Flags: HW
LayerCount: 2
Fore
SplineSet
940 574 m 1
 890 574 l 1
 890 624 l 2
 890 638 879 649 865 649 c 2
 515 649 l 1
 115 649 l 2
 101 649 90 638 90 624 c 2
 90 -51 l 1
 90 -326 l 2
 90 -340 101 -351 115 -351 c 2
 515 -351 l 1
 865 -351 l 2
 879 -351 890 -340 890 -326 c 2
 890 -276 l 1
 940 -276 l 1
 940 -326 l 2
 940 -367 906 -401 865 -401 c 2
 515 -401 l 1
 115 -401 l 2
 74 -401 40 -367 40 -326 c 2
 40 -51 l 1
 40 624 l 2
 40 665 74 699 115 699 c 2
 515 699 l 1
 865 699 l 2
 906 699 940 665 940 624 c 2
 940 574 l 1
545 52 m 1
 513 -5 435 -51 370 -51 c 0
 300 -51 219 0 189 64 c 1
 234 86 l 1
 256 38 317 -1 370 -1 c 0
 453 -1 520 66 520 149 c 0
 520 232 453 299 370 299 c 0
 317 299 256 260 234 212 c 1
 189 234 l 1
 219 298 300 349 370 349 c 0
 480 349 570 259 570 149 c 0
 570 66 637 -1 720 -1 c 0
 803 -1 870 66 870 149 c 0
 870 232 803 299 720 299 c 1
 720 349 l 1
 830 349 920 259 920 149 c 0
 920 39 830 -51 720 -51 c 0
 655 -51 577 -5 545 52 c 1
EndSplineSet
Validated: 1
EndChar

StartChar: u102a
Encoding: 4138 4138 140
Width: 1815
VWidth: 0
Flags: HW
LayerCount: 2
Fore
SplineSet
421 234 m 1
 376 212 l 1
 354 260 293 299 240 299 c 0
 157 299 90 232 90 149 c 0
 90 117 107 73 128 49 c 1
 160 82 225 109 271 109 c 0
 317 109 381 82 413 49 c 1
 381 -6 304 -51 240 -51 c 0
 130 -51 40 39 40 149 c 0
 40 259 130 349 240 349 c 0
 310 349 391 298 421 234 c 1
352 49 m 1
 330 65 290 78 263 78 c 0
 226 78 176 56 151 28 c 1
 173 12 213 -1 240 -1 c 0
 277 -1 327 21 352 49 c 1
1420 574 m 1
 1370 574 l 1
 1370 624 l 2
 1370 638 1359 649 1345 649 c 2
 995 649 l 1
 595 649 l 2
 581 649 570 638 570 624 c 2
 570 -51 l 1
 570 -326 l 2
 570 -340 581 -351 595 -351 c 2
 995 -351 l 1
 1345 -351 l 2
 1359 -351 1370 -340 1370 -326 c 2
 1370 -276 l 1
 1420 -276 l 1
 1420 -326 l 2
 1420 -367 1386 -401 1345 -401 c 2
 995 -401 l 1
 595 -401 l 2
 554 -401 520 -367 520 -326 c 2
 520 -51 l 1
 520 624 l 2
 520 665 554 699 595 699 c 2
 995 699 l 1
 1345 699 l 2
 1386 699 1420 665 1420 624 c 2
 1420 574 l 1
1025 52 m 1
 993 -5 915 -51 850 -51 c 0
 780 -51 699 0 669 64 c 1
 714 86 l 1
 736 38 797 -1 850 -1 c 0
 933 -1 1000 66 1000 149 c 0
 1000 232 933 299 850 299 c 0
 797 299 736 260 714 212 c 1
 669 234 l 1
 699 298 780 349 850 349 c 0
 960 349 1050 259 1050 149 c 0
 1050 66 1117 -1 1200 -1 c 0
 1283 -1 1350 66 1350 149 c 0
 1350 232 1283 299 1200 299 c 1
 1200 349 l 1
 1310 349 1400 259 1400 149 c 0
 1400 39 1310 -51 1200 -51 c 0
 1135 -51 1057 -5 1025 52 c 1
1375 246 m 1
 1407 303 1485 349 1550 349 c 0
 1660 349 1750 259 1750 149 c 0
 1750 39 1660 -51 1550 -51 c 1
 1550 -1 l 1
 1633 -1 1700 66 1700 149 c 0
 1700 232 1633 299 1550 299 c 0
 1467 299 1400 232 1400 149 c 1
 1375 246 l 1
1660 586 m 1
 1624 551 l 1
 1613 562 1591 571 1575 571 c 0
 1536 571 1505 540 1505 501 c 0
 1505 485 1515 463 1526 452 c 2
 1628 349 l 1
 1557 349 l 1
 1490 416 l 2
 1471 435 1455 474 1455 501 c 0
 1455 567 1509 621 1575 621 c 0
 1602 621 1641 605 1660 586 c 1
EndSplineSet
Validated: 5
EndChar

StartChar: u102b
Encoding: 4139 4139 141
Width: 130
VWidth: 0
GlyphClass: 2
Flags: HW
LayerCount: 2
Fore
SplineSet
-110 494 m 1
 -110 549 -65 594 -10 594 c 0
 45 594 90 549 90 494 c 2
 90 -51 l 1
 40 -51 l 1
 40 494 l 2
 40 522 18 544 -10 544 c 0
 -38 544 -60 522 -60 494 c 1
 -110 494 l 1
EndSplineSet
Validated: 1
Substitution2: "dottedCircleMark" u25cc_u102b
EndChar

StartChar: u102c
Encoding: 4140 4140 142
Width: 375
VWidth: 0
GlyphClass: 2
Flags: HW
LayerCount: 2
Fore
SplineSet
-65 246 m 1
 -33 303 45 349 110 349 c 0
 220 349 310 259 310 149 c 0
 310 39 220 -51 110 -51 c 1
 110 -1 l 1
 193 -1 260 66 260 149 c 0
 260 232 193 299 110 299 c 0
 27 299 -40 232 -40 149 c 1
 -65 246 l 1
EndSplineSet
Validated: 1
Substitution2: "dottedCircleMark" u25cc_u102c
EndChar

StartChar: u102d
Encoding: 4141 4141 143
Width: 1
VWidth: 0
GlyphClass: 4
Flags: HW
LayerCount: 2
Fore
SplineSet
-240 374 m 2
 -241 374 l 2
 -307 374 -360 428 -360 494 c 0
 -360 560 -306 614 -240 614 c 0
 -174 614 -120 560 -120 494 c 0
 -120 428 -174 374 -240 374 c 2
-241 404 m 2
 -240 404 l 2
 -191 404 -150 445 -150 494 c 0
 -150 544 -190 584 -240 584 c 0
 -290 584 -330 544 -330 494 c 0
 -330 445 -290 404 -241 404 c 2
EndSplineSet
Validated: 1
Substitution2: "dottedCircleMark" u25cc_u102d
EndChar

StartChar: u102e
Encoding: 4142 4142 144
Width: 1
VWidth: 0
GlyphClass: 4
Flags: HW
LayerCount: 2
Fore
SplineSet
-240 374 m 2
 -241 374 l 2
 -307 374 -360 428 -360 494 c 0
 -360 560 -306 614 -240 614 c 0
 -174 614 -120 560 -120 494 c 0
 -120 428 -174 374 -240 374 c 2
-323 459 m 1
 -304 477 -267 493 -240 493 c 0
 -213 493 -176 477 -157 459 c 1
 -153 468 -150 484 -150 494 c 0
 -150 544 -190 584 -240 584 c 0
 -290 584 -330 544 -330 494 c 0
 -330 484 -327 468 -323 459 c 1
-307 434 m 1
 -292 417 -262 404 -240 404 c 0
 -218 404 -188 417 -173 434 c 1
 -188 451 -218 464 -240 464 c 0
 -262 464 -292 451 -307 434 c 1
EndSplineSet
Validated: 1
Substitution2: "dottedCircleMark" u25cc_u102e
EndChar

StartChar: u102f
Encoding: 4143 4143 145
Width: 1
VWidth: 0
GlyphClass: 2
Flags: HW
LayerCount: 2
Fore
SplineSet
-265 -76 m 1
 -215 -76 l 1
 -215 -326 l 2
 -215 -340 -204 -351 -190 -351 c 2
 -140 -351 l 1
 -140 -401 l 1
 -190 -401 l 2
 -231 -401 -265 -367 -265 -326 c 2
 -265 -76 l 1
EndSplineSet
Validated: 1
Substitution2: "dottedCircleMark" u25cc_u102f
AlternateSubs2: "mymralt" u102f_tall
EndChar

StartChar: u1030
Encoding: 4144 4144 146
Width: 1
VWidth: 0
GlyphClass: 2
Flags: HW
LayerCount: 2
Fore
SplineSet
-340 -76 m 1
 -290 -76 l 1
 -290 -401 l 1
 -340 -401 l 1
 -340 -76 l 1
-190 -76 m 1
 -140 -76 l 1
 -140 -326 l 2
 -140 -340 -129 -351 -115 -351 c 2
 -65 -351 l 1
 -65 -401 l 1
 -115 -401 l 2
 -156 -401 -190 -367 -190 -326 c 2
 -190 -76 l 1
EndSplineSet
Validated: 1
Substitution2: "dottedCircleMark" u25cc_u1030
AlternateSubs2: "mymralt" u1030_tall
EndChar

StartChar: u1031
Encoding: 4145 4145 147
Width: 480
VWidth: 0
GlyphClass: 2
Flags: HW
LayerCount: 2
Fore
SplineSet
421 234 m 1
 376 212 l 1
 354 260 293 299 240 299 c 0
 157 299 90 232 90 149 c 0
 90 117 107 73 128 49 c 1
 160 82 225 109 271 109 c 0
 317 109 381 82 413 49 c 1
 381 -6 304 -51 240 -51 c 0
 130 -51 40 39 40 149 c 0
 40 259 130 349 240 349 c 0
 310 349 391 298 421 234 c 1
352 49 m 1
 330 65 290 78 263 78 c 0
 226 78 176 56 151 28 c 1
 173 12 213 -1 240 -1 c 0
 277 -1 327 21 352 49 c 1
EndSplineSet
Validated: 1
Substitution2: "dottedCircleMark" u25cc_u1031
EndChar

StartChar: u1032
Encoding: 4146 4146 148
Width: 1
VWidth: 0
GlyphClass: 4
Flags: HW
LayerCount: 2
Fore
SplineSet
-378 614 m 1
 -342 649 l 1
 -102 409 l 1
 -138 374 l 1
 -378 614 l 1
EndSplineSet
Validated: 1
Substitution2: "dottedCircleMark" u25cc_u1032
EndChar

StartChar: u1034
Encoding: 4148 4148 149
Width: 1
VWidth: 0
GlyphClass: 4
Flags: HW
LayerCount: 2
Fore
SplineSet
-342 374 m 1
 -378 409 l 1
 -138 649 l 1
 -102 614 l 1
 -342 374 l 1
EndSplineSet
Validated: 1
Substitution2: "dottedCircleMark" u25cc_u1034
EndChar

StartChar: u1036
Encoding: 4150 4150 150
Width: 1
VWidth: 0
GlyphClass: 4
Flags: HW
LayerCount: 2
Fore
SplineSet
-240 434 m 2
 -241 434 l 2
 -274 434 -300 461 -300 494 c 0
 -300 527 -273 554 -240 554 c 0
 -207 554 -180 527 -180 494 c 0
 -180 461 -207 434 -240 434 c 2
-241 464 m 2
 -240 464 l 2
 -224 464 -210 478 -210 494 c 0
 -210 511 -223 524 -240 524 c 0
 -257 524 -270 511 -270 494 c 0
 -270 478 -257 464 -241 464 c 2
EndSplineSet
Validated: 1
Substitution2: "dottedCircleMark" u25cc_u1036
EndChar

StartChar: u1037
Encoding: 4151 4151 151
Width: 160
VWidth: 0
Flags: HW
LayerCount: 2
Fore
SplineSet
60 -196 m 2
 59 -196 l 2
 26 -196 0 -169 -0 -136 c 0
 0 -103 27 -76 60 -76 c 0
 93 -76 120 -103 120 -136 c 0
 120 -169 93 -196 60 -196 c 2
59 -166 m 2
 60 -166 l 2
 76 -166 90 -152 90 -136 c 0
 90 -119 77 -106 60 -106 c 0
 43 -106 30 -119 30 -136 c 0
 30 -152 43 -166 59 -166 c 2
EndSplineSet
Validated: 1
Substitution2: "dottedCircleMark" u25cc_u1037
EndChar

StartChar: u1038
Encoding: 4152 4152 152
Width: 160
VWidth: 0
Flags: HW
LayerCount: 2
Fore
SplineSet
60 9 m 2
 59 9 l 2
 26 9 0 36 -0 69 c 0
 0 102 27 129 60 129 c 0
 93 129 120 102 120 69 c 0
 120 36 93 9 60 9 c 2
59 39 m 2
 60 39 l 2
 76 39 90 53 90 69 c 0
 90 86 77 99 60 99 c 0
 43 99 30 86 30 69 c 0
 30 53 43 39 59 39 c 2
60 169 m 2
 59 169 l 2
 26 169 0 196 -0 229 c 0
 0 262 27 289 60 289 c 0
 93 289 120 262 120 229 c 0
 120 196 93 169 60 169 c 2
59 199 m 2
 60 199 l 2
 76 199 90 213 90 229 c 0
 90 246 77 259 60 259 c 0
 43 259 30 246 30 229 c 0
 30 213 43 199 59 199 c 2
EndSplineSet
Validated: 1
Substitution2: "dottedCircleMark" u25cc_u1038
EndChar

StartChar: u1039
Encoding: 4153 4153 153
Width: 1
VWidth: 0
Flags: HW
LayerCount: 2
Fore
SplineSet
-260 -238 m 0
-98 -238 m 1,1,-1
 -138 -238 l 1,2,3
 -138 -225 -142 -204 -147 -192 c 1,4,-1
 -110 -176 l 1,5,6
 -103 -192 -98 -220 -98 -238 c 1,1,-1
-260 -238 m 0
-145 -124 m 1,8,-1
 -174 -152 l 1,9,10
 -183 -143 -201 -131 -213 -126 c 1,11,-1
 -198 -88 l 1,12,13
 -182 -95 -158 -111 -145 -124 c 1,8,-1
-260 -238 m 0
-260 -76 m 0,15,-1
 -260 -117 l 1,16,17
 -273 -117 -295 -121 -307 -126 c 1,18,-1
 -322 -88 l 1,19,20
 -306 -81 -278 -76 -260 -76 c 0,15,-1
-260 -238 m 0
-375 -124 m 1,22,-1
 -346 -152 l 1,23,24
 -355 -161 -368 -180 -373 -192 c 1,25,-1
 -410 -176 l 1,26,27
 -403 -160 -388 -137 -375 -124 c 1,22,-1
-260 -238 m 0
-422 -238 m 0,29,-1
 -382 -238 l 1,30,31
 -382 -251 -378 -273 -373 -285 c 1,32,-1
 -410 -301 l 1,33,34
 -417 -285 -422 -256 -422 -238 c 0,29,-1
-260 -238 m 0
-375 -353 m 1,36,-1
 -346 -325 l 1,37,38
 -337 -334 -319 -346 -307 -351 c 1,39,-1
 -322 -389 l 1,40,41
 -338 -382 -362 -366 -375 -353 c 1,36,-1
-260 -238 m 0
-260 -401 m 1,43,-1
 -260 -360 l 1,44,45
 -247 -360 -225 -356 -213 -351 c 1,46,-1
 -198 -389 l 1,47,48
 -214 -396 -242 -401 -260 -401 c 1,49,-1
 -260 -401 l 1,43,-1
-260 -238 m 0
-145 -353 m 1,51,-1
 -174 -325 l 1,52,53
 -165 -316 -152 -297 -147 -285 c 1,54,-1
 -110 -301 l 1,55,56
 -117 -317 -132 -340 -145 -353 c 1,51,-1
-260 -238 m 0
EndSplineSet
Validated: 5
EndChar

StartChar: u103a
Encoding: 4154 4154 154
Width: 1
VWidth: 0
Flags: HW
LayerCount: 2
Fore
SplineSet
-155 586 m 1
 -191 551 l 1
 -202 562 -224 571 -240 571 c 0
 -279 571 -310 540 -310 501 c 0
 -310 485 -300 463 -289 452 c 2
 -187 349 l 1
 -258 349 l 1
 -325 416 l 2
 -344 435 -360 474 -360 501 c 0
 -360 567 -306 621 -240 621 c 0
 -213 621 -174 605 -155 586 c 1
EndSplineSet
Validated: 1
Substitution2: "dottedCircleMark" u25cc_u103a
EndChar

StartChar: u103b
Encoding: 4155 4155 155
Width: 140
VWidth: 0
GlyphClass: 2
Flags: HW
LayerCount: 2
Fore
SplineSet
-177 -10 m 1
 -127 -10 l 1
 -127 -189 l 2
 -127 -197 -121 -207 -114 -211 c 2
 -52 -247 l 1
 -14 -269 l 2
 -11 -271 -6 -272 -2 -272 c 0
 12 -272 23 -261 23 -247 c 2
 23 349 l 1
 73 349 l 1
 73 -353 l 2
 73 -367 62 -378 48 -378 c 0
 44 -378 38 -375 34 -373 c 2
 -52 -314 l 1
 -166 -233 l 2
 -172 -229 -177 -220 -177 -213 c 2
 -177 -10 l 1
EndSplineSet
Validated: 1
Substitution2: "dottedCircleMark" u25cc_u103b
EndChar

StartChar: u103c
Encoding: 4156 4156 156
Width: 130
VWidth: 0
GlyphClass: 2
Flags: HW
LayerCount: 2
Fore
SplineSet
590 574 m 1
 540 574 l 1
 540 624 l 2
 540 638 529 649 515 649 c 2
 315 649 l 1
 115 649 l 2
 101 649 90 638 90 624 c 2
 90 -51 l 1
 90 -326 l 2
 90 -340 101 -351 115 -351 c 2
 315 -351 l 1
 515 -351 l 2
 529 -351 540 -340 540 -326 c 2
 540 -276 l 1
 590 -276 l 1
 590 -326 l 2
 590 -367 556 -401 515 -401 c 2
 315 -401 l 1
 115 -401 l 2
 74 -401 40 -367 40 -326 c 2
 40 -51 l 1
 40 624 l 2
 40 665 74 699 115 699 c 2
 315 699 l 1
 515 699 l 2
 556 699 590 665 590 624 c 2
 590 574 l 1
EndSplineSet
Validated: 1
Substitution2: "dottedCircleMark" u25cc_u103c
AlternateSubs2: "mymralt" u103c_narrow u103c_narrow_upper u103c_wide u103c_wide_upper
EndChar

StartChar: u103d
Encoding: 4157 4157 157
Width: 1
VWidth: 0
Flags: HW
LayerCount: 2
Fore
SplineSet
-240 -76 m 2
 -239 -76 l 2
 -150 -76 -77 -149 -77 -238 c 0
 -77 -328 -150 -401 -240 -401 c 0
 -330 -401 -402 -328 -402 -238 c 0
 -402 -149 -329 -76 -240 -76 c 2
-240 -117 m 2
 -241 -117 l 2
 -308 -117 -362 -171 -362 -238 c 0
 -362 -305 -307 -360 -240 -360 c 0
 -173 -360 -119 -305 -119 -238 c 0
 -119 -171 -173 -117 -240 -117 c 2
EndSplineSet
Validated: 1
Substitution2: "dottedCircleMark" u25cc_u103d
EndChar

StartChar: u103e
Encoding: 4158 4158 158
Width: 1
VWidth: 0
Flags: HW
LayerCount: 2
Fore
SplineSet
-190 -76 m 1
 -190 -326 l 2
 -190 -367 -224 -401 -265 -401 c 2
 -315 -401 l 1
 -315 -351 l 1
 -265 -351 l 2
 -251 -351 -240 -340 -240 -326 c 2
 -240 -76 l 1
 -190 -76 l 1
EndSplineSet
Validated: 1
Substitution2: "dottedCircleMark" u25cc_u103e
AlternateSubs2: "mymralt" u103e_small
EndChar

StartChar: u103f
Encoding: 4159 4159 159
Width: 1180
VWidth: 0
GlyphClass: 2
Flags: HW
LayerCount: 2
Fore
SplineSet
415 52 m 1
 383 -5 305 -51 240 -51 c 0
 170 -51 89 0 59 64 c 1
 104 86 l 1
 126 38 187 -1 240 -1 c 0
 323 -1 390 66 390 149 c 0
 390 232 323 299 240 299 c 0
 187 299 126 260 104 212 c 1
 59 234 l 1
 89 298 170 349 240 349 c 0
 350 349 440 259 440 149 c 0
 440 66 507 -1 590 -1 c 0
 673 -1 740 66 740 149 c 0
 740 232 673 299 590 299 c 1
 590 349 l 1
 700 349 790 259 790 149 c 0
 790 39 700 -51 590 -51 c 0
 525 -51 447 -5 415 52 c 1
765 52 m 1
 790 149 l 1
 790 66 857 -1 940 -1 c 0
 1023 -1 1090 66 1090 149 c 0
 1090 232 1023 299 940 299 c 1
 940 349 l 1
 1050 349 1140 259 1140 149 c 0
 1140 39 1050 -51 940 -51 c 0
 875 -51 797 -5 765 52 c 1
EndSplineSet
Validated: 5
EndChar

StartChar: u1040
Encoding: 4160 4160 160
Width: 480
VWidth: 0
Flags: HW
LayerCount: 2
Fore
SplineSet
240 -51 m 2
 239 -51 l 2
 129 -51 40 39 40 149 c 0
 40 259 130 349 240 349 c 0
 350 349 440 259 440 149 c 0
 440 39 350 -51 240 -51 c 2
239 -1 m 2
 240 -1 l 2
 323 -1 390 66 390 149 c 0
 390 232 323 299 240 299 c 0
 157 299 90 232 90 149 c 0
 90 66 156 -1 239 -1 c 2
EndSplineSet
Validated: 1
EndChar

StartChar: u1041
Encoding: 4161 4161 161
Width: 480
VWidth: 0
Flags: HW
LayerCount: 2
Fore
SplineSet
59 234 m 1
 89 298 170 349 240 349 c 0
 350 349 440 259 440 149 c 0
 440 39 350 -51 240 -51 c 0
 170 -51 89 0 59 64 c 1
 104 86 l 1
 126 38 187 -1 240 -1 c 0
 323 -1 390 66 390 149 c 0
 390 232 323 299 240 299 c 0
 187 299 126 260 104 212 c 1
 59 234 l 1
EndSplineSet
Validated: 1
EndChar

StartChar: u1042
Encoding: 4162 4162 162
Width: 480
VWidth: 0
Flags: HW
LayerCount: 2
Fore
SplineSet
40 -201 m 1
 90 -201 l 1
 90 -284 157 -351 240 -351 c 0
 323 -351 390 -284 390 -201 c 2
 390 349 l 1
 440 349 l 1
 440 -201 l 2
 440 -311 350 -401 240 -401 c 0
 130 -401 40 -311 40 -201 c 1
EndSplineSet
Validated: 1
EndChar

StartChar: u1043
Encoding: 4163 4163 163
Width: 480
VWidth: 0
Flags: HW
LayerCount: 2
Fore
SplineSet
59 234 m 1
 89 298 170 349 240 349 c 0
 350 349 440 259 440 149 c 0
 440 39 350 -51 240 -51 c 0
 170 -51 89 0 59 64 c 1
 104 86 l 1
 126 38 187 -1 240 -1 c 0
 323 -1 390 66 390 149 c 0
 390 232 323 299 240 299 c 0
 187 299 126 260 104 212 c 1
 59 234 l 1
59 64 m 1
 102 90 l 1
 374 -376 l 1
 331 -401 l 1
 59 64 l 1
EndSplineSet
Validated: 5
EndChar

StartChar: u1044
Encoding: 4164 4164 164
Width: 480
VWidth: 0
Flags: HW
LayerCount: 2
Fore
SplineSet
421 234 m 1
 376 212 l 1
 354 260 293 299 240 299 c 0
 157 299 90 232 90 149 c 0
 90 66 157 -1 240 -1 c 0
 293 -1 354 38 376 86 c 1
 421 64 l 1
 391 0 310 -51 240 -51 c 0
 130 -51 40 39 40 149 c 0
 40 259 130 349 240 349 c 0
 310 349 391 298 421 234 c 1
421 64 m 1
 149 -401 l 1
 106 -376 l 1
 378 90 l 1
 421 64 l 1
EndSplineSet
Validated: 5
EndChar

StartChar: u1045
Encoding: 4165 4165 165
Width: 480
VWidth: 0
Flags: HW
LayerCount: 2
Fore
SplineSet
40 -201 m 1
 90 -201 l 1
 90 -284 157 -351 240 -351 c 0
 323 -351 390 -284 390 -201 c 2
 390 149 l 2
 390 232 323 299 240 299 c 0
 203 299 153 276 128 248 c 1
 131 248 137 249 140 249 c 0
 195 249 240 204 240 149 c 0
 240 94 195 49 140 49 c 0
 85 49 40 94 40 149 c 0
 40 259 130 349 240 349 c 0
 350 349 440 259 440 149 c 2
 440 -201 l 2
 440 -311 350 -401 240 -401 c 0
 130 -401 40 -311 40 -201 c 1
140 99 m 2
 141 99 l 2
 168 99 190 122 190 149 c 0
 190 177 168 199 140 199 c 0
 112 199 90 177 90 149 c 0
 90 122 113 99 140 99 c 2
EndSplineSet
Validated: 1
EndChar

StartChar: u1046
Encoding: 4166 4166 166
Width: 480
VWidth: 0
Flags: HW
LayerCount: 2
Fore
SplineSet
440 499 m 1
 390 499 l 1
 390 582 323 649 240 649 c 0
 157 649 90 582 90 499 c 2
 90 149 l 2
 90 66 157 -1 240 -1 c 0
 323 -1 390 66 390 149 c 1
 340 149 l 2
 285 149 240 194 240 249 c 0
 240 304 285 349 340 349 c 0
 395 349 440 304 440 249 c 1
 390 249 l 1
 390 277 368 299 340 299 c 0
 312 299 290 277 290 249 c 0
 290 221 312 199 340 199 c 2
 390 199 l 2
 418 199 440 177 440 149 c 0
 440 39 350 -51 240 -51 c 0
 130 -51 40 39 40 149 c 2
 40 499 l 2
 40 609 130 699 240 699 c 0
 350 699 440 609 440 499 c 1
EndSplineSet
Validated: 1
EndChar

StartChar: u1047
Encoding: 4167 4167 167
Width: 480
VWidth: 0
Flags: HW
LayerCount: 2
Fore
SplineSet
40 149 m 1
 40 259 130 349 240 349 c 0
 350 349 440 259 440 149 c 1
 431 76 386 -30 340 -88 c 1
 303 -141 270 -237 265 -301 c 1
 265 -301 l 1
 265 -315 276 -326 290 -326 c 2
 340 -326 l 1
 340 -376 l 1
 290 -376 l 2
 249 -376 215 -342 215 -301 c 1
 215 -301 l 1
 224 -228 269 -122 315 -64 c 1
 352 -11 385 85 390 149 c 1
 390 232 323 299 240 299 c 0
 157 299 90 232 90 149 c 1
 40 149 l 1
EndSplineSet
Validated: 5
EndChar

StartChar: u1048
Encoding: 4168 4168 168
Width: 480
VWidth: 0
Flags: HW
LayerCount: 2
Fore
SplineSet
140 -24 m 1
 85 8 40 85 40 149 c 0
 40 259 130 349 240 349 c 0
 350 349 440 259 440 149 c 0
 440 79 389 -2 325 -32 c 1
 303 13 l 1
 351 35 390 96 390 149 c 0
 390 232 323 299 240 299 c 0
 208 299 164 282 140 261 c 1
 173 229 200 164 200 118 c 0
 200 72 173 8 140 -24 c 1
140 37 m 1
 156 59 169 99 169 126 c 0
 169 163 147 213 119 238 c 1
 103 216 90 176 90 149 c 0
 90 112 112 62 140 37 c 1
EndSplineSet
Validated: 1
EndChar

StartChar: u1049
Encoding: 4169 4169 169
Width: 480
VWidth: 0
Flags: HW
LayerCount: 2
Fore
SplineSet
440 149 m 0
 440 121 418 99 390 99 c 2
 340 99 l 2
 312 99 290 77 290 49 c 0
 290 21 312 -1 340 -1 c 0
 368 -1 390 21 390 49 c 1
 440 49 l 1
 440 -6 395 -51 340 -51 c 0
 285 -51 240 -6 240 49 c 0
 240 104 285 149 340 149 c 2
 390 149 l 1
 390 232 323 299 240 299 c 0
 157 299 90 232 90 149 c 2
 90 -201 l 2
 90 -284 157 -351 240 -351 c 0
 323 -351 390 -284 390 -201 c 1
 440 -201 l 1
 440 -311 350 -401 240 -401 c 0
 130 -401 40 -311 40 -201 c 2
 40 149 l 2
 40 259 130 349 240 349 c 0
 350 349 440 259 440 149 c 0
EndSplineSet
Validated: 1
EndChar

StartChar: u104a
Encoding: 4170 4170 170
Width: 130
VWidth: 0
Flags: HW
LayerCount: 2
Fore
SplineSet
40 349 m 1
 90 349 l 1
 90 -51 l 1
 40 -51 l 1
 40 349 l 1
EndSplineSet
Validated: 1
EndChar

StartChar: u104b
Encoding: 4171 4171 171
Width: 230
VWidth: 0
Flags: HW
LayerCount: 2
Fore
SplineSet
40 349 m 1
 90 349 l 1
 90 -51 l 1
 40 -51 l 1
 40 349 l 1
190 349 m 1
 240 349 l 1
 240 -51 l 1
 190 -51 l 1
 190 349 l 1
EndSplineSet
Validated: 1
EndChar

StartChar: u104c
Encoding: 4172 4172 172
Width: 480
VWidth: 0
Flags: HW
LayerCount: 2
Fore
SplineSet
59 234 m 0
 89 298 170 349 240 349 c 0
 350 349 440 259 440 149 c 0
 440 39 350 -51 240 -51 c 0
 200 -51 142 -30 111 -4 c 0
 109 -2 106 -1 103 -1 c 0
 96 -1 90 -7 90 -14 c 0
 90 -17 92 -22 95 -24 c 2
 144 -65 l 2
 167 -84 210 -100 240 -100 c 0
 270 -100 313 -84 336 -65 c 0
 346 -57 364 -51 377 -51 c 0
 412 -51 440 -79 440 -114 c 2
 440 -339 l 2
 440 -380 406 -414 365 -414 c 2
 240 -414 l 1
 115 -414 l 2
 74 -414 40 -380 40 -339 c 1
 40 -339 l 1
 90 -339 l 1
 90 -339 l 1
 90 -353 101 -364 115 -364 c 2
 240 -364 l 1
 365 -364 l 2
 379 -364 390 -353 390 -339 c 2
 390 -114 l 2
 390 -107 384 -101 377 -101 c 0
 374 -101 371 -102 369 -104 c 0
 338 -130 280 -150 240 -150 c 0
 200 -150 142 -130 111 -104 c 2
 63 -63 l 2
 51 -53 40 -30 40 -14 c 0
 40 21 68 49 103 49 c 0
 116 49 134 42 144 34 c 0
 167 15 210 -1 240 -1 c 0
 323 -1 390 66 390 149 c 0
 390 232 323 299 240 299 c 0
 187 299 126 260 104 212 c 1
 59 234 l 0
325 586 m 1
 289 551 l 1
 278 562 256 571 240 571 c 0
 201 571 170 540 170 501 c 0
 170 485 180 463 191 452 c 2
 293 349 l 1
 222 349 l 1
 155 416 l 2
 136 435 120 474 120 501 c 0
 120 567 174 621 240 621 c 0
 267 621 306 605 325 586 c 1
EndSplineSet
Validated: 5
EndChar

StartChar: u104d
Encoding: 4173 4173 173
Width: 610
VWidth: 0
Flags: HW
LayerCount: 2
Fore
SplineSet
240 -51 m 1
 130 -51 40 39 40 149 c 0
 40 259 130 349 240 349 c 0
 350 349 440 259 440 149 c 2
 440 -301 l 1
 390 -301 l 1
 390 149 l 1
 389 231 322 297 240 297 c 0
 157 297 90 230 90 147 c 0
 90 93 131 31 180 9 c 1
 167 40 131 76 100 89 c 1
 40 149 l 1
 150 149 240 59 240 -51 c 1
570 574 m 1
 532 539 l 1
 521 550 498 559 482 559 c 0
 443 559 412 528 412 489 c 0
 412 473 422 451 433 440 c 2
 546 327 l 2
 550 323 553 315 553 309 c 2
 553 -98 l 1
 553 -373 l 2
 553 -414 519 -448 478 -448 c 2
 303 -448 l 1
 178 -448 l 2
 137 -448 103 -414 103 -373 c 1
 103 -373 l 1
 103 -373 l 1
 103 -332 137 -298 178 -298 c 2
 303 -298 l 1
 303 -348 l 1
 178 -348 l 2
 164 -348 153 -359 153 -373 c 1
 153 -373 l 1
 153 -373 l 1
 153 -387 164 -398 178 -398 c 2
 303 -398 l 1
 478 -398 l 2
 492 -398 503 -387 503 -373 c 2
 503 -98 l 1
 503 271 l 2
 503 288 493 312 481 324 c 2
 400 404 l 2
 381 423 365 462 365 489 c 0
 365 555 419 609 485 609 c 0
 512 609 551 593 570 574 c 1
EndSplineSet
Validated: 5
EndChar

StartChar: u104e
Encoding: 4174 4174 174
Width: 480
VWidth: 0
Flags: HW
LayerCount: 2
Fore
SplineSet
421 234 m 1
 376 212 l 1
 354 260 293 299 240 299 c 0
 157 299 90 232 90 149 c 0
 90 66 157 -1 240 -1 c 0
 270 -1 313 15 336 34 c 0
 346 42 364 49 377 49 c 0
 412 49 440 21 440 -14 c 2
 440 -401 l 1
 390 -401 l 1
 390 -14 l 2
 390 -7 384 -1 377 -1 c 0
 374 -1 371 -2 369 -4 c 0
 338 -30 280 -51 240 -51 c 0
 130 -51 40 39 40 149 c 0
 40 259 130 349 240 349 c 0
 310 349 391 298 421 234 c 1
EndSplineSet
Validated: 1
EndChar

StartChar: u104f
Encoding: 4175 4175 175
Width: 480
VWidth: 0
Flags: HW
LayerCount: 2
Fore
SplineSet
413 249 m 1
 381 216 317 189 271 189 c 0
 225 189 160 216 128 249 c 1
 107 225 90 181 90 149 c 0
 90 117 107 73 128 49 c 1
 160 82 225 109 271 109 c 0
 317 109 381 82 413 49 c 1
 381 -6 304 -51 240 -51 c 0
 130 -51 40 39 40 149 c 0
 40 259 130 349 240 349 c 0
 304 349 381 304 413 249 c 1
352 49 m 1
 330 65 290 78 263 78 c 0
 226 78 176 56 151 28 c 1
 173 12 213 -1 240 -1 c 0
 277 -1 327 21 352 49 c 1
352 249 m 1
 327 277 277 299 240 299 c 0
 213 299 173 286 151 270 c 1
 176 242 226 220 263 220 c 0
 290 220 330 233 352 249 c 1
480 349 m 1
 530 349 l 1
 530 -51 l 1
 480 -51 l 1
 480 349 l 1
660 574 m 1
 622 539 l 1
 611 550 588 559 572 559 c 0
 533 559 502 528 502 489 c 0
 502 473 512 451 523 440 c 2
 636 327 l 2
 640 323 643 315 643 309 c 2
 643 -98 l 1
 593 -98 l 1
 593 271 l 2
 593 288 583 312 571 324 c 2
 490 404 l 2
 471 423 455 462 455 489 c 0
 455 555 509 609 575 609 c 0
 602 609 641 593 660 574 c 1
EndSplineSet
Validated: 1
EndChar

StartChar: u2212
Encoding: 8722 8722 176
Width: 480
VWidth: 0
Flags: HW
LayerCount: 2
Fore
SplineSet
40 174 m 1
 440 174 l 1
 440 124 l 1
 40 124 l 1
 40 174 l 1
EndSplineSet
Validated: 1
EndChar

StartChar: u25cc
Encoding: 9676 9676 177
Width: 480
VWidth: 0
Flags: HW
LayerCount: 2
Fore
SplineSet
240 149 m 0
440 149 m 0,1,-1
 390 149 l 1,2,3
 390 165 385 191 379 206 c 1,4,-1
 425 226 l 1,5,6
 433 206 440 171 440 149 c 0,1,-1
240 149 m 0
381 290 m 1,8,-1
 346 255 l 1,9,10
 334 267 312 282 297 288 c 1,11,-1
 317 334 l 1,12,13
 337 326 365 306 381 290 c 1,8,-1
240 149 m 0
240 349 m 1,15,-1
 240 299 l 1,16,17
 224 299 198 294 183 288 c 1,18,-1
 163 334 l 1,19,20
 183 342 218 349 240 349 c 1,15,-1
240 149 m 0
99 290 m 1,22,-1
 134 255 l 1,23,24
 122 243 107 221 101 206 c 1,25,-1
 55 226 l 1,26,27
 63 246 83 274 99 290 c 1,22,-1
240 149 m 0
40 149 m 1,29,-1
 90 149 l 1,30,31
 90 133 95 107 101 92 c 1,32,-1
 55 72 l 1,33,34
 47 92 40 127 40 149 c 1,29,-1
240 149 m 0
99 8 m 1,36,-1
 134 43 l 1,37,38
 146 31 168 16 183 10 c 1,39,-1
 163 -36 l 1,40,41
 143 -28 115 -8 99 8 c 1,36,-1
240 149 m 0
240 -51 m 1,43,-1
 240 -1 l 1,44,45
 256 -1 282 4 297 10 c 1,46,-1
 317 -36 l 1,47,48
 297 -44 262 -51 240 -51 c 1,49,-1
 240 -51 l 1,43,-1
240 149 m 0
381 8 m 1,51,-1
 346 43 l 1,52,53
 358 55 373 77 379 92 c 1,54,-1
 425 72 l 1,55,56
 417 52 397 24 381 8 c 1,51,-1
240 149 m 0
EndSplineSet
Validated: 5
EndChar

StartChar: u0061_alt
Encoding: 65536 -1 178
Width: 480
VWidth: 0
Flags: HW
LayerCount: 2
Fore
SplineSet
440 349 m 1
 440 -51 l 1
 390 -51 l 1
 390 17 l 1
 357 -20 290 -51 240 -51 c 0
 130 -51 40 39 40 149 c 0
 40 259 130 349 240 349 c 0
 290 349 357 318 390 281 c 1
 390 349 l 1
 440 349 l 1
240 -1 m 2
 241 -1 l 2
 324 -1 390 66 390 149 c 0
 390 232 323 299 240 299 c 0
 157 299 90 232 90 149 c 0
 90 66 157 -1 240 -1 c 2
EndSplineSet
Validated: 1
EndChar

StartChar: u100a_alt
Encoding: 65537 -1 179
Width: 830
VWidth: 0
Flags: HW
LayerCount: 2
Fore
SplineSet
415 52 m 1
 383 -5 305 -51 240 -51 c 0
 200 -51 142 -30 111 -4 c 0
 109 -2 106 -1 103 -1 c 0
 96 -1 90 -7 90 -14 c 2
 90 -326 l 2
 90 -340 101 -351 115 -351 c 2
 340 -351 l 1
 340 -401 l 1
 115 -401 l 2
 74 -401 40 -367 40 -326 c 2
 40 -14 l 2
 40 21 68 49 103 49 c 0
 116 49 134 42 144 34 c 0
 167 15 210 -1 240 -1 c 0
 323 -1 390 66 390 149 c 0
 390 232 323 299 240 299 c 0
 187 299 126 260 104 212 c 1
 59 234 l 1
 89 298 170 349 240 349 c 0
 350 349 440 259 440 149 c 0
 440 66 507 -1 590 -1 c 0
 673 -1 740 66 740 149 c 0
 740 232 673 299 590 299 c 1
 590 349 l 1
 700 349 790 259 790 149 c 0
 790 39 700 -51 590 -51 c 0
 525 -51 447 -5 415 52 c 1
EndSplineSet
Validated: 1
EndChar

StartChar: u1014_alt
Encoding: 65538 -1 180
Width: 480
VWidth: 0
Flags: HW
LayerCount: 2
Fore
SplineSet
328 262 m 1
 278 262 l 1
 278 283 261 299 240 299 c 0
 219 299 202 283 202 262 c 0
 202 241 219 224 240 224 c 0
 350 224 440 152 440 62 c 0
 440 0 350 -51 240 -51 c 0
 130 -51 40 0 40 62 c 0
 40 124 90 174 152 174 c 0
 174 174 206 163 223 149 c 2
 417 -7 l 1
 385 -46 l 1
 192 110 l 2
 183 118 164 124 152 124 c 0
 118 124 90 96 90 62 c 0
 90 28 157 -1 240 -1 c 0
 323 -1 390 28 390 62 c 0
 390 124 323 174 240 174 c 0
 192 174 152 214 152 262 c 0
 152 310 192 349 240 349 c 0
 288 349 328 310 328 262 c 1
EndSplineSet
Validated: 5
EndChar

StartChar: u101b_alt
Encoding: 65539 -1 181
Width: 480
VWidth: 0
Flags: HW
LayerCount: 2
Fore
SplineSet
240 -51 m 1
 130 -51 40 39 40 149 c 0
 40 259 130 349 240 349 c 0
 350 349 440 259 440 149 c 2
 440 -301 l 1
 390 -301 l 1
 390 149 l 1
 389 231 322 297 240 297 c 0
 157 297 90 230 90 147 c 0
 90 93 131 31 180 9 c 1
 167 40 131 76 100 89 c 1
 40 149 l 1
 150 149 240 59 240 -51 c 1
EndSplineSet
Validated: 5
EndChar

StartChar: u102f_tall
Encoding: 65540 -1 182
Width: 205
VWidth: 0
Flags: HW
LayerCount: 2
Fore
SplineSet
40 349 m 1
 90 349 l 1
 90 -326 l 2
 90 -340 101 -351 115 -351 c 2
 165 -351 l 1
 165 -401 l 1
 115 -401 l 2
 74 -401 40 -367 40 -326 c 2
 40 349 l 1
EndSplineSet
Validated: 1
EndChar

StartChar: u1030_tall
Encoding: 65541 -1 183
Width: 355
VWidth: 0
Flags: HW
LayerCount: 2
Fore
SplineSet
40 349 m 1
 90 349 l 1
 90 -401 l 1
 40 -401 l 1
 40 349 l 1
190 349 m 1
 240 349 l 1
 240 -326 l 2
 240 -340 251 -351 265 -351 c 2
 315 -351 l 1
 315 -401 l 1
 265 -401 l 2
 224 -401 190 -367 190 -326 c 2
 190 349 l 1
EndSplineSet
Validated: 1
EndChar

StartChar: u103c_narrow
Encoding: 65542 -1 184
Width: 130
VWidth: 0
Flags: HW
LayerCount: 2
Fore
SplineSet
590 574 m 1
 540 574 l 1
 540 624 l 2
 540 638 529 649 515 649 c 2
 315 649 l 1
 115 649 l 2
 101 649 90 638 90 624 c 2
 90 -51 l 1
 90 -326 l 2
 90 -340 101 -351 115 -351 c 2
 315 -351 l 1
 515 -351 l 2
 529 -351 540 -340 540 -326 c 2
 540 -276 l 1
 590 -276 l 1
 590 -326 l 2
 590 -367 556 -401 515 -401 c 2
 315 -401 l 1
 115 -401 l 2
 74 -401 40 -367 40 -326 c 2
 40 -51 l 1
 40 624 l 2
 40 665 74 699 115 699 c 2
 315 699 l 1
 515 699 l 2
 556 699 590 665 590 624 c 2
 590 574 l 1
EndSplineSet
Validated: 1
EndChar

StartChar: u103c_narrow_upper
Encoding: 65543 -1 185
Width: 130
VWidth: 0
Flags: HW
LayerCount: 2
Fore
SplineSet
175 699 m 1
 175 649 l 1
 115 649 l 2
 101 649 90 638 90 624 c 2
 90 -51 l 1
 90 -326 l 2
 90 -340 101 -351 115 -351 c 2
 315 -351 l 1
 515 -351 l 2
 529 -351 540 -340 540 -326 c 2
 540 -276 l 1
 590 -276 l 1
 590 -326 l 2
 590 -367 556 -401 515 -401 c 2
 315 -401 l 1
 115 -401 l 2
 74 -401 40 -367 40 -326 c 2
 40 -51 l 1
 40 624 l 2
 40 665 74 699 115 699 c 2
 175 699 l 1
EndSplineSet
Validated: 1
EndChar

StartChar: u103c_wide
Encoding: 65544 -1 186
Width: 130
VWidth: 0
Flags: HW
LayerCount: 2
Fore
SplineSet
940 574 m 1
 890 574 l 1
 890 624 l 2
 890 638 879 649 865 649 c 2
 515 649 l 1
 115 649 l 2
 101 649 90 638 90 624 c 2
 90 -51 l 1
 90 -326 l 2
 90 -340 101 -351 115 -351 c 2
 515 -351 l 1
 865 -351 l 2
 879 -351 890 -340 890 -326 c 2
 890 -276 l 1
 940 -276 l 1
 940 -326 l 2
 940 -367 906 -401 865 -401 c 2
 515 -401 l 1
 115 -401 l 2
 74 -401 40 -367 40 -326 c 2
 40 -51 l 1
 40 624 l 2
 40 665 74 699 115 699 c 2
 515 699 l 1
 865 699 l 2
 906 699 940 665 940 624 c 2
 940 574 l 1
EndSplineSet
Validated: 1
EndChar

StartChar: u103c_wide_upper
Encoding: 65545 -1 187
Width: 130
VWidth: 0
Flags: HW
LayerCount: 2
Fore
SplineSet
515 699 m 1
 515 649 l 1
 115 649 l 2
 101 649 90 638 90 624 c 2
 90 -51 l 1
 90 -326 l 2
 90 -340 101 -351 115 -351 c 2
 515 -351 l 1
 865 -351 l 2
 879 -351 890 -340 890 -326 c 2
 890 -276 l 1
 940 -276 l 1
 940 -326 l 2
 940 -367 906 -401 865 -401 c 2
 515 -401 l 1
 115 -401 l 2
 74 -401 40 -367 40 -326 c 2
 40 -51 l 1
 40 624 l 2
 40 665 74 699 115 699 c 2
 515 699 l 1
EndSplineSet
Validated: 1
EndChar

StartChar: u103e_small
Encoding: 65546 -1 188
Width: 1
VWidth: 0
Flags: HW
LayerCount: 2
Fore
SplineSet
-215 -76 m 1
 -215 -164 l 2
 -215 -205 -249 -238 -290 -238 c 2
 -340 -238 l 1
 -340 -188 l 1
 -290 -188 l 2
 -276 -188 -265 -178 -265 -164 c 2
 -265 -76 l 1
 -215 -76 l 1
EndSplineSet
Validated: 1
EndChar

StartChar: u1039_u1000
Encoding: 65547 -1 189
Width: 1
VWidth: 0
GlyphClass: 3
Flags: HW
LayerCount: 2
Fore
SplineSet
-415 -160 m 1
 -389 -114 -326 -76 -273 -76 c 0
 -183 -76 -110 -148 -110 -238 c 0
 -110 -328 -183 -401 -273 -401 c 1
 -273 -360 l 1
 -206 -360 -151 -305 -151 -238 c 0
 -151 -171 -206 -117 -273 -117 c 0
 -340 -117 -395 -171 -395 -238 c 0
 -395 -295 -437 -362 -489 -386 c 1
 -506 -349 l 1
 -467 -331 -435 -281 -435 -238 c 0
 -435 -171 -490 -117 -557 -117 c 0
 -624 -117 -679 -171 -679 -238 c 0
 -679 -281 -648 -331 -609 -349 c 1
 -626 -386 l 1
 -678 -362 -720 -295 -720 -238 c 0
 -720 -148 -647 -76 -557 -76 c 0
 -504 -76 -441 -114 -415 -160 c 1
EndSplineSet
Validated: 1
Ligature2: "medialLigSub" u1039 u1000
EndChar

StartChar: u1039_u1000_u102f
Encoding: 65548 -1 190
Width: 180
VWidth: 0
GlyphClass: 3
Flags: HW
LayerCount: 2
Fore
SplineSet
-415 -160 m 1
 -389 -114 -326 -76 -273 -76 c 0
 -183 -76 -110 -148 -110 -238 c 0
 -110 -328 -183 -401 -273 -401 c 1
 -273 -360 l 1
 -206 -360 -151 -305 -151 -238 c 0
 -151 -171 -206 -117 -273 -117 c 0
 -340 -117 -395 -171 -395 -238 c 0
 -395 -295 -437 -362 -489 -386 c 1
 -506 -349 l 1
 -467 -331 -435 -281 -435 -238 c 0
 -435 -171 -490 -117 -557 -117 c 0
 -624 -117 -679 -171 -679 -238 c 0
 -679 -281 -648 -331 -609 -349 c 1
 -626 -386 l 1
 -678 -362 -720 -295 -720 -238 c 0
 -720 -148 -647 -76 -557 -76 c 0
 -504 -76 -441 -114 -415 -160 c 1
40 349 m 1
 90 349 l 1
 90 -326 l 2
 90 -340 101 -351 115 -351 c 2
 165 -351 l 1
 165 -401 l 1
 115 -401 l 2
 74 -401 40 -367 40 -326 c 2
 40 349 l 1
EndSplineSet
Validated: 1
Ligature2: "medialLigSub" u1039 u1000 u102f
EndChar

StartChar: u1039_u1000_u102d_u102f
Encoding: 65549 -1 191
Width: 180
VWidth: 0
GlyphClass: 3
Flags: HW
LayerCount: 2
Fore
SplineSet
-415 -160 m 1
 -389 -114 -326 -76 -273 -76 c 0
 -183 -76 -110 -148 -110 -238 c 0
 -110 -328 -183 -401 -273 -401 c 1
 -273 -360 l 1
 -206 -360 -151 -305 -151 -238 c 0
 -151 -171 -206 -117 -273 -117 c 0
 -340 -117 -395 -171 -395 -238 c 0
 -395 -295 -437 -362 -489 -386 c 1
 -506 -349 l 1
 -467 -331 -435 -281 -435 -238 c 0
 -435 -171 -490 -117 -557 -117 c 0
 -624 -117 -679 -171 -679 -238 c 0
 -679 -281 -648 -331 -609 -349 c 1
 -626 -386 l 1
 -678 -362 -720 -295 -720 -238 c 0
 -720 -148 -647 -76 -557 -76 c 0
 -504 -76 -441 -114 -415 -160 c 1
-240 374 m 2
 -241 374 l 2
 -307 374 -360 428 -360 494 c 0
 -360 560 -306 614 -240 614 c 0
 -174 614 -120 560 -120 494 c 0
 -120 428 -174 374 -240 374 c 2
-241 404 m 2
 -240 404 l 2
 -191 404 -150 445 -150 494 c 0
 -150 544 -190 584 -240 584 c 0
 -290 584 -330 544 -330 494 c 0
 -330 445 -290 404 -241 404 c 2
40 349 m 1
 90 349 l 1
 90 -326 l 2
 90 -340 101 -351 115 -351 c 2
 165 -351 l 1
 165 -401 l 1
 115 -401 l 2
 74 -401 40 -367 40 -326 c 2
 40 349 l 1
EndSplineSet
Validated: 1
Ligature2: "medialLigSub" u1039 u1000 u102d u102f
EndChar

StartChar: u1039_u1000_u1030
Encoding: 65550 -1 192
Width: 330
VWidth: 0
GlyphClass: 3
Flags: HW
LayerCount: 2
Fore
SplineSet
-415 -160 m 1
 -389 -114 -326 -76 -273 -76 c 0
 -183 -76 -110 -148 -110 -238 c 0
 -110 -328 -183 -401 -273 -401 c 1
 -273 -360 l 1
 -206 -360 -151 -305 -151 -238 c 0
 -151 -171 -206 -117 -273 -117 c 0
 -340 -117 -395 -171 -395 -238 c 0
 -395 -295 -437 -362 -489 -386 c 1
 -506 -349 l 1
 -467 -331 -435 -281 -435 -238 c 0
 -435 -171 -490 -117 -557 -117 c 0
 -624 -117 -679 -171 -679 -238 c 0
 -679 -281 -648 -331 -609 -349 c 1
 -626 -386 l 1
 -678 -362 -720 -295 -720 -238 c 0
 -720 -148 -647 -76 -557 -76 c 0
 -504 -76 -441 -114 -415 -160 c 1
40 349 m 1
 90 349 l 1
 90 -401 l 1
 40 -401 l 1
 40 349 l 1
190 349 m 1
 240 349 l 1
 240 -326 l 2
 240 -340 251 -351 265 -351 c 2
 315 -351 l 1
 315 -401 l 1
 265 -401 l 2
 224 -401 190 -367 190 -326 c 2
 190 349 l 1
EndSplineSet
Validated: 1
Ligature2: "medialLigSub" u1039 u1000 u1030
EndChar

StartChar: u1039_u1001
Encoding: 65551 -1 193
Width: 1
VWidth: 0
GlyphClass: 3
Flags: HW
LayerCount: 2
Fore
SplineSet
-387 -170 m 1
 -363 -118 -297 -76 -240 -76 c 0
 -150 -76 -78 -148 -78 -238 c 0
 -78 -328 -150 -401 -240 -401 c 0
 -292 -401 -355 -365 -381 -320 c 1
 -355 -293 -303 -271 -265 -271 c 0
 -227 -271 -175 -293 -149 -320 c 1
 -132 -301 -118 -264 -118 -238 c 0
 -118 -171 -173 -117 -240 -117 c 0
 -283 -117 -332 -148 -350 -187 c 1
 -387 -170 l 1
-331 -320 m 1
 -311 -342 -270 -360 -240 -360 c 0
 -218 -360 -186 -350 -168 -337 c 1
 -188 -315 -229 -296 -259 -296 c 0
 -281 -296 -313 -307 -331 -320 c 1
EndSplineSet
Validated: 1
Ligature2: "medialLigSub" u1039 u1001
EndChar

StartChar: u1039_u1001_u102f
Encoding: 65552 -1 194
Width: 180
VWidth: 0
GlyphClass: 3
Flags: HW
LayerCount: 2
Fore
SplineSet
-387 -170 m 1
 -363 -118 -297 -76 -240 -76 c 0
 -150 -76 -78 -148 -78 -238 c 0
 -78 -328 -150 -401 -240 -401 c 0
 -292 -401 -355 -365 -381 -320 c 1
 -355 -293 -303 -271 -265 -271 c 0
 -227 -271 -175 -293 -149 -320 c 1
 -132 -301 -118 -264 -118 -238 c 0
 -118 -171 -173 -117 -240 -117 c 0
 -283 -117 -332 -148 -350 -187 c 1
 -387 -170 l 1
-331 -320 m 1
 -311 -342 -270 -360 -240 -360 c 0
 -218 -360 -186 -350 -168 -337 c 1
 -188 -315 -229 -296 -259 -296 c 0
 -281 -296 -313 -307 -331 -320 c 1
40 349 m 1
 90 349 l 1
 90 -326 l 2
 90 -340 101 -351 115 -351 c 2
 165 -351 l 1
 165 -401 l 1
 115 -401 l 2
 74 -401 40 -367 40 -326 c 2
 40 349 l 1
EndSplineSet
Validated: 1
Ligature2: "medialLigSub" u1039 u1001 u102f
EndChar

StartChar: u1039_u1001_u102d_u102f
Encoding: 65553 -1 195
Width: 180
VWidth: 0
GlyphClass: 3
Flags: HW
LayerCount: 2
Fore
SplineSet
-387 -170 m 1
 -363 -118 -297 -76 -240 -76 c 0
 -150 -76 -78 -148 -78 -238 c 0
 -78 -328 -150 -401 -240 -401 c 0
 -292 -401 -355 -365 -381 -320 c 1
 -355 -293 -303 -271 -265 -271 c 0
 -227 -271 -175 -293 -149 -320 c 1
 -132 -301 -118 -264 -118 -238 c 0
 -118 -171 -173 -117 -240 -117 c 0
 -283 -117 -332 -148 -350 -187 c 1
 -387 -170 l 1
-331 -320 m 1
 -311 -342 -270 -360 -240 -360 c 0
 -218 -360 -186 -350 -168 -337 c 1
 -188 -315 -229 -296 -259 -296 c 0
 -281 -296 -313 -307 -331 -320 c 1
-240 374 m 2
 -241 374 l 2
 -307 374 -360 428 -360 494 c 0
 -360 560 -306 614 -240 614 c 0
 -174 614 -120 560 -120 494 c 0
 -120 428 -174 374 -240 374 c 2
-241 404 m 2
 -240 404 l 2
 -191 404 -150 445 -150 494 c 0
 -150 544 -190 584 -240 584 c 0
 -290 584 -330 544 -330 494 c 0
 -330 445 -290 404 -241 404 c 2
40 349 m 1
 90 349 l 1
 90 -326 l 2
 90 -340 101 -351 115 -351 c 2
 165 -351 l 1
 165 -401 l 1
 115 -401 l 2
 74 -401 40 -367 40 -326 c 2
 40 349 l 1
EndSplineSet
Validated: 1
Ligature2: "medialLigSub" u1039 u1001 u102d u102f
EndChar

StartChar: u1039_u1001_u1030
Encoding: 65554 -1 196
Width: 330
VWidth: 0
GlyphClass: 3
Flags: HW
LayerCount: 2
Fore
SplineSet
-387 -170 m 1
 -363 -118 -297 -76 -240 -76 c 0
 -150 -76 -78 -148 -78 -238 c 0
 -78 -328 -150 -401 -240 -401 c 0
 -292 -401 -355 -365 -381 -320 c 1
 -355 -293 -303 -271 -265 -271 c 0
 -227 -271 -175 -293 -149 -320 c 1
 -132 -301 -118 -264 -118 -238 c 0
 -118 -171 -173 -117 -240 -117 c 0
 -283 -117 -332 -148 -350 -187 c 1
 -387 -170 l 1
-331 -320 m 1
 -311 -342 -270 -360 -240 -360 c 0
 -218 -360 -186 -350 -168 -337 c 1
 -188 -315 -229 -296 -259 -296 c 0
 -281 -296 -313 -307 -331 -320 c 1
40 349 m 1
 90 349 l 1
 90 -401 l 1
 40 -401 l 1
 40 349 l 1
190 349 m 1
 240 349 l 1
 240 -326 l 2
 240 -340 251 -351 265 -351 c 2
 315 -351 l 1
 315 -401 l 1
 265 -401 l 2
 224 -401 190 -367 190 -326 c 2
 190 349 l 1
EndSplineSet
Validated: 1
Ligature2: "medialLigSub" u1039 u1001 u1030
EndChar

StartChar: u1039_u1002
Encoding: 65555 -1 197
Width: 1
VWidth: 0
GlyphClass: 3
Flags: HW
LayerCount: 2
Fore
SplineSet
-309 -386 m 1
 -361 -362 -402 -295 -402 -238 c 0
 -402 -148 -330 -76 -240 -76 c 0
 -150 -76 -78 -148 -78 -238 c 0
 -78 -295 -119 -362 -171 -386 c 1
 -188 -349 l 1
 -149 -331 -118 -281 -118 -238 c 0
 -118 -171 -173 -117 -240 -117 c 0
 -307 -117 -362 -171 -362 -238 c 0
 -362 -281 -331 -331 -292 -349 c 1
 -309 -386 l 1
EndSplineSet
Validated: 1
Ligature2: "medialLigSub" u1039 u1002
EndChar

StartChar: u1039_u1002_u102f
Encoding: 65556 -1 198
Width: 180
VWidth: 0
GlyphClass: 3
Flags: HW
LayerCount: 2
Fore
SplineSet
-309 -386 m 1
 -361 -362 -402 -295 -402 -238 c 0
 -402 -148 -330 -76 -240 -76 c 0
 -150 -76 -78 -148 -78 -238 c 0
 -78 -295 -119 -362 -171 -386 c 1
 -188 -349 l 1
 -149 -331 -118 -281 -118 -238 c 0
 -118 -171 -173 -117 -240 -117 c 0
 -307 -117 -362 -171 -362 -238 c 0
 -362 -281 -331 -331 -292 -349 c 1
 -309 -386 l 1
40 349 m 1
 90 349 l 1
 90 -326 l 2
 90 -340 101 -351 115 -351 c 2
 165 -351 l 1
 165 -401 l 1
 115 -401 l 2
 74 -401 40 -367 40 -326 c 2
 40 349 l 1
EndSplineSet
Validated: 1
Ligature2: "medialLigSub" u1039 u1002 u102f
EndChar

StartChar: u1039_u1002_u102d_u102f
Encoding: 65557 -1 199
Width: 180
VWidth: 0
GlyphClass: 3
Flags: HW
LayerCount: 2
Fore
SplineSet
-309 -386 m 1
 -361 -362 -402 -295 -402 -238 c 0
 -402 -148 -330 -76 -240 -76 c 0
 -150 -76 -78 -148 -78 -238 c 0
 -78 -295 -119 -362 -171 -386 c 1
 -188 -349 l 1
 -149 -331 -118 -281 -118 -238 c 0
 -118 -171 -173 -117 -240 -117 c 0
 -307 -117 -362 -171 -362 -238 c 0
 -362 -281 -331 -331 -292 -349 c 1
 -309 -386 l 1
-240 374 m 2
 -241 374 l 2
 -307 374 -360 428 -360 494 c 0
 -360 560 -306 614 -240 614 c 0
 -174 614 -120 560 -120 494 c 0
 -120 428 -174 374 -240 374 c 2
-241 404 m 2
 -240 404 l 2
 -191 404 -150 445 -150 494 c 0
 -150 544 -190 584 -240 584 c 0
 -290 584 -330 544 -330 494 c 0
 -330 445 -290 404 -241 404 c 2
40 349 m 1
 90 349 l 1
 90 -326 l 2
 90 -340 101 -351 115 -351 c 2
 165 -351 l 1
 165 -401 l 1
 115 -401 l 2
 74 -401 40 -367 40 -326 c 2
 40 349 l 1
EndSplineSet
Validated: 1
Ligature2: "medialLigSub" u1039 u1002 u102d u102f
EndChar

StartChar: u1039_u1002_u1030
Encoding: 65558 -1 200
Width: 330
VWidth: 0
GlyphClass: 3
Flags: HW
LayerCount: 2
Fore
SplineSet
-309 -386 m 1
 -361 -362 -402 -295 -402 -238 c 0
 -402 -148 -330 -76 -240 -76 c 0
 -150 -76 -78 -148 -78 -238 c 0
 -78 -295 -119 -362 -171 -386 c 1
 -188 -349 l 1
 -149 -331 -118 -281 -118 -238 c 0
 -118 -171 -173 -117 -240 -117 c 0
 -307 -117 -362 -171 -362 -238 c 0
 -362 -281 -331 -331 -292 -349 c 1
 -309 -386 l 1
40 349 m 1
 90 349 l 1
 90 -401 l 1
 40 -401 l 1
 40 349 l 1
190 349 m 1
 240 349 l 1
 240 -326 l 2
 240 -340 251 -351 265 -351 c 2
 315 -351 l 1
 315 -401 l 1
 265 -401 l 2
 224 -401 190 -367 190 -326 c 2
 190 349 l 1
EndSplineSet
Validated: 1
Ligature2: "medialLigSub" u1039 u1002 u1030
EndChar

StartChar: u1039_u1003
Encoding: 65559 -1 201
Width: 1
VWidth: 0
GlyphClass: 3
Flags: HW
LayerCount: 2
Fore
SplineSet
-415 -317 m 1
 -441 -363 -504 -401 -557 -401 c 0
 -647 -401 -720 -328 -720 -238 c 0
 -720 -205 -703 -159 -682 -134 c 0
 -681 -132 -679 -129 -679 -127 c 0
 -679 -121 -684 -117 -690 -117 c 0
 -693 -117 -696 -118 -698 -120 c 1
 -729 -94 l 1
 -721 -84 -703 -76 -690 -76 c 0
 -662 -76 -639 -99 -639 -127 c 0
 -639 -137 -644 -152 -651 -160 c 0
 -667 -179 -679 -214 -679 -238 c 0
 -679 -305 -624 -360 -557 -360 c 0
 -490 -360 -435 -305 -435 -238 c 0
 -435 -195 -467 -146 -506 -128 c 1
 -489 -91 l 1
 -437 -115 -395 -181 -395 -238 c 0
 -395 -305 -340 -360 -273 -360 c 0
 -206 -360 -151 -305 -151 -238 c 0
 -151 -171 -206 -117 -273 -117 c 1
 -273 -76 l 1
 -183 -76 -110 -148 -110 -238 c 0
 -110 -328 -183 -401 -273 -401 c 0
 -326 -401 -389 -363 -415 -317 c 1
EndSplineSet
Validated: 1
Ligature2: "medialLigSub" u1039 u1003
EndChar

StartChar: u1039_u1003_u102f
Encoding: 65560 -1 202
Width: 180
VWidth: 0
GlyphClass: 3
Flags: HW
LayerCount: 2
Fore
SplineSet
-415 -317 m 1
 -441 -363 -504 -401 -557 -401 c 0
 -647 -401 -720 -328 -720 -238 c 0
 -720 -205 -703 -159 -682 -134 c 0
 -681 -132 -679 -129 -679 -127 c 0
 -679 -121 -684 -117 -690 -117 c 0
 -693 -117 -696 -118 -698 -120 c 1
 -729 -94 l 1
 -721 -84 -703 -76 -690 -76 c 0
 -662 -76 -639 -99 -639 -127 c 0
 -639 -137 -644 -152 -651 -160 c 0
 -667 -179 -679 -214 -679 -238 c 0
 -679 -305 -624 -360 -557 -360 c 0
 -490 -360 -435 -305 -435 -238 c 0
 -435 -195 -467 -146 -506 -128 c 1
 -489 -91 l 1
 -437 -115 -395 -181 -395 -238 c 0
 -395 -305 -340 -360 -273 -360 c 0
 -206 -360 -151 -305 -151 -238 c 0
 -151 -171 -206 -117 -273 -117 c 1
 -273 -76 l 1
 -183 -76 -110 -148 -110 -238 c 0
 -110 -328 -183 -401 -273 -401 c 0
 -326 -401 -389 -363 -415 -317 c 1
40 349 m 1
 90 349 l 1
 90 -326 l 2
 90 -340 101 -351 115 -351 c 2
 165 -351 l 1
 165 -401 l 1
 115 -401 l 2
 74 -401 40 -367 40 -326 c 2
 40 349 l 1
EndSplineSet
Validated: 1
Ligature2: "medialLigSub" u1039 u1003 u102f
EndChar

StartChar: u1039_u1003_u102d_u102f
Encoding: 65561 -1 203
Width: 180
VWidth: 0
GlyphClass: 3
Flags: HW
LayerCount: 2
Fore
SplineSet
-415 -317 m 1
 -441 -363 -504 -401 -557 -401 c 0
 -647 -401 -720 -328 -720 -238 c 0
 -720 -205 -703 -159 -682 -134 c 0
 -681 -132 -679 -129 -679 -127 c 0
 -679 -121 -684 -117 -690 -117 c 0
 -693 -117 -696 -118 -698 -120 c 1
 -729 -94 l 1
 -721 -84 -703 -76 -690 -76 c 0
 -662 -76 -639 -99 -639 -127 c 0
 -639 -137 -644 -152 -651 -160 c 0
 -667 -179 -679 -214 -679 -238 c 0
 -679 -305 -624 -360 -557 -360 c 0
 -490 -360 -435 -305 -435 -238 c 0
 -435 -195 -467 -146 -506 -128 c 1
 -489 -91 l 1
 -437 -115 -395 -181 -395 -238 c 0
 -395 -305 -340 -360 -273 -360 c 0
 -206 -360 -151 -305 -151 -238 c 0
 -151 -171 -206 -117 -273 -117 c 1
 -273 -76 l 1
 -183 -76 -110 -148 -110 -238 c 0
 -110 -328 -183 -401 -273 -401 c 0
 -326 -401 -389 -363 -415 -317 c 1
-240 374 m 2
 -241 374 l 2
 -307 374 -360 428 -360 494 c 0
 -360 560 -306 614 -240 614 c 0
 -174 614 -120 560 -120 494 c 0
 -120 428 -174 374 -240 374 c 2
-241 404 m 2
 -240 404 l 2
 -191 404 -150 445 -150 494 c 0
 -150 544 -190 584 -240 584 c 0
 -290 584 -330 544 -330 494 c 0
 -330 445 -290 404 -241 404 c 2
40 349 m 1
 90 349 l 1
 90 -326 l 2
 90 -340 101 -351 115 -351 c 2
 165 -351 l 1
 165 -401 l 1
 115 -401 l 2
 74 -401 40 -367 40 -326 c 2
 40 349 l 1
EndSplineSet
Validated: 1
Ligature2: "medialLigSub" u1039 u1003 u102d u102f
EndChar

StartChar: u1039_u1003_u1030
Encoding: 65562 -1 204
Width: 330
VWidth: 0
GlyphClass: 3
Flags: HW
LayerCount: 2
Fore
SplineSet
-415 -317 m 1
 -441 -363 -504 -401 -557 -401 c 0
 -647 -401 -720 -328 -720 -238 c 0
 -720 -205 -703 -159 -682 -134 c 0
 -681 -132 -679 -129 -679 -127 c 0
 -679 -121 -684 -117 -690 -117 c 0
 -693 -117 -696 -118 -698 -120 c 1
 -729 -94 l 1
 -721 -84 -703 -76 -690 -76 c 0
 -662 -76 -639 -99 -639 -127 c 0
 -639 -137 -644 -152 -651 -160 c 0
 -667 -179 -679 -214 -679 -238 c 0
 -679 -305 -624 -360 -557 -360 c 0
 -490 -360 -435 -305 -435 -238 c 0
 -435 -195 -467 -146 -506 -128 c 1
 -489 -91 l 1
 -437 -115 -395 -181 -395 -238 c 0
 -395 -305 -340 -360 -273 -360 c 0
 -206 -360 -151 -305 -151 -238 c 0
 -151 -171 -206 -117 -273 -117 c 1
 -273 -76 l 1
 -183 -76 -110 -148 -110 -238 c 0
 -110 -328 -183 -401 -273 -401 c 0
 -326 -401 -389 -363 -415 -317 c 1
40 349 m 1
 90 349 l 1
 90 -401 l 1
 40 -401 l 1
 40 349 l 1
190 349 m 1
 240 349 l 1
 240 -326 l 2
 240 -340 251 -351 265 -351 c 2
 315 -351 l 1
 315 -401 l 1
 265 -401 l 2
 224 -401 190 -367 190 -326 c 2
 190 349 l 1
EndSplineSet
Validated: 1
Ligature2: "medialLigSub" u1039 u1003 u1030
EndChar

StartChar: u1039_u1004
Encoding: 65563 -1 205
Width: 1
VWidth: 0
GlyphClass: 3
Flags: HW
LayerCount: 2
Fore
SplineSet
-93 -170 m 1
 -130 -187 l 1
 -148 -148 -197 -117 -240 -117 c 0
 -307 -117 -362 -171 -362 -238 c 0
 -362 -305 -307 -360 -240 -360 c 0
 -197 -360 -148 -329 -130 -290 c 1
 -93 -307 l 1
 -117 -359 -183 -401 -240 -401 c 0
 -330 -401 -402 -328 -402 -238 c 0
 -402 -148 -330 -76 -240 -76 c 0
 -183 -76 -117 -118 -93 -170 c 1
EndSplineSet
Validated: 1
Ligature2: "medialLigSub" u1039 u1004
EndChar

StartChar: u1039_u1004_u102f
Encoding: 65564 -1 206
Width: 180
VWidth: 0
GlyphClass: 3
Flags: HW
LayerCount: 2
Fore
SplineSet
-93 -170 m 1
 -130 -187 l 1
 -148 -148 -197 -117 -240 -117 c 0
 -307 -117 -362 -171 -362 -238 c 0
 -362 -305 -307 -360 -240 -360 c 0
 -197 -360 -148 -329 -130 -290 c 1
 -93 -307 l 1
 -117 -359 -183 -401 -240 -401 c 0
 -330 -401 -402 -328 -402 -238 c 0
 -402 -148 -330 -76 -240 -76 c 0
 -183 -76 -117 -118 -93 -170 c 1
40 349 m 1
 90 349 l 1
 90 -326 l 2
 90 -340 101 -351 115 -351 c 2
 165 -351 l 1
 165 -401 l 1
 115 -401 l 2
 74 -401 40 -367 40 -326 c 2
 40 349 l 1
EndSplineSet
Validated: 1
Ligature2: "medialLigSub" u1039 u1004 u102f
EndChar

StartChar: u1039_u1004_u102d_u102f
Encoding: 65565 -1 207
Width: 180
VWidth: 0
GlyphClass: 3
Flags: HW
LayerCount: 2
Fore
SplineSet
-93 -170 m 1
 -130 -187 l 1
 -148 -148 -197 -117 -240 -117 c 0
 -307 -117 -362 -171 -362 -238 c 0
 -362 -305 -307 -360 -240 -360 c 0
 -197 -360 -148 -329 -130 -290 c 1
 -93 -307 l 1
 -117 -359 -183 -401 -240 -401 c 0
 -330 -401 -402 -328 -402 -238 c 0
 -402 -148 -330 -76 -240 -76 c 0
 -183 -76 -117 -118 -93 -170 c 1
-240 374 m 2
 -241 374 l 2
 -307 374 -360 428 -360 494 c 0
 -360 560 -306 614 -240 614 c 0
 -174 614 -120 560 -120 494 c 0
 -120 428 -174 374 -240 374 c 2
-241 404 m 2
 -240 404 l 2
 -191 404 -150 445 -150 494 c 0
 -150 544 -190 584 -240 584 c 0
 -290 584 -330 544 -330 494 c 0
 -330 445 -290 404 -241 404 c 2
40 349 m 1
 90 349 l 1
 90 -326 l 2
 90 -340 101 -351 115 -351 c 2
 165 -351 l 1
 165 -401 l 1
 115 -401 l 2
 74 -401 40 -367 40 -326 c 2
 40 349 l 1
EndSplineSet
Validated: 1
Ligature2: "medialLigSub" u1039 u1004 u102d u102f
EndChar

StartChar: u1039_u1004_u1030
Encoding: 65566 -1 208
Width: 330
VWidth: 0
GlyphClass: 3
Flags: HW
LayerCount: 2
Fore
SplineSet
-93 -170 m 1
 -130 -187 l 1
 -148 -148 -197 -117 -240 -117 c 0
 -307 -117 -362 -171 -362 -238 c 0
 -362 -305 -307 -360 -240 -360 c 0
 -197 -360 -148 -329 -130 -290 c 1
 -93 -307 l 1
 -117 -359 -183 -401 -240 -401 c 0
 -330 -401 -402 -328 -402 -238 c 0
 -402 -148 -330 -76 -240 -76 c 0
 -183 -76 -117 -118 -93 -170 c 1
40 349 m 1
 90 349 l 1
 90 -401 l 1
 40 -401 l 1
 40 349 l 1
190 349 m 1
 240 349 l 1
 240 -326 l 2
 240 -340 251 -351 265 -351 c 2
 315 -351 l 1
 315 -401 l 1
 265 -401 l 2
 224 -401 190 -367 190 -326 c 2
 190 349 l 1
EndSplineSet
Validated: 1
Ligature2: "medialLigSub" u1039 u1004 u1030
EndChar

StartChar: u1039_u1005
Encoding: 65567 -1 209
Width: 1
VWidth: 0
GlyphClass: 3
Flags: HW
LayerCount: 2
Fore
SplineSet
-240 -401 m 2
 -241 -401 l 2
 -330 -401 -403 -328 -403 -239 c 0
 -403 -149 -330 -76 -240 -76 c 0
 -150 -76 -78 -149 -78 -239 c 0
 -78 -328 -151 -401 -240 -401 c 2
-287 -126 m 1
 -262 -152 -242 -202 -242 -238 c 0
 -242 -274 -262 -325 -287 -351 c 1
 -275 -356 -254 -360 -240 -360 c 0
 -173 -360 -118 -305 -118 -238 c 0
 -118 -171 -173 -117 -240 -117 c 0
 -254 -117 -275 -121 -287 -126 c 1
-321 -148 m 1
 -343 -168 -362 -208 -362 -238 c 0
 -362 -268 -343 -309 -321 -329 c 1
 -299 -309 -281 -268 -281 -238 c 0
 -281 -208 -299 -168 -321 -148 c 1
EndSplineSet
Validated: 1
Ligature2: "medialLigSub" u1039 u1005
EndChar

StartChar: u1039_u1005_u102f
Encoding: 65568 -1 210
Width: 180
VWidth: 0
GlyphClass: 3
Flags: HW
LayerCount: 2
Fore
SplineSet
-240 -401 m 2
 -241 -401 l 2
 -330 -401 -403 -328 -403 -239 c 0
 -403 -149 -330 -76 -240 -76 c 0
 -150 -76 -78 -149 -78 -239 c 0
 -78 -328 -151 -401 -240 -401 c 2
-287 -126 m 1
 -262 -152 -242 -202 -242 -238 c 0
 -242 -274 -262 -325 -287 -351 c 1
 -275 -356 -254 -360 -240 -360 c 0
 -173 -360 -118 -305 -118 -238 c 0
 -118 -171 -173 -117 -240 -117 c 0
 -254 -117 -275 -121 -287 -126 c 1
-321 -148 m 1
 -343 -168 -362 -208 -362 -238 c 0
 -362 -268 -343 -309 -321 -329 c 1
 -299 -309 -281 -268 -281 -238 c 0
 -281 -208 -299 -168 -321 -148 c 1
40 349 m 1
 90 349 l 1
 90 -326 l 2
 90 -340 101 -351 115 -351 c 2
 165 -351 l 1
 165 -401 l 1
 115 -401 l 2
 74 -401 40 -367 40 -326 c 2
 40 349 l 1
EndSplineSet
Validated: 1
Ligature2: "medialLigSub" u1039 u1005 u102f
EndChar

StartChar: u1039_u1005_u102d_u102f
Encoding: 65569 -1 211
Width: 180
VWidth: 0
GlyphClass: 3
Flags: HW
LayerCount: 2
Fore
SplineSet
-240 -401 m 2
 -241 -401 l 2
 -330 -401 -403 -328 -403 -239 c 0
 -403 -149 -330 -76 -240 -76 c 0
 -150 -76 -78 -149 -78 -239 c 0
 -78 -328 -151 -401 -240 -401 c 2
-287 -126 m 1
 -262 -152 -242 -202 -242 -238 c 0
 -242 -274 -262 -325 -287 -351 c 1
 -275 -356 -254 -360 -240 -360 c 0
 -173 -360 -118 -305 -118 -238 c 0
 -118 -171 -173 -117 -240 -117 c 0
 -254 -117 -275 -121 -287 -126 c 1
-321 -148 m 1
 -343 -168 -362 -208 -362 -238 c 0
 -362 -268 -343 -309 -321 -329 c 1
 -299 -309 -281 -268 -281 -238 c 0
 -281 -208 -299 -168 -321 -148 c 1
-240 374 m 2
 -241 374 l 2
 -307 374 -360 428 -360 494 c 0
 -360 560 -306 614 -240 614 c 0
 -174 614 -120 560 -120 494 c 0
 -120 428 -174 374 -240 374 c 2
-241 404 m 2
 -240 404 l 2
 -191 404 -150 445 -150 494 c 0
 -150 544 -190 584 -240 584 c 0
 -290 584 -330 544 -330 494 c 0
 -330 445 -290 404 -241 404 c 2
40 349 m 1
 90 349 l 1
 90 -326 l 2
 90 -340 101 -351 115 -351 c 2
 165 -351 l 1
 165 -401 l 1
 115 -401 l 2
 74 -401 40 -367 40 -326 c 2
 40 349 l 1
EndSplineSet
Validated: 1
Ligature2: "medialLigSub" u1039 u1005 u102d u102f
EndChar

StartChar: u1039_u1005_u1030
Encoding: 65570 -1 212
Width: 330
VWidth: 0
GlyphClass: 3
Flags: HW
LayerCount: 2
Fore
SplineSet
-240 -401 m 2
 -241 -401 l 2
 -330 -401 -403 -328 -403 -239 c 0
 -403 -149 -330 -76 -240 -76 c 0
 -150 -76 -78 -149 -78 -239 c 0
 -78 -328 -151 -401 -240 -401 c 2
-287 -126 m 1
 -262 -152 -242 -202 -242 -238 c 0
 -242 -274 -262 -325 -287 -351 c 1
 -275 -356 -254 -360 -240 -360 c 0
 -173 -360 -118 -305 -118 -238 c 0
 -118 -171 -173 -117 -240 -117 c 0
 -254 -117 -275 -121 -287 -126 c 1
-321 -148 m 1
 -343 -168 -362 -208 -362 -238 c 0
 -362 -268 -343 -309 -321 -329 c 1
 -299 -309 -281 -268 -281 -238 c 0
 -281 -208 -299 -168 -321 -148 c 1
40 349 m 1
 90 349 l 1
 90 -401 l 1
 40 -401 l 1
 40 349 l 1
190 349 m 1
 240 349 l 1
 240 -326 l 2
 240 -340 251 -351 265 -351 c 2
 315 -351 l 1
 315 -401 l 1
 265 -401 l 2
 224 -401 190 -367 190 -326 c 2
 190 349 l 1
EndSplineSet
Validated: 1
Ligature2: "medialLigSub" u1039 u1005 u1030
EndChar

StartChar: u1039_u1006
Encoding: 65571 -1 213
Width: 1
VWidth: 0
GlyphClass: 3
Flags: HW
LayerCount: 2
Fore
SplineSet
-704 -170 m 1
 -680 -118 -614 -76 -557 -76 c 0
 -504 -76 -441 -114 -415 -160 c 1
 -389 -114 -326 -76 -273 -76 c 0
 -183 -76 -110 -148 -110 -238 c 0
 -110 -328 -183 -401 -273 -401 c 0
 -326 -401 -389 -363 -415 -317 c 1
 -441 -363 -504 -401 -557 -401 c 0
 -609 -401 -672 -365 -698 -320 c 1
 -672 -293 -620 -271 -582 -271 c 0
 -544 -271 -492 -293 -466 -320 c 1
 -449 -301 -435 -264 -435 -238 c 0
 -435 -171 -490 -117 -557 -117 c 0
 -600 -117 -650 -148 -668 -187 c 1
 -704 -170 l 1
-648 -320 m 1
 -628 -342 -587 -360 -557 -360 c 0
 -535 -360 -503 -350 -485 -337 c 1
 -505 -315 -546 -296 -576 -296 c 0
 -598 -296 -630 -307 -648 -320 c 1
-395 -238 m 2
 -395 -305 -340 -360 -273 -360 c 0
 -206 -360 -151 -305 -151 -238 c 0
 -151 -171 -206 -116 -273 -116 c 0
 -340 -116 -395 -171 -395 -238 c 2
 -395 -238 l 2
EndSplineSet
Validated: 5
Ligature2: "medialLigSub" u1039 u1006
EndChar

StartChar: u1039_u1006_u102f
Encoding: 65572 -1 214
Width: 180
VWidth: 0
GlyphClass: 3
Flags: HW
LayerCount: 2
Fore
SplineSet
-704 -170 m 1
 -680 -118 -614 -76 -557 -76 c 0
 -504 -76 -441 -114 -415 -160 c 1
 -389 -114 -326 -76 -273 -76 c 0
 -183 -76 -110 -148 -110 -238 c 0
 -110 -328 -183 -401 -273 -401 c 0
 -326 -401 -389 -363 -415 -317 c 1
 -441 -363 -504 -401 -557 -401 c 0
 -609 -401 -672 -365 -698 -320 c 1
 -672 -293 -620 -271 -582 -271 c 0
 -544 -271 -492 -293 -466 -320 c 1
 -449 -301 -435 -264 -435 -238 c 0
 -435 -171 -490 -117 -557 -117 c 0
 -600 -117 -650 -148 -668 -187 c 1
 -704 -170 l 1
-648 -320 m 1
 -628 -342 -587 -360 -557 -360 c 0
 -535 -360 -503 -350 -485 -337 c 1
 -505 -315 -546 -296 -576 -296 c 0
 -598 -296 -630 -307 -648 -320 c 1
-395 -238 m 2
 -395 -305 -340 -360 -273 -360 c 0
 -206 -360 -151 -305 -151 -238 c 0
 -151 -171 -206 -116 -273 -116 c 0
 -340 -116 -395 -171 -395 -238 c 2
 -395 -238 l 2
40 349 m 1
 90 349 l 1
 90 -326 l 2
 90 -340 101 -351 115 -351 c 2
 165 -351 l 1
 165 -401 l 1
 115 -401 l 2
 74 -401 40 -367 40 -326 c 2
 40 349 l 1
EndSplineSet
Validated: 5
Ligature2: "medialLigSub" u1039 u1006 u102f
EndChar

StartChar: u1039_u1006_u102d_u102f
Encoding: 65573 -1 215
Width: 180
VWidth: 0
GlyphClass: 3
Flags: HW
LayerCount: 2
Fore
SplineSet
-704 -170 m 1
 -680 -118 -614 -76 -557 -76 c 0
 -504 -76 -441 -114 -415 -160 c 1
 -389 -114 -326 -76 -273 -76 c 0
 -183 -76 -110 -148 -110 -238 c 0
 -110 -328 -183 -401 -273 -401 c 0
 -326 -401 -389 -363 -415 -317 c 1
 -441 -363 -504 -401 -557 -401 c 0
 -609 -401 -672 -365 -698 -320 c 1
 -672 -293 -620 -271 -582 -271 c 0
 -544 -271 -492 -293 -466 -320 c 1
 -449 -301 -435 -264 -435 -238 c 0
 -435 -171 -490 -117 -557 -117 c 0
 -600 -117 -650 -148 -668 -187 c 1
 -704 -170 l 1
-648 -320 m 1
 -628 -342 -587 -360 -557 -360 c 0
 -535 -360 -503 -350 -485 -337 c 1
 -505 -315 -546 -296 -576 -296 c 0
 -598 -296 -630 -307 -648 -320 c 1
-395 -238 m 2
 -395 -305 -340 -360 -273 -360 c 0
 -206 -360 -151 -305 -151 -238 c 0
 -151 -171 -206 -116 -273 -116 c 0
 -340 -116 -395 -171 -395 -238 c 2
 -395 -238 l 2
-240 374 m 2
 -241 374 l 2
 -307 374 -360 428 -360 494 c 0
 -360 560 -306 614 -240 614 c 0
 -174 614 -120 560 -120 494 c 0
 -120 428 -174 374 -240 374 c 2
-241 404 m 2
 -240 404 l 2
 -191 404 -150 445 -150 494 c 0
 -150 544 -190 584 -240 584 c 0
 -290 584 -330 544 -330 494 c 0
 -330 445 -290 404 -241 404 c 2
40 349 m 1
 90 349 l 1
 90 -326 l 2
 90 -340 101 -351 115 -351 c 2
 165 -351 l 1
 165 -401 l 1
 115 -401 l 2
 74 -401 40 -367 40 -326 c 2
 40 349 l 1
EndSplineSet
Validated: 5
Ligature2: "medialLigSub" u1039 u1006 u102d u102f
EndChar

StartChar: u1039_u1006_u1030
Encoding: 65574 -1 216
Width: 330
VWidth: 0
GlyphClass: 3
Flags: HW
LayerCount: 2
Fore
SplineSet
-704 -170 m 1
 -680 -118 -614 -76 -557 -76 c 0
 -504 -76 -441 -114 -415 -160 c 1
 -389 -114 -326 -76 -273 -76 c 0
 -183 -76 -110 -148 -110 -238 c 0
 -110 -328 -183 -401 -273 -401 c 0
 -326 -401 -389 -363 -415 -317 c 1
 -441 -363 -504 -401 -557 -401 c 0
 -609 -401 -672 -365 -698 -320 c 1
 -672 -293 -620 -271 -582 -271 c 0
 -544 -271 -492 -293 -466 -320 c 1
 -449 -301 -435 -264 -435 -238 c 0
 -435 -171 -490 -117 -557 -117 c 0
 -600 -117 -650 -148 -668 -187 c 1
 -704 -170 l 1
-648 -320 m 1
 -628 -342 -587 -360 -557 -360 c 0
 -535 -360 -503 -350 -485 -337 c 1
 -505 -315 -546 -296 -576 -296 c 0
 -598 -296 -630 -307 -648 -320 c 1
-395 -238 m 2
 -395 -305 -340 -360 -273 -360 c 0
 -206 -360 -151 -305 -151 -238 c 0
 -151 -171 -206 -116 -273 -116 c 0
 -340 -116 -395 -171 -395 -238 c 2
 -395 -238 l 2
40 349 m 1
 90 349 l 1
 90 -401 l 1
 40 -401 l 1
 40 349 l 1
190 349 m 1
 240 349 l 1
 240 -326 l 2
 240 -340 251 -351 265 -351 c 2
 315 -351 l 1
 315 -401 l 1
 265 -401 l 2
 224 -401 190 -367 190 -326 c 2
 190 349 l 1
EndSplineSet
Validated: 5
Ligature2: "medialLigSub" u1039 u1006 u1030
EndChar

StartChar: u1039_u1007
Encoding: 65575 -1 217
Width: 1
VWidth: 0
GlyphClass: 3
Flags: HW
LayerCount: 2
Fore
SplineSet
-125 -124 m 1
 -123 -126 l 1
 -103 -143 -86 -177 -86 -204 c 0
 -86 -259 -131 -305 -187 -306 c 0
 -187 -306 l 0
 -208 -306 -237 -295 -253 -282 c 0
 -267 -270 -279 -245 -279 -227 c 0
 -279 -188 -247 -156 -208 -156 c 0
 -194 -156 -173 -164 -162 -173 c 1
 -70 -282 l 1
 -102 -308 l 1
 -193 -199 l 1
 -198 -195 -207 -192 -213 -192 c 0
 -230 -192 -243 -205 -243 -222 c 0
 -243 -230 -238 -241 -232 -246 c 0
 -223 -254 -205 -260 -193 -260 c 0
 -159 -260 -132 -232 -132 -199 c 0
 -132 -183 -142 -162 -154 -152 c 1
 -174 -132 -212 -117 -240 -117 c 0
 -307 -117 -362 -171 -362 -238 c 0
 -362 -305 -307 -360 -240 -360 c 0
 -212 -360 -174 -345 -154 -325 c 1
 -125 -353 l 1
 -151 -379 -203 -401 -240 -401 c 0
 -330 -401 -402 -328 -402 -238 c 0
 -402 -148 -330 -76 -240 -76 c 0
 -203 -76 -151 -98 -125 -124 c 1
EndSplineSet
Validated: 5
Ligature2: "medialLigSub" u1039 u1007
EndChar

StartChar: u1039_u1007_u102f
Encoding: 65576 -1 218
Width: 180
VWidth: 0
GlyphClass: 3
Flags: HW
LayerCount: 2
Fore
SplineSet
-125 -124 m 1
 -123 -126 l 1
 -103 -143 -86 -177 -86 -204 c 0
 -86 -259 -131 -305 -187 -306 c 0
 -187 -306 l 0
 -208 -306 -237 -295 -253 -282 c 0
 -267 -270 -279 -245 -279 -227 c 0
 -279 -188 -247 -156 -208 -156 c 0
 -194 -156 -173 -164 -162 -173 c 1
 -70 -282 l 1
 -102 -308 l 1
 -193 -199 l 1
 -198 -195 -207 -192 -213 -192 c 0
 -230 -192 -243 -205 -243 -222 c 0
 -243 -230 -238 -241 -232 -246 c 0
 -223 -254 -205 -260 -193 -260 c 0
 -159 -260 -132 -232 -132 -199 c 0
 -132 -183 -142 -162 -154 -152 c 1
 -174 -132 -212 -117 -240 -117 c 0
 -307 -117 -362 -171 -362 -238 c 0
 -362 -305 -307 -360 -240 -360 c 0
 -212 -360 -174 -345 -154 -325 c 1
 -125 -353 l 1
 -151 -379 -203 -401 -240 -401 c 0
 -330 -401 -402 -328 -402 -238 c 0
 -402 -148 -330 -76 -240 -76 c 0
 -203 -76 -151 -98 -125 -124 c 1
40 349 m 1
 90 349 l 1
 90 -326 l 2
 90 -340 101 -351 115 -351 c 2
 165 -351 l 1
 165 -401 l 1
 115 -401 l 2
 74 -401 40 -367 40 -326 c 2
 40 349 l 1
EndSplineSet
Validated: 5
Ligature2: "medialLigSub" u1039 u1007 u102f
EndChar

StartChar: u1039_u1007_u102d_u102f
Encoding: 65577 -1 219
Width: 180
VWidth: 0
GlyphClass: 3
Flags: HW
LayerCount: 2
Fore
SplineSet
-125 -124 m 1
 -123 -126 l 1
 -103 -143 -86 -177 -86 -204 c 0
 -86 -259 -131 -305 -187 -306 c 0
 -187 -306 l 0
 -208 -306 -237 -295 -253 -282 c 0
 -267 -270 -279 -245 -279 -227 c 0
 -279 -188 -247 -156 -208 -156 c 0
 -194 -156 -173 -164 -162 -173 c 1
 -70 -282 l 1
 -102 -308 l 1
 -193 -199 l 1
 -198 -195 -207 -192 -213 -192 c 0
 -230 -192 -243 -205 -243 -222 c 0
 -243 -230 -238 -241 -232 -246 c 0
 -223 -254 -205 -260 -193 -260 c 0
 -159 -260 -132 -232 -132 -199 c 0
 -132 -183 -142 -162 -154 -152 c 1
 -174 -132 -212 -117 -240 -117 c 0
 -307 -117 -362 -171 -362 -238 c 0
 -362 -305 -307 -360 -240 -360 c 0
 -212 -360 -174 -345 -154 -325 c 1
 -125 -353 l 1
 -151 -379 -203 -401 -240 -401 c 0
 -330 -401 -402 -328 -402 -238 c 0
 -402 -148 -330 -76 -240 -76 c 0
 -203 -76 -151 -98 -125 -124 c 1
-240 374 m 2
 -241 374 l 2
 -307 374 -360 428 -360 494 c 0
 -360 560 -306 614 -240 614 c 0
 -174 614 -120 560 -120 494 c 0
 -120 428 -174 374 -240 374 c 2
-241 404 m 2
 -240 404 l 2
 -191 404 -150 445 -150 494 c 0
 -150 544 -190 584 -240 584 c 0
 -290 584 -330 544 -330 494 c 0
 -330 445 -290 404 -241 404 c 2
40 349 m 1
 90 349 l 1
 90 -326 l 2
 90 -340 101 -351 115 -351 c 2
 165 -351 l 1
 165 -401 l 1
 115 -401 l 2
 74 -401 40 -367 40 -326 c 2
 40 349 l 1
EndSplineSet
Validated: 5
Ligature2: "medialLigSub" u1039 u1007 u102d u102f
EndChar

StartChar: u1039_u1007_u1030
Encoding: 65578 -1 220
Width: 330
VWidth: 0
GlyphClass: 3
Flags: HW
LayerCount: 2
Fore
SplineSet
-125 -124 m 1
 -123 -126 l 1
 -103 -143 -86 -177 -86 -204 c 0
 -86 -259 -131 -305 -187 -306 c 0
 -187 -306 l 0
 -208 -306 -237 -295 -253 -282 c 0
 -267 -270 -279 -245 -279 -227 c 0
 -279 -188 -247 -156 -208 -156 c 0
 -194 -156 -173 -164 -162 -173 c 1
 -70 -282 l 1
 -102 -308 l 1
 -193 -199 l 1
 -198 -195 -207 -192 -213 -192 c 0
 -230 -192 -243 -205 -243 -222 c 0
 -243 -230 -238 -241 -232 -246 c 0
 -223 -254 -205 -260 -193 -260 c 0
 -159 -260 -132 -232 -132 -199 c 0
 -132 -183 -142 -162 -154 -152 c 1
 -174 -132 -212 -117 -240 -117 c 0
 -307 -117 -362 -171 -362 -238 c 0
 -362 -305 -307 -360 -240 -360 c 0
 -212 -360 -174 -345 -154 -325 c 1
 -125 -353 l 1
 -151 -379 -203 -401 -240 -401 c 0
 -330 -401 -402 -328 -402 -238 c 0
 -402 -148 -330 -76 -240 -76 c 0
 -203 -76 -151 -98 -125 -124 c 1
40 349 m 1
 90 349 l 1
 90 -401 l 1
 40 -401 l 1
 40 349 l 1
190 349 m 1
 240 349 l 1
 240 -326 l 2
 240 -340 251 -351 265 -351 c 2
 315 -351 l 1
 315 -401 l 1
 265 -401 l 2
 224 -401 190 -367 190 -326 c 2
 190 349 l 1
EndSplineSet
Validated: 5
Ligature2: "medialLigSub" u1039 u1007 u1030
EndChar

StartChar: u1039_u1008
Encoding: 65579 -1 221
Width: 121
VWidth: 0
GlyphClass: 3
Flags: HW
LayerCount: 2
Fore
SplineSet
-99 -319 m 1
 -125 -364 -188 -401 -240 -401 c 0
 -330 -401 -402 -328 -402 -238 c 0
 -402 -148 -330 -76 -240 -76 c 0
 -150 -76 -78 -148 -78 -238 c 0
 -78 -250 -80 -269 -83 -281 c 1
 5 -318 l 2
 8 -319 11 -320 14 -320 c 0
 28 -320 39 -309 39 -295 c 2
 39 349 l 1
 80 349 l 1
 80 -356 l 2
 80 -370 69 -381 55 -381 c 0
 52 -381 49 -380 46 -379 c 2
 -99 -319 l 1
-287 -126 m 1
 -262 -152 -242 -202 -242 -238 c 0
 -242 -274 -262 -325 -287 -351 c 1
 -275 -356 -254 -360 -240 -360 c 0
 -173 -360 -118 -305 -118 -238 c 0
 -118 -171 -173 -117 -240 -117 c 0
 -254 -117 -275 -121 -287 -126 c 1
-321 -148 m 1
 -343 -168 -362 -208 -362 -238 c 0
 -362 -268 -343 -309 -321 -329 c 1
 -299 -309 -281 -268 -281 -238 c 0
 -281 -208 -299 -168 -321 -148 c 1
EndSplineSet
Validated: 1
Ligature2: "medialLigSub" u1039 u1008
EndChar

StartChar: u1039_u100b
Encoding: 65580 -1 222
Width: 1
VWidth: 0
GlyphClass: 3
Flags: HW
LayerCount: 2
Fore
SplineSet
-161 -126 m 1
 -181 -135 l 1
 -191 -114 -217 -98 -240 -98 c 0
 -276 -98 -305 -127 -305 -163 c 0
 -305 -199 -276 -228 -240 -228 c 0
 -227 -228 -208 -220 -198 -212 c 0
 -194 -208 -186 -206 -181 -206 c 0
 -166 -206 -153 -218 -153 -233 c 0
 -153 -240 -158 -249 -163 -254 c 2
 -184 -272 l 2
 -197 -283 -223 -292 -240 -292 c 0
 -257 -292 -283 -283 -296 -272 c 0
 -297 -271 -298 -271 -299 -271 c 0
 -302 -271 -305 -273 -305 -276 c 0
 -305 -277 -304 -280 -303 -281 c 2
 -282 -299 l 2
 -272 -307 -253 -314 -240 -314 c 0
 -227 -314 -208 -307 -198 -299 c 0
 -194 -295 -186 -292 -181 -292 c 0
 -166 -292 -153 -304 -153 -319 c 2
 -153 -341 l 2
 -153 -347 -148 -352 -142 -352 c 1
 -142 -352 l 1
 -142 -374 l 1
 -142 -374 l 1
 -160 -374 -175 -359 -175 -341 c 2
 -175 -319 l 2
 -175 -316 -178 -314 -181 -314 c 0
 -182 -314 -183 -314 -184 -315 c 0
 -197 -326 -223 -335 -240 -335 c 0
 -257 -335 -283 -326 -296 -315 c 2
 -317 -297 l 2
 -322 -292 -327 -283 -327 -276 c 0
 -327 -261 -314 -249 -299 -249 c 0
 -294 -249 -286 -252 -282 -256 c 0
 -272 -264 -253 -271 -240 -271 c 0
 -227 -271 -208 -264 -198 -256 c 2
 -177 -238 l 2
 -176 -237 -175 -234 -175 -233 c 0
 -175 -230 -178 -228 -181 -228 c 0
 -182 -228 -183 -228 -184 -229 c 0
 -197 -240 -223 -249 -240 -249 c 0
 -288 -249 -327 -211 -327 -163 c 0
 -327 -115 -288 -76 -240 -76 c 0
 -210 -76 -174 -98 -161 -126 c 1
EndSplineSet
Validated: 5
Ligature2: "medialLigSub" u1039 u100b
EndChar

StartChar: u1039_u100c
Encoding: 65581 -1 223
Width: 1
VWidth: 0
GlyphClass: 3
Flags: HW
LayerCount: 2
Fore
SplineSet
-134 -386 m 1
 -151 -349 l 1
 -112 -331 -81 -281 -81 -238 c 0
 -81 -171 -135 -117 -202 -117 c 0
 -269 -117 -324 -171 -324 -238 c 0
 -324 -262 -312 -298 -296 -317 c 0
 -289 -325 -284 -340 -284 -350 c 0
 -284 -378 -307 -401 -335 -401 c 2
 -588 -401 l 2
 -622 -401 -649 -374 -649 -340 c 2
 -649 -238 l 1
 -649 -137 l 2
 -649 -103 -622 -76 -588 -76 c 1
 -588 -76 l 1
 -588 -117 l 1
 -588 -117 l 1
 -599 -117 -609 -126 -609 -137 c 2
 -609 -238 l 1
 -609 -340 l 2
 -609 -351 -599 -360 -588 -360 c 2
 -335 -360 l 2
 -329 -360 -325 -356 -325 -350 c 0
 -325 -348 -326 -345 -327 -343 c 0
 -348 -318 -365 -271 -365 -238 c 0
 -365 -148 -292 -76 -202 -76 c 0
 -112 -76 -40 -148 -40 -238 c 0
 -40 -295 -82 -362 -134 -386 c 1
EndSplineSet
Validated: 5
Ligature2: "medialLigSub" u1039 u100c
EndChar

StartChar: u1039_u100d
Encoding: 65582 -1 224
Width: 1
VWidth: 0
GlyphClass: 3
Flags: HW
LayerCount: 2
Fore
SplineSet
-319 -126 m 1
 -306 -98 -270 -76 -240 -76 c 0
 -192 -76 -153 -115 -153 -163 c 0
 -153 -211 -192 -249 -240 -249 c 0
 -257 -249 -283 -240 -296 -229 c 0
 -297 -228 -298 -228 -299 -228 c 0
 -302 -228 -305 -230 -305 -233 c 0
 -305 -234 -304 -237 -303 -238 c 2
 -282 -256 l 2
 -272 -264 -253 -271 -240 -271 c 0
 -227 -271 -208 -264 -198 -256 c 0
 -194 -252 -186 -249 -181 -249 c 0
 -166 -249 -153 -261 -153 -276 c 2
 -153 -385 l 2
 -153 -391 -148 -396 -142 -396 c 1
 -142 -396 l 1
 -142 -417 l 1
 -142 -417 l 1
 -160 -417 -175 -403 -175 -385 c 2
 -175 -276 l 2
 -175 -273 -178 -271 -181 -271 c 0
 -182 -271 -183 -271 -184 -272 c 0
 -197 -283 -223 -292 -240 -292 c 0
 -257 -292 -283 -283 -296 -272 c 2
 -317 -254 l 2
 -322 -249 -327 -240 -327 -233 c 0
 -327 -218 -314 -206 -299 -206 c 0
 -294 -206 -286 -208 -282 -212 c 0
 -272 -220 -253 -228 -240 -228 c 0
 -204 -228 -175 -199 -175 -163 c 0
 -175 -127 -204 -98 -240 -98 c 0
 -263 -98 -289 -114 -299 -135 c 1
 -319 -126 l 1
EndSplineSet
Validated: 5
Ligature2: "medialLigSub" u1039 u100d
EndChar

StartChar: u1039_u100e
Encoding: 65583 -1 225
Width: 1
VWidth: 0
GlyphClass: 3
Flags: HW
LayerCount: 2
Fore
SplineSet
-171 -91 m 0
 -119 -115 -78 -181 -78 -238 c 0
 -78 -328 -150 -401 -240 -401 c 0
 -330 -401 -402 -328 -402 -238 c 0
 -402 -205 -385 -159 -364 -134 c 0
 -363 -132 -362 -129 -362 -127 c 0
 -362 -121 -367 -117 -373 -117 c 0
 -376 -117 -379 -118 -381 -120 c 1
 -412 -94 l 1
 -404 -84 -386 -76 -373 -76 c 0
 -345 -76 -321 -99 -321 -127 c 0
 -321 -137 -326 -152 -333 -160 c 0
 -349 -179 -362 -214 -362 -238 c 0
 -362 -305 -307 -360 -240 -360 c 0
 -173 -360 -118 -305 -118 -238 c 0
 -118 -195 -149 -146 -188 -128 c 1
 -171 -91 l 0
EndSplineSet
Validated: 1
Ligature2: "medialLigSub" u1039 u100e
EndChar

StartChar: u1039_u100e_u102f
Encoding: 65584 -1 226
Width: 180
VWidth: 0
GlyphClass: 3
Flags: HW
LayerCount: 2
Fore
SplineSet
-171 -91 m 0
 -119 -115 -78 -181 -78 -238 c 0
 -78 -328 -150 -401 -240 -401 c 0
 -330 -401 -402 -328 -402 -238 c 0
 -402 -205 -385 -159 -364 -134 c 0
 -363 -132 -362 -129 -362 -127 c 0
 -362 -121 -367 -117 -373 -117 c 0
 -376 -117 -379 -118 -381 -120 c 1
 -412 -94 l 1
 -404 -84 -386 -76 -373 -76 c 0
 -345 -76 -321 -99 -321 -127 c 0
 -321 -137 -326 -152 -333 -160 c 0
 -349 -179 -362 -214 -362 -238 c 0
 -362 -305 -307 -360 -240 -360 c 0
 -173 -360 -118 -305 -118 -238 c 0
 -118 -195 -149 -146 -188 -128 c 1
 -171 -91 l 0
40 349 m 1
 90 349 l 1
 90 -326 l 2
 90 -340 101 -351 115 -351 c 2
 165 -351 l 1
 165 -401 l 1
 115 -401 l 2
 74 -401 40 -367 40 -326 c 2
 40 349 l 1
EndSplineSet
Validated: 1
Ligature2: "medialLigSub" u1039 u100e u102f
EndChar

StartChar: u1039_u100e_u102d_u102f
Encoding: 65585 -1 227
Width: 180
VWidth: 0
GlyphClass: 3
Flags: HW
LayerCount: 2
Fore
SplineSet
-171 -91 m 0
 -119 -115 -78 -181 -78 -238 c 0
 -78 -328 -150 -401 -240 -401 c 0
 -330 -401 -402 -328 -402 -238 c 0
 -402 -205 -385 -159 -364 -134 c 0
 -363 -132 -362 -129 -362 -127 c 0
 -362 -121 -367 -117 -373 -117 c 0
 -376 -117 -379 -118 -381 -120 c 1
 -412 -94 l 1
 -404 -84 -386 -76 -373 -76 c 0
 -345 -76 -321 -99 -321 -127 c 0
 -321 -137 -326 -152 -333 -160 c 0
 -349 -179 -362 -214 -362 -238 c 0
 -362 -305 -307 -360 -240 -360 c 0
 -173 -360 -118 -305 -118 -238 c 0
 -118 -195 -149 -146 -188 -128 c 1
 -171 -91 l 0
-240 374 m 2
 -241 374 l 2
 -307 374 -360 428 -360 494 c 0
 -360 560 -306 614 -240 614 c 0
 -174 614 -120 560 -120 494 c 0
 -120 428 -174 374 -240 374 c 2
-241 404 m 2
 -240 404 l 2
 -191 404 -150 445 -150 494 c 0
 -150 544 -190 584 -240 584 c 0
 -290 584 -330 544 -330 494 c 0
 -330 445 -290 404 -241 404 c 2
40 349 m 1
 90 349 l 1
 90 -326 l 2
 90 -340 101 -351 115 -351 c 2
 165 -351 l 1
 165 -401 l 1
 115 -401 l 2
 74 -401 40 -367 40 -326 c 2
 40 349 l 1
EndSplineSet
Validated: 1
Ligature2: "medialLigSub" u1039 u100e u102d u102f
EndChar

StartChar: u1039_u100e_u1030
Encoding: 65586 -1 228
Width: 330
VWidth: 0
GlyphClass: 3
Flags: HW
LayerCount: 2
Fore
SplineSet
-171 -91 m 0
 -119 -115 -78 -181 -78 -238 c 0
 -78 -328 -150 -401 -240 -401 c 0
 -330 -401 -402 -328 -402 -238 c 0
 -402 -205 -385 -159 -364 -134 c 0
 -363 -132 -362 -129 -362 -127 c 0
 -362 -121 -367 -117 -373 -117 c 0
 -376 -117 -379 -118 -381 -120 c 1
 -412 -94 l 1
 -404 -84 -386 -76 -373 -76 c 0
 -345 -76 -321 -99 -321 -127 c 0
 -321 -137 -326 -152 -333 -160 c 0
 -349 -179 -362 -214 -362 -238 c 0
 -362 -305 -307 -360 -240 -360 c 0
 -173 -360 -118 -305 -118 -238 c 0
 -118 -195 -149 -146 -188 -128 c 1
 -171 -91 l 0
40 349 m 1
 90 349 l 1
 90 -401 l 1
 40 -401 l 1
 40 349 l 1
190 349 m 1
 240 349 l 1
 240 -326 l 2
 240 -340 251 -351 265 -351 c 2
 315 -351 l 1
 315 -401 l 1
 265 -401 l 2
 224 -401 190 -367 190 -326 c 2
 190 349 l 1
EndSplineSet
Validated: 1
Ligature2: "medialLigSub" u1039 u100e u1030
EndChar

StartChar: u1039_u100f
Encoding: 65587 -1 229
Width: 1
VWidth: 0
GlyphClass: 3
Flags: HW
LayerCount: 2
Fore
SplineSet
-347 -149 m 1
 -320 -109 -260 -76 -212 -76 c 0
 -122 -76 -49 -148 -49 -238 c 0
 -49 -328 -122 -401 -212 -401 c 1
 -212 -360 l 1
 -145 -360 -90 -305 -90 -238 c 0
 -90 -171 -145 -117 -212 -117 c 0
 -279 -117 -334 -171 -334 -238 c 0
 -334 -328 -370 -401 -415 -401 c 0
 -460 -401 -496 -328 -496 -238 c 0
 -496 -171 -551 -117 -618 -117 c 0
 -685 -117 -740 -171 -740 -238 c 0
 -740 -305 -685 -360 -618 -360 c 1
 -618 -401 l 1
 -708 -401 -781 -328 -781 -238 c 0
 -781 -148 -708 -76 -618 -76 c 0
 -570 -76 -510 -109 -483 -149 c 1
 -470 -109 -439 -76 -415 -76 c 0
 -391 -76 -360 -109 -347 -149 c 1
-415 -117 m 2
 -437 -118 -455 -171 -455 -238 c 0
 -455 -305 -437 -360 -415 -360 c 0
 -393 -360 -374 -305 -374 -238 c 0
 -374 -171 -392 -118 -414 -117 c 2
 -415 -117 l 2
EndSplineSet
Validated: 1
Ligature2: "medialLigSub" u1039 u100f
EndChar

StartChar: u1039_u100f_u102f
Encoding: 65588 -1 230
Width: 180
VWidth: 0
GlyphClass: 3
Flags: HW
LayerCount: 2
Fore
SplineSet
-300 -149 m 1
 -273 -109 -213 -76 -165 -76 c 0
 -75 -76 -2 -148 -2 -238 c 0
 -2 -328 -75 -401 -165 -401 c 1
 -165 -360 l 1
 -98 -360 -43 -305 -43 -238 c 0
 -43 -171 -98 -117 -165 -117 c 0
 -232 -117 -287 -171 -287 -238 c 0
 -287 -328 -323 -401 -368 -401 c 0
 -413 -401 -449 -328 -449 -238 c 0
 -449 -171 -504 -117 -571 -117 c 0
 -638 -117 -693 -171 -693 -238 c 0
 -693 -305 -638 -360 -571 -360 c 1
 -571 -401 l 1
 -661 -401 -734 -328 -734 -238 c 0
 -734 -148 -661 -76 -571 -76 c 0
 -523 -76 -463 -109 -436 -149 c 1
 -423 -109 -392 -76 -368 -76 c 0
 -344 -76 -313 -109 -300 -149 c 1
-368 -117 m 2
 -390 -118 -408 -171 -408 -238 c 0
 -408 -305 -390 -360 -368 -360 c 0
 -346 -360 -327 -305 -327 -238 c 0
 -327 -171 -345 -118 -367 -117 c 2
 -368 -117 l 2
40 349 m 1
 90 349 l 1
 90 -326 l 2
 90 -340 101 -351 115 -351 c 2
 165 -351 l 1
 165 -401 l 1
 115 -401 l 2
 74 -401 40 -367 40 -326 c 2
 40 349 l 1
EndSplineSet
Validated: 1
Ligature2: "medialLigSub" u1039 u100f u102f
EndChar

StartChar: u1039_u100f_u102d_u102f
Encoding: 65589 -1 231
Width: 180
VWidth: 0
GlyphClass: 3
Flags: HW
LayerCount: 2
Fore
SplineSet
-300 -149 m 1
 -273 -109 -213 -76 -165 -76 c 0
 -75 -76 -2 -148 -2 -238 c 0
 -2 -328 -75 -401 -165 -401 c 1
 -165 -360 l 1
 -98 -360 -43 -305 -43 -238 c 0
 -43 -171 -98 -117 -165 -117 c 0
 -232 -117 -287 -171 -287 -238 c 0
 -287 -328 -323 -401 -368 -401 c 0
 -413 -401 -449 -328 -449 -238 c 0
 -449 -171 -504 -117 -571 -117 c 0
 -638 -117 -693 -171 -693 -238 c 0
 -693 -305 -638 -360 -571 -360 c 1
 -571 -401 l 1
 -661 -401 -734 -328 -734 -238 c 0
 -734 -148 -661 -76 -571 -76 c 0
 -523 -76 -463 -109 -436 -149 c 1
 -423 -109 -392 -76 -368 -76 c 0
 -344 -76 -313 -109 -300 -149 c 1
-368 -117 m 2
 -390 -118 -408 -171 -408 -238 c 0
 -408 -305 -390 -360 -368 -360 c 0
 -346 -360 -327 -305 -327 -238 c 0
 -327 -171 -345 -118 -367 -117 c 2
 -368 -117 l 2
-240 374 m 2
 -241 374 l 2
 -307 374 -360 428 -360 494 c 0
 -360 560 -306 614 -240 614 c 0
 -174 614 -120 560 -120 494 c 0
 -120 428 -174 374 -240 374 c 2
-241 404 m 2
 -240 404 l 2
 -191 404 -150 445 -150 494 c 0
 -150 544 -190 584 -240 584 c 0
 -290 584 -330 544 -330 494 c 0
 -330 445 -290 404 -241 404 c 2
40 349 m 1
 90 349 l 1
 90 -326 l 2
 90 -340 101 -351 115 -351 c 2
 165 -351 l 1
 165 -401 l 1
 115 -401 l 2
 74 -401 40 -367 40 -326 c 2
 40 349 l 1
EndSplineSet
Validated: 1
Ligature2: "medialLigSub" u1039 u100f u102d u102f
EndChar

StartChar: u1039_u100f_u1030
Encoding: 65590 -1 232
Width: 330
VWidth: 0
GlyphClass: 3
Flags: HW
LayerCount: 2
Fore
SplineSet
-300 -149 m 1
 -273 -109 -213 -76 -165 -76 c 0
 -75 -76 -2 -148 -2 -238 c 0
 -2 -328 -75 -401 -165 -401 c 1
 -165 -360 l 1
 -98 -360 -43 -305 -43 -238 c 0
 -43 -171 -98 -117 -165 -117 c 0
 -232 -117 -287 -171 -287 -238 c 0
 -287 -328 -323 -401 -368 -401 c 0
 -413 -401 -449 -328 -449 -238 c 0
 -449 -171 -504 -117 -571 -117 c 0
 -638 -117 -693 -171 -693 -238 c 0
 -693 -305 -638 -360 -571 -360 c 1
 -571 -401 l 1
 -661 -401 -734 -328 -734 -238 c 0
 -734 -148 -661 -76 -571 -76 c 0
 -523 -76 -463 -109 -436 -149 c 1
 -423 -109 -392 -76 -368 -76 c 0
 -344 -76 -313 -109 -300 -149 c 1
-368 -117 m 2
 -390 -118 -408 -171 -408 -238 c 0
 -408 -305 -390 -360 -368 -360 c 0
 -346 -360 -327 -305 -327 -238 c 0
 -327 -171 -345 -118 -367 -117 c 2
 -368 -117 l 2
40 349 m 1
 90 349 l 1
 90 -401 l 1
 40 -401 l 1
 40 349 l 1
190 349 m 1
 240 349 l 1
 240 -326 l 2
 240 -340 251 -351 265 -351 c 2
 315 -351 l 1
 315 -401 l 1
 265 -401 l 2
 224 -401 190 -367 190 -326 c 2
 190 349 l 1
EndSplineSet
Validated: 1
Ligature2: "medialLigSub" u1039 u100f u1030
EndChar

StartChar: u1039_u1010
Encoding: 65591 -1 233
Width: 1
VWidth: 0
GlyphClass: 3
Flags: HW
LayerCount: 2
Fore
SplineSet
-415 -160 m 1
 -389 -114 -326 -76 -273 -76 c 0
 -183 -76 -110 -148 -110 -238 c 0
 -110 -328 -183 -401 -273 -401 c 1
 -273 -360 l 1
 -206 -360 -151 -305 -151 -238 c 0
 -151 -171 -206 -117 -273 -117 c 0
 -340 -117 -395 -171 -395 -238 c 0
 -395 -328 -467 -401 -557 -401 c 0
 -647 -401 -720 -328 -720 -238 c 0
 -720 -148 -647 -76 -557 -76 c 0
 -504 -76 -441 -114 -415 -160 c 1
-435 -238 m 2
 -435 -171 -490 -117 -557 -117 c 0
 -624 -117 -679 -172 -679 -239 c 0
 -679 -306 -624 -361 -557 -361 c 0
 -490 -361 -435 -306 -435 -239 c 2
 -435 -238 l 2
-395 -238 m 0
EndSplineSet
Validated: 1
Ligature2: "medialLigSub" u1039 u1010
EndChar

StartChar: u1039_u1010_u102f
Encoding: 65592 -1 234
Width: 180
VWidth: 0
GlyphClass: 3
Flags: HW
LayerCount: 2
Fore
SplineSet
-415 -160 m 1
 -389 -114 -326 -76 -273 -76 c 0
 -183 -76 -110 -148 -110 -238 c 0
 -110 -328 -183 -401 -273 -401 c 1
 -273 -360 l 1
 -206 -360 -151 -305 -151 -238 c 0
 -151 -171 -206 -117 -273 -117 c 0
 -340 -117 -395 -171 -395 -238 c 0
 -395 -328 -467 -401 -557 -401 c 0
 -647 -401 -720 -328 -720 -238 c 0
 -720 -148 -647 -76 -557 -76 c 0
 -504 -76 -441 -114 -415 -160 c 1
-435 -238 m 2
 -435 -171 -490 -117 -557 -117 c 0
 -624 -117 -679 -172 -679 -239 c 0
 -679 -306 -624 -361 -557 -361 c 0
 -490 -361 -435 -306 -435 -239 c 2
 -435 -238 l 2
-395 -238 m 0
40 349 m 1
 90 349 l 1
 90 -326 l 2
 90 -340 101 -351 115 -351 c 2
 165 -351 l 1
 165 -401 l 1
 115 -401 l 2
 74 -401 40 -367 40 -326 c 2
 40 349 l 1
EndSplineSet
Validated: 1
Ligature2: "medialLigSub" u1039 u1010 u102f
EndChar

StartChar: u1039_u1010_u102d_u102f
Encoding: 65593 -1 235
Width: 180
VWidth: 0
GlyphClass: 3
Flags: HW
LayerCount: 2
Fore
SplineSet
-415 -160 m 1
 -389 -114 -326 -76 -273 -76 c 0
 -183 -76 -110 -148 -110 -238 c 0
 -110 -328 -183 -401 -273 -401 c 1
 -273 -360 l 1
 -206 -360 -151 -305 -151 -238 c 0
 -151 -171 -206 -117 -273 -117 c 0
 -340 -117 -395 -171 -395 -238 c 0
 -395 -328 -467 -401 -557 -401 c 0
 -647 -401 -720 -328 -720 -238 c 0
 -720 -148 -647 -76 -557 -76 c 0
 -504 -76 -441 -114 -415 -160 c 1
-435 -238 m 2
 -435 -171 -490 -117 -557 -117 c 0
 -624 -117 -679 -172 -679 -239 c 0
 -679 -306 -624 -361 -557 -361 c 0
 -490 -361 -435 -306 -435 -239 c 2
 -435 -238 l 2
-395 -238 m 0
-240 374 m 2
 -241 374 l 2
 -307 374 -360 428 -360 494 c 0
 -360 560 -306 614 -240 614 c 0
 -174 614 -120 560 -120 494 c 0
 -120 428 -174 374 -240 374 c 2
-241 404 m 2
 -240 404 l 2
 -191 404 -150 445 -150 494 c 0
 -150 544 -190 584 -240 584 c 0
 -290 584 -330 544 -330 494 c 0
 -330 445 -290 404 -241 404 c 2
40 349 m 1
 90 349 l 1
 90 -326 l 2
 90 -340 101 -351 115 -351 c 2
 165 -351 l 1
 165 -401 l 1
 115 -401 l 2
 74 -401 40 -367 40 -326 c 2
 40 349 l 1
EndSplineSet
Validated: 1
Ligature2: "medialLigSub" u1039 u1010 u102d u102f
EndChar

StartChar: u1039_u1010_u1030
Encoding: 65594 -1 236
Width: 330
VWidth: 0
GlyphClass: 3
Flags: HW
LayerCount: 2
Fore
SplineSet
-415 -160 m 1
 -389 -114 -326 -76 -273 -76 c 0
 -183 -76 -110 -148 -110 -238 c 0
 -110 -328 -183 -401 -273 -401 c 1
 -273 -360 l 1
 -206 -360 -151 -305 -151 -238 c 0
 -151 -171 -206 -117 -273 -117 c 0
 -340 -117 -395 -171 -395 -238 c 0
 -395 -328 -467 -401 -557 -401 c 0
 -647 -401 -720 -328 -720 -238 c 0
 -720 -148 -647 -76 -557 -76 c 0
 -504 -76 -441 -114 -415 -160 c 1
-435 -238 m 2
 -435 -171 -490 -117 -557 -117 c 0
 -624 -117 -679 -172 -679 -239 c 0
 -679 -306 -624 -361 -557 -361 c 0
 -490 -361 -435 -306 -435 -239 c 2
 -435 -238 l 2
-395 -238 m 0
40 349 m 1
 90 349 l 1
 90 -401 l 1
 40 -401 l 1
 40 349 l 1
190 349 m 1
 240 349 l 1
 240 -326 l 2
 240 -340 251 -351 265 -351 c 2
 315 -351 l 1
 315 -401 l 1
 265 -401 l 2
 224 -401 190 -367 190 -326 c 2
 190 349 l 1
EndSplineSet
Validated: 1
Ligature2: "medialLigSub" u1039 u1010 u1030
EndChar

StartChar: u1039_u1011
Encoding: 65595 -1 237
Width: 1
VWidth: 0
GlyphClass: 3
Flags: HW
LayerCount: 2
Fore
SplineSet
-415 -160 m 1
 -389 -114 -326 -76 -273 -76 c 0
 -183 -76 -110 -148 -110 -238 c 0
 -110 -328 -183 -401 -273 -401 c 0
 -326 -401 -389 -363 -415 -317 c 1
 -441 -363 -504 -401 -557 -401 c 0
 -647 -401 -720 -328 -720 -238 c 0
 -720 -148 -647 -76 -557 -76 c 0
 -504 -76 -441 -114 -415 -160 c 1
-435 -238 m 2
 -435 -171 -490 -117 -557 -117 c 0
 -624 -117 -679 -172 -679 -239 c 0
 -679 -306 -624 -361 -557 -361 c 0
 -490 -361 -435 -306 -435 -239 c 2
 -435 -238 l 2
-395 -238 m 2
 -395 -305 -340 -360 -273 -360 c 0
 -206 -360 -151 -305 -151 -238 c 0
 -151 -171 -206 -116 -273 -116 c 0
 -340 -116 -395 -171 -395 -238 c 2
 -395 -238 l 2
EndSplineSet
Validated: 5
Ligature2: "medialLigSub" u1039 u1011
EndChar

StartChar: u1039_u1011_u102f
Encoding: 65596 -1 238
Width: 180
VWidth: 0
GlyphClass: 3
Flags: HW
LayerCount: 2
Fore
SplineSet
-415 -160 m 1
 -389 -114 -326 -76 -273 -76 c 0
 -183 -76 -110 -148 -110 -238 c 0
 -110 -328 -183 -401 -273 -401 c 0
 -326 -401 -389 -363 -415 -317 c 1
 -441 -363 -504 -401 -557 -401 c 0
 -647 -401 -720 -328 -720 -238 c 0
 -720 -148 -647 -76 -557 -76 c 0
 -504 -76 -441 -114 -415 -160 c 1
-435 -238 m 2
 -435 -171 -490 -117 -557 -117 c 0
 -624 -117 -679 -172 -679 -239 c 0
 -679 -306 -624 -361 -557 -361 c 0
 -490 -361 -435 -306 -435 -239 c 2
 -435 -238 l 2
-395 -238 m 2
 -395 -305 -340 -360 -273 -360 c 0
 -206 -360 -151 -305 -151 -238 c 0
 -151 -171 -206 -116 -273 -116 c 0
 -340 -116 -395 -171 -395 -238 c 2
 -395 -238 l 2
40 349 m 1
 90 349 l 1
 90 -326 l 2
 90 -340 101 -351 115 -351 c 2
 165 -351 l 1
 165 -401 l 1
 115 -401 l 2
 74 -401 40 -367 40 -326 c 2
 40 349 l 1
EndSplineSet
Validated: 5
Ligature2: "medialLigSub" u1039 u1011 u102f
EndChar

StartChar: u1039_u1011_u102d_u102f
Encoding: 65597 -1 239
Width: 180
VWidth: 0
GlyphClass: 3
Flags: HW
LayerCount: 2
Fore
SplineSet
-415 -160 m 1
 -389 -114 -326 -76 -273 -76 c 0
 -183 -76 -110 -148 -110 -238 c 0
 -110 -328 -183 -401 -273 -401 c 0
 -326 -401 -389 -363 -415 -317 c 1
 -441 -363 -504 -401 -557 -401 c 0
 -647 -401 -720 -328 -720 -238 c 0
 -720 -148 -647 -76 -557 -76 c 0
 -504 -76 -441 -114 -415 -160 c 1
-435 -238 m 2
 -435 -171 -490 -117 -557 -117 c 0
 -624 -117 -679 -172 -679 -239 c 0
 -679 -306 -624 -361 -557 -361 c 0
 -490 -361 -435 -306 -435 -239 c 2
 -435 -238 l 2
-395 -238 m 2
 -395 -305 -340 -360 -273 -360 c 0
 -206 -360 -151 -305 -151 -238 c 0
 -151 -171 -206 -116 -273 -116 c 0
 -340 -116 -395 -171 -395 -238 c 2
 -395 -238 l 2
-240 374 m 2
 -241 374 l 2
 -307 374 -360 428 -360 494 c 0
 -360 560 -306 614 -240 614 c 0
 -174 614 -120 560 -120 494 c 0
 -120 428 -174 374 -240 374 c 2
-241 404 m 2
 -240 404 l 2
 -191 404 -150 445 -150 494 c 0
 -150 544 -190 584 -240 584 c 0
 -290 584 -330 544 -330 494 c 0
 -330 445 -290 404 -241 404 c 2
40 349 m 1
 90 349 l 1
 90 -326 l 2
 90 -340 101 -351 115 -351 c 2
 165 -351 l 1
 165 -401 l 1
 115 -401 l 2
 74 -401 40 -367 40 -326 c 2
 40 349 l 1
EndSplineSet
Validated: 5
Ligature2: "medialLigSub" u1039 u1011 u102d u102f
EndChar

StartChar: u1039_u1011_u1030
Encoding: 65598 -1 240
Width: 330
VWidth: 0
GlyphClass: 3
Flags: HW
LayerCount: 2
Fore
SplineSet
-415 -160 m 1
 -389 -114 -326 -76 -273 -76 c 0
 -183 -76 -110 -148 -110 -238 c 0
 -110 -328 -183 -401 -273 -401 c 0
 -326 -401 -389 -363 -415 -317 c 1
 -441 -363 -504 -401 -557 -401 c 0
 -647 -401 -720 -328 -720 -238 c 0
 -720 -148 -647 -76 -557 -76 c 0
 -504 -76 -441 -114 -415 -160 c 1
-435 -238 m 2
 -435 -171 -490 -117 -557 -117 c 0
 -624 -117 -679 -172 -679 -239 c 0
 -679 -306 -624 -361 -557 -361 c 0
 -490 -361 -435 -306 -435 -239 c 2
 -435 -238 l 2
-395 -238 m 2
 -395 -305 -340 -360 -273 -360 c 0
 -206 -360 -151 -305 -151 -238 c 0
 -151 -171 -206 -116 -273 -116 c 0
 -340 -116 -395 -171 -395 -238 c 2
 -395 -238 l 2
40 349 m 1
 90 349 l 1
 90 -401 l 1
 40 -401 l 1
 40 349 l 1
190 349 m 1
 240 349 l 1
 240 -326 l 2
 240 -340 251 -351 265 -351 c 2
 315 -351 l 1
 315 -401 l 1
 265 -401 l 2
 224 -401 190 -367 190 -326 c 2
 190 349 l 1
EndSplineSet
Validated: 5
Ligature2: "medialLigSub" u1039 u1011 u1030
EndChar

StartChar: u1039_u1012
Encoding: 65599 -1 241
Width: 1
VWidth: 0
GlyphClass: 3
Flags: HW
LayerCount: 2
Fore
SplineSet
-402 -167 m 1
 -402 -117 -330 -76 -240 -76 c 0
 -150 -76 -78 -117 -78 -167 c 0
 -78 -191 -105 -223 -138 -238 c 1
 -105 -253 -78 -286 -78 -310 c 0
 -78 -360 -150 -401 -240 -401 c 0
 -330 -401 -402 -360 -402 -310 c 1
 -362 -310 l 1
 -362 -338 -307 -360 -240 -360 c 0
 -173 -360 -118 -338 -118 -310 c 0
 -118 -282 -173 -259 -240 -259 c 1
 -240 -218 l 1
 -173 -218 -118 -195 -118 -167 c 0
 -118 -139 -173 -117 -240 -117 c 0
 -307 -117 -362 -139 -362 -167 c 1
 -402 -167 l 1
EndSplineSet
Validated: 1
Ligature2: "medialLigSub" u1039 u1012
EndChar

StartChar: u1039_u1012_u102f
Encoding: 65600 -1 242
Width: 180
VWidth: 0
GlyphClass: 3
Flags: HW
LayerCount: 2
Fore
SplineSet
-402 -167 m 1
 -402 -117 -330 -76 -240 -76 c 0
 -150 -76 -78 -117 -78 -167 c 0
 -78 -191 -105 -223 -138 -238 c 1
 -105 -253 -78 -286 -78 -310 c 0
 -78 -360 -150 -401 -240 -401 c 0
 -330 -401 -402 -360 -402 -310 c 1
 -362 -310 l 1
 -362 -338 -307 -360 -240 -360 c 0
 -173 -360 -118 -338 -118 -310 c 0
 -118 -282 -173 -259 -240 -259 c 1
 -240 -218 l 1
 -173 -218 -118 -195 -118 -167 c 0
 -118 -139 -173 -117 -240 -117 c 0
 -307 -117 -362 -139 -362 -167 c 1
 -402 -167 l 1
40 349 m 1
 90 349 l 1
 90 -326 l 2
 90 -340 101 -351 115 -351 c 2
 165 -351 l 1
 165 -401 l 1
 115 -401 l 2
 74 -401 40 -367 40 -326 c 2
 40 349 l 1
EndSplineSet
Validated: 1
Ligature2: "medialLigSub" u1039 u1012 u102f
EndChar

StartChar: u1039_u1012_u102d_u102f
Encoding: 65601 -1 243
Width: 180
VWidth: 0
GlyphClass: 3
Flags: HW
LayerCount: 2
Fore
SplineSet
-402 -167 m 1
 -402 -117 -330 -76 -240 -76 c 0
 -150 -76 -78 -117 -78 -167 c 0
 -78 -191 -105 -223 -138 -238 c 1
 -105 -253 -78 -286 -78 -310 c 0
 -78 -360 -150 -401 -240 -401 c 0
 -330 -401 -402 -360 -402 -310 c 1
 -362 -310 l 1
 -362 -338 -307 -360 -240 -360 c 0
 -173 -360 -118 -338 -118 -310 c 0
 -118 -282 -173 -259 -240 -259 c 1
 -240 -218 l 1
 -173 -218 -118 -195 -118 -167 c 0
 -118 -139 -173 -117 -240 -117 c 0
 -307 -117 -362 -139 -362 -167 c 1
 -402 -167 l 1
-240 374 m 2
 -241 374 l 2
 -307 374 -360 428 -360 494 c 0
 -360 560 -306 614 -240 614 c 0
 -174 614 -120 560 -120 494 c 0
 -120 428 -174 374 -240 374 c 2
-241 404 m 2
 -240 404 l 2
 -191 404 -150 445 -150 494 c 0
 -150 544 -190 584 -240 584 c 0
 -290 584 -330 544 -330 494 c 0
 -330 445 -290 404 -241 404 c 2
40 349 m 1
 90 349 l 1
 90 -326 l 2
 90 -340 101 -351 115 -351 c 2
 165 -351 l 1
 165 -401 l 1
 115 -401 l 2
 74 -401 40 -367 40 -326 c 2
 40 349 l 1
EndSplineSet
Validated: 1
Ligature2: "medialLigSub" u1039 u1012 u102d u102f
EndChar

StartChar: u1039_u1012_u1030
Encoding: 65602 -1 244
Width: 330
VWidth: 0
GlyphClass: 3
Flags: HW
LayerCount: 2
Fore
SplineSet
-402 -167 m 1
 -402 -117 -330 -76 -240 -76 c 0
 -150 -76 -78 -117 -78 -167 c 0
 -78 -191 -105 -223 -138 -238 c 1
 -105 -253 -78 -286 -78 -310 c 0
 -78 -360 -150 -401 -240 -401 c 0
 -330 -401 -402 -360 -402 -310 c 1
 -362 -310 l 1
 -362 -338 -307 -360 -240 -360 c 0
 -173 -360 -118 -338 -118 -310 c 0
 -118 -282 -173 -259 -240 -259 c 1
 -240 -218 l 1
 -173 -218 -118 -195 -118 -167 c 0
 -118 -139 -173 -117 -240 -117 c 0
 -307 -117 -362 -139 -362 -167 c 1
 -402 -167 l 1
40 349 m 1
 90 349 l 1
 90 -401 l 1
 40 -401 l 1
 40 349 l 1
190 349 m 1
 240 349 l 1
 240 -326 l 2
 240 -340 251 -351 265 -351 c 2
 315 -351 l 1
 315 -401 l 1
 265 -401 l 2
 224 -401 190 -367 190 -326 c 2
 190 349 l 1
EndSplineSet
Validated: 1
Ligature2: "medialLigSub" u1039 u1012 u1030
EndChar

StartChar: u1039_u1013
Encoding: 65603 -1 245
Width: 1
VWidth: 0
GlyphClass: 3
Flags: HW
LayerCount: 2
Fore
SplineSet
-240 -401 m 2
 -241 -401 l 2
 -330 -401 -403 -328 -403 -239 c 0
 -403 -149 -330 -76 -240 -76 c 0
 -150 -76 -78 -149 -78 -239 c 0
 -78 -328 -151 -401 -240 -401 c 2
-352 -286 m 1
 -326 -261 -276 -240 -240 -240 c 0
 -204 -240 -154 -261 -128 -286 c 1
 -123 -274 -118 -252 -118 -238 c 0
 -118 -171 -173 -117 -240 -117 c 0
 -307 -117 -362 -171 -362 -238 c 0
 -362 -252 -357 -274 -352 -286 c 1
-331 -320 m 1
 -311 -342 -270 -360 -240 -360 c 0
 -210 -360 -169 -342 -149 -320 c 1
 -169 -298 -210 -279 -240 -279 c 0
 -270 -279 -311 -298 -331 -320 c 1
EndSplineSet
Validated: 1
Ligature2: "medialLigSub" u1039 u1013
EndChar

StartChar: u1039_u1013_u102f
Encoding: 65604 -1 246
Width: 180
VWidth: 0
GlyphClass: 3
Flags: HW
LayerCount: 2
Fore
SplineSet
-240 -401 m 2
 -241 -401 l 2
 -330 -401 -403 -328 -403 -239 c 0
 -403 -149 -330 -76 -240 -76 c 0
 -150 -76 -78 -149 -78 -239 c 0
 -78 -328 -151 -401 -240 -401 c 2
-352 -286 m 1
 -326 -261 -276 -240 -240 -240 c 0
 -204 -240 -154 -261 -128 -286 c 1
 -123 -274 -118 -252 -118 -238 c 0
 -118 -171 -173 -117 -240 -117 c 0
 -307 -117 -362 -171 -362 -238 c 0
 -362 -252 -357 -274 -352 -286 c 1
-331 -320 m 1
 -311 -342 -270 -360 -240 -360 c 0
 -210 -360 -169 -342 -149 -320 c 1
 -169 -298 -210 -279 -240 -279 c 0
 -270 -279 -311 -298 -331 -320 c 1
40 349 m 1
 90 349 l 1
 90 -326 l 2
 90 -340 101 -351 115 -351 c 2
 165 -351 l 1
 165 -401 l 1
 115 -401 l 2
 74 -401 40 -367 40 -326 c 2
 40 349 l 1
EndSplineSet
Validated: 1
Ligature2: "medialLigSub" u1039 u1013 u102f
EndChar

StartChar: u1039_u1013_u102d_u102f
Encoding: 65605 -1 247
Width: 180
VWidth: 0
GlyphClass: 3
Flags: HW
LayerCount: 2
Fore
SplineSet
-240 -401 m 2
 -241 -401 l 2
 -330 -401 -403 -328 -403 -239 c 0
 -403 -149 -330 -76 -240 -76 c 0
 -150 -76 -78 -149 -78 -239 c 0
 -78 -328 -151 -401 -240 -401 c 2
-352 -286 m 1
 -326 -261 -276 -240 -240 -240 c 0
 -204 -240 -154 -261 -128 -286 c 1
 -123 -274 -118 -252 -118 -238 c 0
 -118 -171 -173 -117 -240 -117 c 0
 -307 -117 -362 -171 -362 -238 c 0
 -362 -252 -357 -274 -352 -286 c 1
-331 -320 m 1
 -311 -342 -270 -360 -240 -360 c 0
 -210 -360 -169 -342 -149 -320 c 1
 -169 -298 -210 -279 -240 -279 c 0
 -270 -279 -311 -298 -331 -320 c 1
-240 374 m 2
 -241 374 l 2
 -307 374 -360 428 -360 494 c 0
 -360 560 -306 614 -240 614 c 0
 -174 614 -120 560 -120 494 c 0
 -120 428 -174 374 -240 374 c 2
-241 404 m 2
 -240 404 l 2
 -191 404 -150 445 -150 494 c 0
 -150 544 -190 584 -240 584 c 0
 -290 584 -330 544 -330 494 c 0
 -330 445 -290 404 -241 404 c 2
40 349 m 1
 90 349 l 1
 90 -326 l 2
 90 -340 101 -351 115 -351 c 2
 165 -351 l 1
 165 -401 l 1
 115 -401 l 2
 74 -401 40 -367 40 -326 c 2
 40 349 l 1
EndSplineSet
Validated: 1
Ligature2: "medialLigSub" u1039 u1013 u102d u102f
EndChar

StartChar: u1039_u1013_u1030
Encoding: 65606 -1 248
Width: 330
VWidth: 0
GlyphClass: 3
Flags: HW
LayerCount: 2
Fore
SplineSet
-240 -401 m 2
 -241 -401 l 2
 -330 -401 -403 -328 -403 -239 c 0
 -403 -149 -330 -76 -240 -76 c 0
 -150 -76 -78 -149 -78 -239 c 0
 -78 -328 -151 -401 -240 -401 c 2
-352 -286 m 1
 -326 -261 -276 -240 -240 -240 c 0
 -204 -240 -154 -261 -128 -286 c 1
 -123 -274 -118 -252 -118 -238 c 0
 -118 -171 -173 -117 -240 -117 c 0
 -307 -117 -362 -171 -362 -238 c 0
 -362 -252 -357 -274 -352 -286 c 1
-331 -320 m 1
 -311 -342 -270 -360 -240 -360 c 0
 -210 -360 -169 -342 -149 -320 c 1
 -169 -298 -210 -279 -240 -279 c 0
 -270 -279 -311 -298 -331 -320 c 1
40 349 m 1
 90 349 l 1
 90 -401 l 1
 40 -401 l 1
 40 349 l 1
190 349 m 1
 240 349 l 1
 240 -326 l 2
 240 -340 251 -351 265 -351 c 2
 315 -351 l 1
 315 -401 l 1
 265 -401 l 2
 224 -401 190 -367 190 -326 c 2
 190 349 l 1
EndSplineSet
Validated: 1
Ligature2: "medialLigSub" u1039 u1013 u1030
EndChar

StartChar: u1039_u1015
Encoding: 65607 -1 249
Width: 1
VWidth: 0
GlyphClass: 3
Flags: HW
LayerCount: 2
Fore
SplineSet
-171 -91 m 1
 -119 -115 -78 -181 -78 -238 c 0
 -78 -328 -150 -401 -240 -401 c 0
 -330 -401 -402 -328 -402 -238 c 0
 -402 -181 -361 -115 -309 -91 c 1
 -292 -128 l 1
 -331 -146 -362 -195 -362 -238 c 0
 -362 -305 -307 -360 -240 -360 c 0
 -173 -360 -118 -305 -118 -238 c 0
 -118 -195 -149 -146 -188 -128 c 1
 -171 -91 l 1
EndSplineSet
Validated: 1
Ligature2: "medialLigSub" u1039 u1015
EndChar

StartChar: u1039_u1015_u102f
Encoding: 65608 -1 250
Width: 180
VWidth: 0
GlyphClass: 3
Flags: HW
LayerCount: 2
Fore
SplineSet
-171 -91 m 1
 -119 -115 -78 -181 -78 -238 c 0
 -78 -328 -150 -401 -240 -401 c 0
 -330 -401 -402 -328 -402 -238 c 0
 -402 -181 -361 -115 -309 -91 c 1
 -292 -128 l 1
 -331 -146 -362 -195 -362 -238 c 0
 -362 -305 -307 -360 -240 -360 c 0
 -173 -360 -118 -305 -118 -238 c 0
 -118 -195 -149 -146 -188 -128 c 1
 -171 -91 l 1
40 349 m 1
 90 349 l 1
 90 -326 l 2
 90 -340 101 -351 115 -351 c 2
 165 -351 l 1
 165 -401 l 1
 115 -401 l 2
 74 -401 40 -367 40 -326 c 2
 40 349 l 1
EndSplineSet
Validated: 1
Ligature2: "medialLigSub" u1039 u1015 u102f
EndChar

StartChar: u1039_u1015_u102d_u102f
Encoding: 65609 -1 251
Width: 180
VWidth: 0
GlyphClass: 3
Flags: HW
LayerCount: 2
Fore
SplineSet
-171 -91 m 1
 -119 -115 -78 -181 -78 -238 c 0
 -78 -328 -150 -401 -240 -401 c 0
 -330 -401 -402 -328 -402 -238 c 0
 -402 -181 -361 -115 -309 -91 c 1
 -292 -128 l 1
 -331 -146 -362 -195 -362 -238 c 0
 -362 -305 -307 -360 -240 -360 c 0
 -173 -360 -118 -305 -118 -238 c 0
 -118 -195 -149 -146 -188 -128 c 1
 -171 -91 l 1
-240 374 m 2
 -241 374 l 2
 -307 374 -360 428 -360 494 c 0
 -360 560 -306 614 -240 614 c 0
 -174 614 -120 560 -120 494 c 0
 -120 428 -174 374 -240 374 c 2
-241 404 m 2
 -240 404 l 2
 -191 404 -150 445 -150 494 c 0
 -150 544 -190 584 -240 584 c 0
 -290 584 -330 544 -330 494 c 0
 -330 445 -290 404 -241 404 c 2
40 349 m 1
 90 349 l 1
 90 -326 l 2
 90 -340 101 -351 115 -351 c 2
 165 -351 l 1
 165 -401 l 1
 115 -401 l 2
 74 -401 40 -367 40 -326 c 2
 40 349 l 1
EndSplineSet
Validated: 1
Ligature2: "medialLigSub" u1039 u1015 u102d u102f
EndChar

StartChar: u1039_u1015_u1030
Encoding: 65610 -1 252
Width: 330
VWidth: 0
GlyphClass: 3
Flags: HW
LayerCount: 2
Fore
SplineSet
-171 -91 m 1
 -119 -115 -78 -181 -78 -238 c 0
 -78 -328 -150 -401 -240 -401 c 0
 -330 -401 -402 -328 -402 -238 c 0
 -402 -181 -361 -115 -309 -91 c 1
 -292 -128 l 1
 -331 -146 -362 -195 -362 -238 c 0
 -362 -305 -307 -360 -240 -360 c 0
 -173 -360 -118 -305 -118 -238 c 0
 -118 -195 -149 -146 -188 -128 c 1
 -171 -91 l 1
40 349 m 1
 90 349 l 1
 90 -401 l 1
 40 -401 l 1
 40 349 l 1
190 349 m 1
 240 349 l 1
 240 -326 l 2
 240 -340 251 -351 265 -351 c 2
 315 -351 l 1
 315 -401 l 1
 265 -401 l 2
 224 -401 190 -367 190 -326 c 2
 190 349 l 1
EndSplineSet
Validated: 1
Ligature2: "medialLigSub" u1039 u1015 u1030
EndChar

StartChar: u1039_u1016
Encoding: 65611 -1 253
Width: 1
VWidth: 0
GlyphClass: 3
Flags: HW
LayerCount: 2
Fore
SplineSet
-309 -91 m 1
 -292 -128 l 1
 -331 -146 -362 -195 -362 -238 c 0
 -362 -305 -307 -360 -240 -360 c 0
 -214 -360 -178 -346 -159 -329 c 1
 -186 -303 -207 -252 -207 -214 c 0
 -207 -176 -186 -124 -159 -98 c 1
 -114 -124 -78 -186 -78 -238 c 0
 -78 -328 -150 -401 -240 -401 c 0
 -330 -401 -402 -328 -402 -238 c 0
 -402 -181 -361 -115 -309 -91 c 1
-159 -148 m 1
 -172 -166 -183 -198 -183 -220 c 0
 -183 -250 -164 -291 -142 -311 c 1
 -129 -293 -118 -260 -118 -238 c 0
 -118 -208 -137 -168 -159 -148 c 1
EndSplineSet
Validated: 1
Ligature2: "medialLigSub" u1039 u1016
EndChar

StartChar: u1039_u1016_u102f
Encoding: 65612 -1 254
Width: 180
VWidth: 0
GlyphClass: 3
Flags: HW
LayerCount: 2
Fore
SplineSet
-309 -91 m 1
 -292 -128 l 1
 -331 -146 -362 -195 -362 -238 c 0
 -362 -305 -307 -360 -240 -360 c 0
 -214 -360 -178 -346 -159 -329 c 1
 -186 -303 -207 -252 -207 -214 c 0
 -207 -176 -186 -124 -159 -98 c 1
 -114 -124 -78 -186 -78 -238 c 0
 -78 -328 -150 -401 -240 -401 c 0
 -330 -401 -402 -328 -402 -238 c 0
 -402 -181 -361 -115 -309 -91 c 1
-159 -148 m 1
 -172 -166 -183 -198 -183 -220 c 0
 -183 -250 -164 -291 -142 -311 c 1
 -129 -293 -118 -260 -118 -238 c 0
 -118 -208 -137 -168 -159 -148 c 1
40 349 m 1
 90 349 l 1
 90 -326 l 2
 90 -340 101 -351 115 -351 c 2
 165 -351 l 1
 165 -401 l 1
 115 -401 l 2
 74 -401 40 -367 40 -326 c 2
 40 349 l 1
EndSplineSet
Validated: 1
Ligature2: "medialLigSub" u1039 u1016 u102f
EndChar

StartChar: u1039_u1016_u102d_u102f
Encoding: 65613 -1 255
Width: 180
VWidth: 0
GlyphClass: 3
Flags: HW
LayerCount: 2
Fore
SplineSet
-309 -91 m 1
 -292 -128 l 1
 -331 -146 -362 -195 -362 -238 c 0
 -362 -305 -307 -360 -240 -360 c 0
 -214 -360 -178 -346 -159 -329 c 1
 -186 -303 -207 -252 -207 -214 c 0
 -207 -176 -186 -124 -159 -98 c 1
 -114 -124 -78 -186 -78 -238 c 0
 -78 -328 -150 -401 -240 -401 c 0
 -330 -401 -402 -328 -402 -238 c 0
 -402 -181 -361 -115 -309 -91 c 1
-159 -148 m 1
 -172 -166 -183 -198 -183 -220 c 0
 -183 -250 -164 -291 -142 -311 c 1
 -129 -293 -118 -260 -118 -238 c 0
 -118 -208 -137 -168 -159 -148 c 1
-240 374 m 2
 -241 374 l 2
 -307 374 -360 428 -360 494 c 0
 -360 560 -306 614 -240 614 c 0
 -174 614 -120 560 -120 494 c 0
 -120 428 -174 374 -240 374 c 2
-241 404 m 2
 -240 404 l 2
 -191 404 -150 445 -150 494 c 0
 -150 544 -190 584 -240 584 c 0
 -290 584 -330 544 -330 494 c 0
 -330 445 -290 404 -241 404 c 2
40 349 m 1
 90 349 l 1
 90 -326 l 2
 90 -340 101 -351 115 -351 c 2
 165 -351 l 1
 165 -401 l 1
 115 -401 l 2
 74 -401 40 -367 40 -326 c 2
 40 349 l 1
EndSplineSet
Validated: 1
Ligature2: "medialLigSub" u1039 u1016 u102d u102f
EndChar

StartChar: u1039_u1016_u1030
Encoding: 65614 -1 256
Width: 330
VWidth: 0
GlyphClass: 3
Flags: HW
LayerCount: 2
Fore
SplineSet
-309 -91 m 1
 -292 -128 l 1
 -331 -146 -362 -195 -362 -238 c 0
 -362 -305 -307 -360 -240 -360 c 0
 -214 -360 -178 -346 -159 -329 c 1
 -186 -303 -207 -252 -207 -214 c 0
 -207 -176 -186 -124 -159 -98 c 1
 -114 -124 -78 -186 -78 -238 c 0
 -78 -328 -150 -401 -240 -401 c 0
 -330 -401 -402 -328 -402 -238 c 0
 -402 -181 -361 -115 -309 -91 c 1
-159 -148 m 1
 -172 -166 -183 -198 -183 -220 c 0
 -183 -250 -164 -291 -142 -311 c 1
 -129 -293 -118 -260 -118 -238 c 0
 -118 -208 -137 -168 -159 -148 c 1
40 349 m 1
 90 349 l 1
 90 -401 l 1
 40 -401 l 1
 40 349 l 1
190 349 m 1
 240 349 l 1
 240 -326 l 2
 240 -340 251 -351 265 -351 c 2
 315 -351 l 1
 315 -401 l 1
 265 -401 l 2
 224 -401 190 -367 190 -326 c 2
 190 349 l 1
EndSplineSet
Validated: 1
Ligature2: "medialLigSub" u1039 u1016 u1030
EndChar

StartChar: u1039_u1017
Encoding: 65615 -1 257
Width: 1
VWidth: 0
GlyphClass: 3
Flags: HW
LayerCount: 2
Fore
SplineSet
-142 -108 m 1
 -106 -135 -78 -193 -78 -238 c 0
 -78 -328 -150 -401 -240 -401 c 0
 -330 -401 -402 -328 -402 -238 c 0
 -402 -193 -374 -135 -338 -108 c 1
 -318 -135 -274 -157 -240 -157 c 0
 -206 -157 -162 -135 -142 -108 c 1
-338 -165 m 1
 -351 -183 -362 -216 -362 -238 c 0
 -362 -305 -307 -360 -240 -360 c 0
 -173 -360 -118 -305 -118 -238 c 0
 -118 -216 -129 -183 -142 -165 c 1
 -166 -183 -210 -198 -240 -198 c 0
 -270 -198 -314 -183 -338 -165 c 1
EndSplineSet
Validated: 1
Ligature2: "medialLigSub" u1039 u1017
EndChar

StartChar: u1039_u1017_u102f
Encoding: 65616 -1 258
Width: 180
VWidth: 0
GlyphClass: 3
Flags: HW
LayerCount: 2
Fore
SplineSet
-142 -108 m 1
 -106 -135 -78 -193 -78 -238 c 0
 -78 -328 -150 -401 -240 -401 c 0
 -330 -401 -402 -328 -402 -238 c 0
 -402 -193 -374 -135 -338 -108 c 1
 -318 -135 -274 -157 -240 -157 c 0
 -206 -157 -162 -135 -142 -108 c 1
-338 -165 m 1
 -351 -183 -362 -216 -362 -238 c 0
 -362 -305 -307 -360 -240 -360 c 0
 -173 -360 -118 -305 -118 -238 c 0
 -118 -216 -129 -183 -142 -165 c 1
 -166 -183 -210 -198 -240 -198 c 0
 -270 -198 -314 -183 -338 -165 c 1
40 349 m 1
 90 349 l 1
 90 -326 l 2
 90 -340 101 -351 115 -351 c 2
 165 -351 l 1
 165 -401 l 1
 115 -401 l 2
 74 -401 40 -367 40 -326 c 2
 40 349 l 1
EndSplineSet
Validated: 1
Ligature2: "medialLigSub" u1039 u1017 u102f
EndChar

StartChar: u1039_u1017_u102d_u102f
Encoding: 65617 -1 259
Width: 180
VWidth: 0
GlyphClass: 3
Flags: HW
LayerCount: 2
Fore
SplineSet
-142 -108 m 1
 -106 -135 -78 -193 -78 -238 c 0
 -78 -328 -150 -401 -240 -401 c 0
 -330 -401 -402 -328 -402 -238 c 0
 -402 -193 -374 -135 -338 -108 c 1
 -318 -135 -274 -157 -240 -157 c 0
 -206 -157 -162 -135 -142 -108 c 1
-338 -165 m 1
 -351 -183 -362 -216 -362 -238 c 0
 -362 -305 -307 -360 -240 -360 c 0
 -173 -360 -118 -305 -118 -238 c 0
 -118 -216 -129 -183 -142 -165 c 1
 -166 -183 -210 -198 -240 -198 c 0
 -270 -198 -314 -183 -338 -165 c 1
-240 374 m 2
 -241 374 l 2
 -307 374 -360 428 -360 494 c 0
 -360 560 -306 614 -240 614 c 0
 -174 614 -120 560 -120 494 c 0
 -120 428 -174 374 -240 374 c 2
-241 404 m 2
 -240 404 l 2
 -191 404 -150 445 -150 494 c 0
 -150 544 -190 584 -240 584 c 0
 -290 584 -330 544 -330 494 c 0
 -330 445 -290 404 -241 404 c 2
40 349 m 1
 90 349 l 1
 90 -326 l 2
 90 -340 101 -351 115 -351 c 2
 165 -351 l 1
 165 -401 l 1
 115 -401 l 2
 74 -401 40 -367 40 -326 c 2
 40 349 l 1
EndSplineSet
Validated: 1
Ligature2: "medialLigSub" u1039 u1017 u102d u102f
EndChar

StartChar: u1039_u1017_u1030
Encoding: 65618 -1 260
Width: 330
VWidth: 0
GlyphClass: 3
Flags: HW
LayerCount: 2
Fore
SplineSet
-142 -108 m 1
 -106 -135 -78 -193 -78 -238 c 0
 -78 -328 -150 -401 -240 -401 c 0
 -330 -401 -402 -328 -402 -238 c 0
 -402 -193 -374 -135 -338 -108 c 1
 -318 -135 -274 -157 -240 -157 c 0
 -206 -157 -162 -135 -142 -108 c 1
-338 -165 m 1
 -351 -183 -362 -216 -362 -238 c 0
 -362 -305 -307 -360 -240 -360 c 0
 -173 -360 -118 -305 -118 -238 c 0
 -118 -216 -129 -183 -142 -165 c 1
 -166 -183 -210 -198 -240 -198 c 0
 -270 -198 -314 -183 -338 -165 c 1
40 349 m 1
 90 349 l 1
 90 -401 l 1
 40 -401 l 1
 40 349 l 1
190 349 m 1
 240 349 l 1
 240 -326 l 2
 240 -340 251 -351 265 -351 c 2
 315 -351 l 1
 315 -401 l 1
 265 -401 l 2
 224 -401 190 -367 190 -326 c 2
 190 349 l 1
EndSplineSet
Validated: 1
Ligature2: "medialLigSub" u1039 u1017 u1030
EndChar

StartChar: u1039_u1018
Encoding: 65619 -1 261
Width: 1
VWidth: 0
GlyphClass: 3
Flags: HW
LayerCount: 2
Fore
SplineSet
-415 -160 m 1
 -389 -114 -326 -76 -273 -76 c 0
 -183 -76 -110 -148 -110 -238 c 0
 -110 -328 -183 -401 -273 -401 c 1
 -273 -360 l 1
 -206 -360 -151 -305 -151 -238 c 0
 -151 -171 -206 -117 -273 -117 c 0
 -340 -117 -395 -171 -395 -238 c 0
 -395 -328 -467 -401 -557 -401 c 0
 -614 -401 -680 -359 -704 -307 c 1
 -668 -290 l 1
 -650 -329 -600 -360 -557 -360 c 0
 -490 -360 -435 -305 -435 -238 c 0
 -435 -171 -490 -117 -557 -117 c 0
 -600 -117 -650 -148 -668 -187 c 1
 -704 -170 l 1
 -680 -118 -614 -76 -557 -76 c 0
 -504 -76 -441 -114 -415 -160 c 1
EndSplineSet
Validated: 1
Ligature2: "medialLigSub" u1039 u1018
EndChar

StartChar: u1039_u1018_u102f
Encoding: 65620 -1 262
Width: 180
VWidth: 0
GlyphClass: 3
Flags: HW
LayerCount: 2
Fore
SplineSet
-415 -160 m 1
 -389 -114 -326 -76 -273 -76 c 0
 -183 -76 -110 -148 -110 -238 c 0
 -110 -328 -183 -401 -273 -401 c 1
 -273 -360 l 1
 -206 -360 -151 -305 -151 -238 c 0
 -151 -171 -206 -117 -273 -117 c 0
 -340 -117 -395 -171 -395 -238 c 0
 -395 -328 -467 -401 -557 -401 c 0
 -614 -401 -680 -359 -704 -307 c 1
 -668 -290 l 1
 -650 -329 -600 -360 -557 -360 c 0
 -490 -360 -435 -305 -435 -238 c 0
 -435 -171 -490 -117 -557 -117 c 0
 -600 -117 -650 -148 -668 -187 c 1
 -704 -170 l 1
 -680 -118 -614 -76 -557 -76 c 0
 -504 -76 -441 -114 -415 -160 c 1
40 349 m 1
 90 349 l 1
 90 -326 l 2
 90 -340 101 -351 115 -351 c 2
 165 -351 l 1
 165 -401 l 1
 115 -401 l 2
 74 -401 40 -367 40 -326 c 2
 40 349 l 1
EndSplineSet
Validated: 1
Ligature2: "medialLigSub" u1039 u1018 u102f
EndChar

StartChar: u1039_u1018_u102d_u102f
Encoding: 65621 -1 263
Width: 180
VWidth: 0
GlyphClass: 3
Flags: HW
LayerCount: 2
Fore
SplineSet
-415 -160 m 1
 -389 -114 -326 -76 -273 -76 c 0
 -183 -76 -110 -148 -110 -238 c 0
 -110 -328 -183 -401 -273 -401 c 1
 -273 -360 l 1
 -206 -360 -151 -305 -151 -238 c 0
 -151 -171 -206 -117 -273 -117 c 0
 -340 -117 -395 -171 -395 -238 c 0
 -395 -328 -467 -401 -557 -401 c 0
 -614 -401 -680 -359 -704 -307 c 1
 -668 -290 l 1
 -650 -329 -600 -360 -557 -360 c 0
 -490 -360 -435 -305 -435 -238 c 0
 -435 -171 -490 -117 -557 -117 c 0
 -600 -117 -650 -148 -668 -187 c 1
 -704 -170 l 1
 -680 -118 -614 -76 -557 -76 c 0
 -504 -76 -441 -114 -415 -160 c 1
-240 374 m 2
 -241 374 l 2
 -307 374 -360 428 -360 494 c 0
 -360 560 -306 614 -240 614 c 0
 -174 614 -120 560 -120 494 c 0
 -120 428 -174 374 -240 374 c 2
-241 404 m 2
 -240 404 l 2
 -191 404 -150 445 -150 494 c 0
 -150 544 -190 584 -240 584 c 0
 -290 584 -330 544 -330 494 c 0
 -330 445 -290 404 -241 404 c 2
40 349 m 1
 90 349 l 1
 90 -326 l 2
 90 -340 101 -351 115 -351 c 2
 165 -351 l 1
 165 -401 l 1
 115 -401 l 2
 74 -401 40 -367 40 -326 c 2
 40 349 l 1
EndSplineSet
Validated: 1
Ligature2: "medialLigSub" u1039 u1018 u102d u102f
EndChar

StartChar: u1039_u1018_u1030
Encoding: 65622 -1 264
Width: 330
VWidth: 0
GlyphClass: 3
Flags: HW
LayerCount: 2
Fore
SplineSet
-415 -160 m 1
 -389 -114 -326 -76 -273 -76 c 0
 -183 -76 -110 -148 -110 -238 c 0
 -110 -328 -183 -401 -273 -401 c 1
 -273 -360 l 1
 -206 -360 -151 -305 -151 -238 c 0
 -151 -171 -206 -117 -273 -117 c 0
 -340 -117 -395 -171 -395 -238 c 0
 -395 -328 -467 -401 -557 -401 c 0
 -614 -401 -680 -359 -704 -307 c 1
 -668 -290 l 1
 -650 -329 -600 -360 -557 -360 c 0
 -490 -360 -435 -305 -435 -238 c 0
 -435 -171 -490 -117 -557 -117 c 0
 -600 -117 -650 -148 -668 -187 c 1
 -704 -170 l 1
 -680 -118 -614 -76 -557 -76 c 0
 -504 -76 -441 -114 -415 -160 c 1
40 349 m 1
 90 349 l 1
 90 -401 l 1
 40 -401 l 1
 40 349 l 1
190 349 m 1
 240 349 l 1
 240 -326 l 2
 240 -340 251 -351 265 -351 c 2
 315 -351 l 1
 315 -401 l 1
 265 -401 l 2
 224 -401 190 -367 190 -326 c 2
 190 349 l 1
EndSplineSet
Validated: 1
Ligature2: "medialLigSub" u1039 u1018 u1030
EndChar

StartChar: u1039_u1019
Encoding: 65623 -1 265
Width: 1
VWidth: 0
GlyphClass: 3
Flags: HW
LayerCount: 2
Fore
SplineSet
-171 -91 m 1
 -119 -115 -78 -181 -78 -238 c 0
 -78 -328 -150 -401 -240 -401 c 0
 -330 -401 -402 -328 -402 -238 c 0
 -402 -181 -361 -115 -309 -91 c 1
 -292 -128 l 1
 -331 -146 -362 -195 -362 -238 c 0
 -362 -252 -357 -274 -352 -286 c 1
 -326 -261 -276 -240 -240 -240 c 0
 -204 -240 -154 -261 -128 -286 c 1
 -123 -274 -118 -252 -118 -238 c 0
 -118 -195 -149 -146 -188 -128 c 1
 -171 -91 l 1
-149 -320 m 1
 -169 -298 -210 -279 -240 -279 c 0
 -270 -279 -311 -298 -331 -320 c 1
 -311 -342 -270 -360 -240 -360 c 0
 -210 -360 -169 -342 -149 -320 c 1
EndSplineSet
Validated: 1
Ligature2: "medialLigSub" u1039 u1019
EndChar

StartChar: u1039_u1019_u102f
Encoding: 65624 -1 266
Width: 180
VWidth: 0
GlyphClass: 3
Flags: HW
LayerCount: 2
Fore
SplineSet
-171 -91 m 1
 -119 -115 -78 -181 -78 -238 c 0
 -78 -328 -150 -401 -240 -401 c 0
 -330 -401 -402 -328 -402 -238 c 0
 -402 -181 -361 -115 -309 -91 c 1
 -292 -128 l 1
 -331 -146 -362 -195 -362 -238 c 0
 -362 -252 -357 -274 -352 -286 c 1
 -326 -261 -276 -240 -240 -240 c 0
 -204 -240 -154 -261 -128 -286 c 1
 -123 -274 -118 -252 -118 -238 c 0
 -118 -195 -149 -146 -188 -128 c 1
 -171 -91 l 1
-149 -320 m 1
 -169 -298 -210 -279 -240 -279 c 0
 -270 -279 -311 -298 -331 -320 c 1
 -311 -342 -270 -360 -240 -360 c 0
 -210 -360 -169 -342 -149 -320 c 1
40 349 m 1
 90 349 l 1
 90 -326 l 2
 90 -340 101 -351 115 -351 c 2
 165 -351 l 1
 165 -401 l 1
 115 -401 l 2
 74 -401 40 -367 40 -326 c 2
 40 349 l 1
EndSplineSet
Validated: 1
Ligature2: "medialLigSub" u1039 u1019 u102f
EndChar

StartChar: u1039_u1019_u102d_u102f
Encoding: 65625 -1 267
Width: 180
VWidth: 0
GlyphClass: 3
Flags: HW
LayerCount: 2
Fore
SplineSet
-171 -91 m 1
 -119 -115 -78 -181 -78 -238 c 0
 -78 -328 -150 -401 -240 -401 c 0
 -330 -401 -402 -328 -402 -238 c 0
 -402 -181 -361 -115 -309 -91 c 1
 -292 -128 l 1
 -331 -146 -362 -195 -362 -238 c 0
 -362 -252 -357 -274 -352 -286 c 1
 -326 -261 -276 -240 -240 -240 c 0
 -204 -240 -154 -261 -128 -286 c 1
 -123 -274 -118 -252 -118 -238 c 0
 -118 -195 -149 -146 -188 -128 c 1
 -171 -91 l 1
-149 -320 m 1
 -169 -298 -210 -279 -240 -279 c 0
 -270 -279 -311 -298 -331 -320 c 1
 -311 -342 -270 -360 -240 -360 c 0
 -210 -360 -169 -342 -149 -320 c 1
-240 374 m 2
 -241 374 l 2
 -307 374 -360 428 -360 494 c 0
 -360 560 -306 614 -240 614 c 0
 -174 614 -120 560 -120 494 c 0
 -120 428 -174 374 -240 374 c 2
-241 404 m 2
 -240 404 l 2
 -191 404 -150 445 -150 494 c 0
 -150 544 -190 584 -240 584 c 0
 -290 584 -330 544 -330 494 c 0
 -330 445 -290 404 -241 404 c 2
40 349 m 1
 90 349 l 1
 90 -326 l 2
 90 -340 101 -351 115 -351 c 2
 165 -351 l 1
 165 -401 l 1
 115 -401 l 2
 74 -401 40 -367 40 -326 c 2
 40 349 l 1
EndSplineSet
Validated: 1
Ligature2: "medialLigSub" u1039 u1019 u102d u102f
EndChar

StartChar: u1039_u1019_u1030
Encoding: 65626 -1 268
Width: 330
VWidth: 0
GlyphClass: 3
Flags: HW
LayerCount: 2
Fore
SplineSet
-171 -91 m 1
 -119 -115 -78 -181 -78 -238 c 0
 -78 -328 -150 -401 -240 -401 c 0
 -330 -401 -402 -328 -402 -238 c 0
 -402 -181 -361 -115 -309 -91 c 1
 -292 -128 l 1
 -331 -146 -362 -195 -362 -238 c 0
 -362 -252 -357 -274 -352 -286 c 1
 -326 -261 -276 -240 -240 -240 c 0
 -204 -240 -154 -261 -128 -286 c 1
 -123 -274 -118 -252 -118 -238 c 0
 -118 -195 -149 -146 -188 -128 c 1
 -171 -91 l 1
-149 -320 m 1
 -169 -298 -210 -279 -240 -279 c 0
 -270 -279 -311 -298 -331 -320 c 1
 -311 -342 -270 -360 -240 -360 c 0
 -210 -360 -169 -342 -149 -320 c 1
40 349 m 1
 90 349 l 1
 90 -401 l 1
 40 -401 l 1
 40 349 l 1
190 349 m 1
 240 349 l 1
 240 -326 l 2
 240 -340 251 -351 265 -351 c 2
 315 -351 l 1
 315 -401 l 1
 265 -401 l 2
 224 -401 190 -367 190 -326 c 2
 190 349 l 1
EndSplineSet
Validated: 1
Ligature2: "medialLigSub" u1039 u1019 u1030
EndChar

StartChar: u1039_u101a
Encoding: 65627 -1 269
Width: 1
VWidth: 0
GlyphClass: 3
Flags: HW
LayerCount: 2
Fore
SplineSet
-415 -317 m 1
 -441 -363 -504 -401 -557 -401 c 0
 -647 -401 -720 -328 -720 -238 c 0
 -720 -181 -678 -115 -626 -91 c 1
 -609 -128 l 1
 -648 -146 -679 -195 -679 -238 c 0
 -679 -305 -624 -360 -557 -360 c 0
 -490 -360 -435 -305 -435 -238 c 0
 -435 -195 -467 -146 -506 -128 c 1
 -489 -91 l 1
 -437 -115 -395 -181 -395 -238 c 0
 -395 -305 -340 -360 -273 -360 c 0
 -206 -360 -151 -305 -151 -238 c 0
 -151 -171 -206 -117 -273 -117 c 1
 -273 -76 l 1
 -183 -76 -110 -148 -110 -238 c 0
 -110 -328 -183 -401 -273 -401 c 0
 -326 -401 -389 -363 -415 -317 c 1
EndSplineSet
Validated: 1
Ligature2: "medialLigSub" u1039 u101a
EndChar

StartChar: u1039_u101a_u102f
Encoding: 65628 -1 270
Width: 180
VWidth: 0
GlyphClass: 3
Flags: HW
LayerCount: 2
Fore
SplineSet
-415 -317 m 1
 -441 -363 -504 -401 -557 -401 c 0
 -647 -401 -720 -328 -720 -238 c 0
 -720 -181 -678 -115 -626 -91 c 1
 -609 -128 l 1
 -648 -146 -679 -195 -679 -238 c 0
 -679 -305 -624 -360 -557 -360 c 0
 -490 -360 -435 -305 -435 -238 c 0
 -435 -195 -467 -146 -506 -128 c 1
 -489 -91 l 1
 -437 -115 -395 -181 -395 -238 c 0
 -395 -305 -340 -360 -273 -360 c 0
 -206 -360 -151 -305 -151 -238 c 0
 -151 -171 -206 -117 -273 -117 c 1
 -273 -76 l 1
 -183 -76 -110 -148 -110 -238 c 0
 -110 -328 -183 -401 -273 -401 c 0
 -326 -401 -389 -363 -415 -317 c 1
40 349 m 1
 90 349 l 1
 90 -326 l 2
 90 -340 101 -351 115 -351 c 2
 165 -351 l 1
 165 -401 l 1
 115 -401 l 2
 74 -401 40 -367 40 -326 c 2
 40 349 l 1
EndSplineSet
Validated: 1
Ligature2: "medialLigSub" u1039 u101a u102f
EndChar

StartChar: u1039_u101a_u102d_u102f
Encoding: 65629 -1 271
Width: 180
VWidth: 0
GlyphClass: 3
Flags: HW
LayerCount: 2
Fore
SplineSet
-415 -317 m 1
 -441 -363 -504 -401 -557 -401 c 0
 -647 -401 -720 -328 -720 -238 c 0
 -720 -181 -678 -115 -626 -91 c 1
 -609 -128 l 1
 -648 -146 -679 -195 -679 -238 c 0
 -679 -305 -624 -360 -557 -360 c 0
 -490 -360 -435 -305 -435 -238 c 0
 -435 -195 -467 -146 -506 -128 c 1
 -489 -91 l 1
 -437 -115 -395 -181 -395 -238 c 0
 -395 -305 -340 -360 -273 -360 c 0
 -206 -360 -151 -305 -151 -238 c 0
 -151 -171 -206 -117 -273 -117 c 1
 -273 -76 l 1
 -183 -76 -110 -148 -110 -238 c 0
 -110 -328 -183 -401 -273 -401 c 0
 -326 -401 -389 -363 -415 -317 c 1
-240 374 m 2
 -241 374 l 2
 -307 374 -360 428 -360 494 c 0
 -360 560 -306 614 -240 614 c 0
 -174 614 -120 560 -120 494 c 0
 -120 428 -174 374 -240 374 c 2
-241 404 m 2
 -240 404 l 2
 -191 404 -150 445 -150 494 c 0
 -150 544 -190 584 -240 584 c 0
 -290 584 -330 544 -330 494 c 0
 -330 445 -290 404 -241 404 c 2
40 349 m 1
 90 349 l 1
 90 -326 l 2
 90 -340 101 -351 115 -351 c 2
 165 -351 l 1
 165 -401 l 1
 115 -401 l 2
 74 -401 40 -367 40 -326 c 2
 40 349 l 1
EndSplineSet
Validated: 1
Ligature2: "medialLigSub" u1039 u101a u102d u102f
EndChar

StartChar: u1039_u101a_u1030
Encoding: 65630 -1 272
Width: 330
VWidth: 0
GlyphClass: 3
Flags: HW
LayerCount: 2
Fore
SplineSet
-415 -317 m 1
 -441 -363 -504 -401 -557 -401 c 0
 -647 -401 -720 -328 -720 -238 c 0
 -720 -181 -678 -115 -626 -91 c 1
 -609 -128 l 1
 -648 -146 -679 -195 -679 -238 c 0
 -679 -305 -624 -360 -557 -360 c 0
 -490 -360 -435 -305 -435 -238 c 0
 -435 -195 -467 -146 -506 -128 c 1
 -489 -91 l 1
 -437 -115 -395 -181 -395 -238 c 0
 -395 -305 -340 -360 -273 -360 c 0
 -206 -360 -151 -305 -151 -238 c 0
 -151 -171 -206 -117 -273 -117 c 1
 -273 -76 l 1
 -183 -76 -110 -148 -110 -238 c 0
 -110 -328 -183 -401 -273 -401 c 0
 -326 -401 -389 -363 -415 -317 c 1
40 349 m 1
 90 349 l 1
 90 -401 l 1
 40 -401 l 1
 40 349 l 1
190 349 m 1
 240 349 l 1
 240 -326 l 2
 240 -340 251 -351 265 -351 c 2
 315 -351 l 1
 315 -401 l 1
 265 -401 l 2
 224 -401 190 -367 190 -326 c 2
 190 349 l 1
EndSplineSet
Validated: 1
Ligature2: "medialLigSub" u1039 u101a u1030
EndChar

StartChar: u1039_u101c
Encoding: 65631 -1 273
Width: 1
VWidth: 0
GlyphClass: 3
Flags: HW
LayerCount: 2
Fore
SplineSet
-557 -401 m 1
 -647 -401 -720 -328 -720 -238 c 0
 -720 -148 -647 -76 -557 -76 c 0
 -467 -76 -395 -148 -395 -238 c 0
 -395 -305 -340 -360 -273 -360 c 0
 -206 -360 -151 -305 -151 -238 c 0
 -151 -171 -206 -117 -273 -117 c 1
 -273 -76 l 1
 -183 -76 -110 -148 -110 -238 c 0
 -110 -328 -183 -401 -273 -401 c 0
 -363 -401 -435 -328 -435 -238 c 0
 -435 -171 -490 -117 -557 -117 c 0
 -624 -117 -679 -171 -679 -238 c 0
 -679 -305 -624 -360 -557 -360 c 1
 -557 -401 l 1
EndSplineSet
Validated: 1
Ligature2: "medialLigSub" u1039 u101c
EndChar

StartChar: u1039_u101c_u102f
Encoding: 65632 -1 274
Width: 180
VWidth: 0
GlyphClass: 3
Flags: HW
LayerCount: 2
Fore
SplineSet
-557 -401 m 1
 -647 -401 -720 -328 -720 -238 c 0
 -720 -148 -647 -76 -557 -76 c 0
 -467 -76 -395 -148 -395 -238 c 0
 -395 -305 -340 -360 -273 -360 c 0
 -206 -360 -151 -305 -151 -238 c 0
 -151 -171 -206 -117 -273 -117 c 1
 -273 -76 l 1
 -183 -76 -110 -148 -110 -238 c 0
 -110 -328 -183 -401 -273 -401 c 0
 -363 -401 -435 -328 -435 -238 c 0
 -435 -171 -490 -117 -557 -117 c 0
 -624 -117 -679 -171 -679 -238 c 0
 -679 -305 -624 -360 -557 -360 c 1
 -557 -401 l 1
40 349 m 1
 90 349 l 1
 90 -326 l 2
 90 -340 101 -351 115 -351 c 2
 165 -351 l 1
 165 -401 l 1
 115 -401 l 2
 74 -401 40 -367 40 -326 c 2
 40 349 l 1
EndSplineSet
Validated: 1
Ligature2: "medialLigSub" u1039 u101c u102f
EndChar

StartChar: u1039_u101c_u102d_u102f
Encoding: 65633 -1 275
Width: 180
VWidth: 0
GlyphClass: 3
Flags: HW
LayerCount: 2
Fore
SplineSet
-557 -401 m 1
 -647 -401 -720 -328 -720 -238 c 0
 -720 -148 -647 -76 -557 -76 c 0
 -467 -76 -395 -148 -395 -238 c 0
 -395 -305 -340 -360 -273 -360 c 0
 -206 -360 -151 -305 -151 -238 c 0
 -151 -171 -206 -117 -273 -117 c 1
 -273 -76 l 1
 -183 -76 -110 -148 -110 -238 c 0
 -110 -328 -183 -401 -273 -401 c 0
 -363 -401 -435 -328 -435 -238 c 0
 -435 -171 -490 -117 -557 -117 c 0
 -624 -117 -679 -171 -679 -238 c 0
 -679 -305 -624 -360 -557 -360 c 1
 -557 -401 l 1
-240 374 m 2
 -241 374 l 2
 -307 374 -360 428 -360 494 c 0
 -360 560 -306 614 -240 614 c 0
 -174 614 -120 560 -120 494 c 0
 -120 428 -174 374 -240 374 c 2
-241 404 m 2
 -240 404 l 2
 -191 404 -150 445 -150 494 c 0
 -150 544 -190 584 -240 584 c 0
 -290 584 -330 544 -330 494 c 0
 -330 445 -290 404 -241 404 c 2
40 349 m 1
 90 349 l 1
 90 -326 l 2
 90 -340 101 -351 115 -351 c 2
 165 -351 l 1
 165 -401 l 1
 115 -401 l 2
 74 -401 40 -367 40 -326 c 2
 40 349 l 1
EndSplineSet
Validated: 1
Ligature2: "medialLigSub" u1039 u101c u102d u102f
EndChar

StartChar: u1039_u101c_u1030
Encoding: 65634 -1 276
Width: 330
VWidth: 0
GlyphClass: 3
Flags: HW
LayerCount: 2
Fore
SplineSet
-557 -401 m 1
 -647 -401 -720 -328 -720 -238 c 0
 -720 -148 -647 -76 -557 -76 c 0
 -467 -76 -395 -148 -395 -238 c 0
 -395 -305 -340 -360 -273 -360 c 0
 -206 -360 -151 -305 -151 -238 c 0
 -151 -171 -206 -117 -273 -117 c 1
 -273 -76 l 1
 -183 -76 -110 -148 -110 -238 c 0
 -110 -328 -183 -401 -273 -401 c 0
 -363 -401 -435 -328 -435 -238 c 0
 -435 -171 -490 -117 -557 -117 c 0
 -624 -117 -679 -171 -679 -238 c 0
 -679 -305 -624 -360 -557 -360 c 1
 -557 -401 l 1
40 349 m 1
 90 349 l 1
 90 -401 l 1
 40 -401 l 1
 40 349 l 1
190 349 m 1
 240 349 l 1
 240 -326 l 2
 240 -340 251 -351 265 -351 c 2
 315 -351 l 1
 315 -401 l 1
 265 -401 l 2
 224 -401 190 -367 190 -326 c 2
 190 349 l 1
EndSplineSet
Validated: 1
Ligature2: "medialLigSub" u1039 u101c u1030
EndChar

StartChar: u1039_u101d
Encoding: 65635 -1 277
Width: 1
VWidth: 0
GlyphClass: 3
Flags: HW
LayerCount: 2
Fore
SplineSet
-240 -401 m 2
 -241 -401 l 2
 -330 -401 -403 -328 -403 -239 c 0
 -403 -149 -330 -76 -240 -76 c 0
 -150 -76 -78 -149 -78 -239 c 0
 -78 -328 -151 -401 -240 -401 c 2
-241 -360 m 2
 -240 -360 l 2
 -173 -360 -119 -306 -119 -239 c 0
 -119 -172 -173 -117 -240 -117 c 0
 -307 -117 -362 -172 -362 -239 c 0
 -362 -306 -308 -360 -241 -360 c 2
EndSplineSet
Validated: 1
Ligature2: "medialLigSub" u1039 u101d
EndChar

StartChar: u1039_u101d_u102f
Encoding: 65636 -1 278
Width: 180
VWidth: 0
GlyphClass: 3
Flags: HW
LayerCount: 2
Fore
SplineSet
-240 -401 m 2
 -241 -401 l 2
 -330 -401 -403 -328 -403 -239 c 0
 -403 -149 -330 -76 -240 -76 c 0
 -150 -76 -78 -149 -78 -239 c 0
 -78 -328 -151 -401 -240 -401 c 2
-241 -360 m 2
 -240 -360 l 2
 -173 -360 -119 -306 -119 -239 c 0
 -119 -172 -173 -117 -240 -117 c 0
 -307 -117 -362 -172 -362 -239 c 0
 -362 -306 -308 -360 -241 -360 c 2
40 349 m 1
 90 349 l 1
 90 -326 l 2
 90 -340 101 -351 115 -351 c 2
 165 -351 l 1
 165 -401 l 1
 115 -401 l 2
 74 -401 40 -367 40 -326 c 2
 40 349 l 1
EndSplineSet
Validated: 1
Ligature2: "medialLigSub" u1039 u101d u102f
EndChar

StartChar: u1039_u101d_u102d_u102f
Encoding: 65637 -1 279
Width: 180
VWidth: 0
GlyphClass: 3
Flags: HW
LayerCount: 2
Fore
SplineSet
-240 -401 m 2
 -241 -401 l 2
 -330 -401 -403 -328 -403 -239 c 0
 -403 -149 -330 -76 -240 -76 c 0
 -150 -76 -78 -149 -78 -239 c 0
 -78 -328 -151 -401 -240 -401 c 2
-241 -360 m 2
 -240 -360 l 2
 -173 -360 -119 -306 -119 -239 c 0
 -119 -172 -173 -117 -240 -117 c 0
 -307 -117 -362 -172 -362 -239 c 0
 -362 -306 -308 -360 -241 -360 c 2
-240 374 m 2
 -241 374 l 2
 -307 374 -360 428 -360 494 c 0
 -360 560 -306 614 -240 614 c 0
 -174 614 -120 560 -120 494 c 0
 -120 428 -174 374 -240 374 c 2
-241 404 m 2
 -240 404 l 2
 -191 404 -150 445 -150 494 c 0
 -150 544 -190 584 -240 584 c 0
 -290 584 -330 544 -330 494 c 0
 -330 445 -290 404 -241 404 c 2
40 349 m 1
 90 349 l 1
 90 -326 l 2
 90 -340 101 -351 115 -351 c 2
 165 -351 l 1
 165 -401 l 1
 115 -401 l 2
 74 -401 40 -367 40 -326 c 2
 40 349 l 1
EndSplineSet
Validated: 1
Ligature2: "medialLigSub" u1039 u101d u102d u102f
EndChar

StartChar: u1039_u101d_u1030
Encoding: 65638 -1 280
Width: 330
VWidth: 0
GlyphClass: 3
Flags: HW
LayerCount: 2
Fore
SplineSet
-240 -401 m 2
 -241 -401 l 2
 -330 -401 -403 -328 -403 -239 c 0
 -403 -149 -330 -76 -240 -76 c 0
 -150 -76 -78 -149 -78 -239 c 0
 -78 -328 -151 -401 -240 -401 c 2
-241 -360 m 2
 -240 -360 l 2
 -173 -360 -119 -306 -119 -239 c 0
 -119 -172 -173 -117 -240 -117 c 0
 -307 -117 -362 -172 -362 -239 c 0
 -362 -306 -308 -360 -241 -360 c 2
40 349 m 1
 90 349 l 1
 90 -401 l 1
 40 -401 l 1
 40 349 l 1
190 349 m 1
 240 349 l 1
 240 -326 l 2
 240 -340 251 -351 265 -351 c 2
 315 -351 l 1
 315 -401 l 1
 265 -401 l 2
 224 -401 190 -367 190 -326 c 2
 190 349 l 1
EndSplineSet
Validated: 1
Ligature2: "medialLigSub" u1039 u101d u1030
EndChar

StartChar: u1039_u101e
Encoding: 65639 -1 281
Width: 1
VWidth: 0
GlyphClass: 3
Flags: HW
LayerCount: 2
Fore
SplineSet
-415 -317 m 1
 -441 -363 -504 -401 -557 -401 c 0
 -614 -401 -680 -359 -704 -307 c 1
 -668 -290 l 1
 -650 -329 -600 -360 -557 -360 c 0
 -490 -360 -435 -305 -435 -238 c 0
 -435 -171 -490 -117 -557 -117 c 0
 -600 -117 -650 -148 -668 -187 c 1
 -704 -170 l 1
 -680 -118 -614 -76 -557 -76 c 0
 -467 -76 -395 -148 -395 -238 c 0
 -395 -305 -340 -360 -273 -360 c 0
 -206 -360 -151 -305 -151 -238 c 0
 -151 -171 -206 -117 -273 -117 c 1
 -273 -76 l 1
 -183 -76 -110 -148 -110 -238 c 0
 -110 -328 -183 -401 -273 -401 c 0
 -326 -401 -389 -363 -415 -317 c 1
EndSplineSet
Validated: 1
Ligature2: "medialLigSub" u1039 u101e
EndChar

StartChar: u1039_u101e_u102f
Encoding: 65640 -1 282
Width: 180
VWidth: 0
GlyphClass: 3
Flags: HW
LayerCount: 2
Fore
SplineSet
-415 -317 m 1
 -441 -363 -504 -401 -557 -401 c 0
 -614 -401 -680 -359 -704 -307 c 1
 -668 -290 l 1
 -650 -329 -600 -360 -557 -360 c 0
 -490 -360 -435 -305 -435 -238 c 0
 -435 -171 -490 -117 -557 -117 c 0
 -600 -117 -650 -148 -668 -187 c 1
 -704 -170 l 1
 -680 -118 -614 -76 -557 -76 c 0
 -467 -76 -395 -148 -395 -238 c 0
 -395 -305 -340 -360 -273 -360 c 0
 -206 -360 -151 -305 -151 -238 c 0
 -151 -171 -206 -117 -273 -117 c 1
 -273 -76 l 1
 -183 -76 -110 -148 -110 -238 c 0
 -110 -328 -183 -401 -273 -401 c 0
 -326 -401 -389 -363 -415 -317 c 1
40 349 m 1
 90 349 l 1
 90 -326 l 2
 90 -340 101 -351 115 -351 c 2
 165 -351 l 1
 165 -401 l 1
 115 -401 l 2
 74 -401 40 -367 40 -326 c 2
 40 349 l 1
EndSplineSet
Validated: 1
Ligature2: "medialLigSub" u1039 u101e u102f
EndChar

StartChar: u1039_u101e_u102d_u102f
Encoding: 65641 -1 283
Width: 180
VWidth: 0
GlyphClass: 3
Flags: HW
LayerCount: 2
Fore
SplineSet
-415 -317 m 1
 -441 -363 -504 -401 -557 -401 c 0
 -614 -401 -680 -359 -704 -307 c 1
 -668 -290 l 1
 -650 -329 -600 -360 -557 -360 c 0
 -490 -360 -435 -305 -435 -238 c 0
 -435 -171 -490 -117 -557 -117 c 0
 -600 -117 -650 -148 -668 -187 c 1
 -704 -170 l 1
 -680 -118 -614 -76 -557 -76 c 0
 -467 -76 -395 -148 -395 -238 c 0
 -395 -305 -340 -360 -273 -360 c 0
 -206 -360 -151 -305 -151 -238 c 0
 -151 -171 -206 -117 -273 -117 c 1
 -273 -76 l 1
 -183 -76 -110 -148 -110 -238 c 0
 -110 -328 -183 -401 -273 -401 c 0
 -326 -401 -389 -363 -415 -317 c 1
-240 374 m 2
 -241 374 l 2
 -307 374 -360 428 -360 494 c 0
 -360 560 -306 614 -240 614 c 0
 -174 614 -120 560 -120 494 c 0
 -120 428 -174 374 -240 374 c 2
-241 404 m 2
 -240 404 l 2
 -191 404 -150 445 -150 494 c 0
 -150 544 -190 584 -240 584 c 0
 -290 584 -330 544 -330 494 c 0
 -330 445 -290 404 -241 404 c 2
40 349 m 1
 90 349 l 1
 90 -326 l 2
 90 -340 101 -351 115 -351 c 2
 165 -351 l 1
 165 -401 l 1
 115 -401 l 2
 74 -401 40 -367 40 -326 c 2
 40 349 l 1
EndSplineSet
Validated: 1
Ligature2: "medialLigSub" u1039 u101e u102d u102f
EndChar

StartChar: u1039_u101e_u1030
Encoding: 65642 -1 284
Width: 330
VWidth: 0
GlyphClass: 3
Flags: HW
LayerCount: 2
Fore
SplineSet
-415 -317 m 1
 -441 -363 -504 -401 -557 -401 c 0
 -614 -401 -680 -359 -704 -307 c 1
 -668 -290 l 1
 -650 -329 -600 -360 -557 -360 c 0
 -490 -360 -435 -305 -435 -238 c 0
 -435 -171 -490 -117 -557 -117 c 0
 -600 -117 -650 -148 -668 -187 c 1
 -704 -170 l 1
 -680 -118 -614 -76 -557 -76 c 0
 -467 -76 -395 -148 -395 -238 c 0
 -395 -305 -340 -360 -273 -360 c 0
 -206 -360 -151 -305 -151 -238 c 0
 -151 -171 -206 -117 -273 -117 c 1
 -273 -76 l 1
 -183 -76 -110 -148 -110 -238 c 0
 -110 -328 -183 -401 -273 -401 c 0
 -326 -401 -389 -363 -415 -317 c 1
40 349 m 1
 90 349 l 1
 90 -401 l 1
 40 -401 l 1
 40 349 l 1
190 349 m 1
 240 349 l 1
 240 -326 l 2
 240 -340 251 -351 265 -351 c 2
 315 -351 l 1
 315 -401 l 1
 265 -401 l 2
 224 -401 190 -367 190 -326 c 2
 190 349 l 1
EndSplineSet
Validated: 1
Ligature2: "medialLigSub" u1039 u101e u1030
EndChar

StartChar: u1039_u101f
Encoding: 65643 -1 285
Width: 1
VWidth: 0
GlyphClass: 3
Flags: HW
LayerCount: 2
Fore
SplineSet
-415 -160 m 1
 -404 -180 -395 -215 -395 -238 c 0
 -395 -328 -467 -401 -557 -401 c 0
 -647 -401 -720 -328 -720 -238 c 0
 -720 -181 -678 -115 -626 -91 c 1
 -609 -128 l 1
 -648 -146 -679 -195 -679 -238 c 0
 -679 -305 -624 -360 -557 -360 c 0
 -490 -360 -435 -305 -435 -238 c 0
 -435 -195 -467 -146 -506 -128 c 1
 -489 -91 l 1
 -437 -115 -395 -181 -395 -238 c 1
 -395 -171 -340 -117 -273 -117 c 0
 -206 -117 -151 -171 -151 -238 c 0
 -151 -305 -206 -360 -273 -360 c 1
 -273 -401 l 1
 -183 -401 -110 -328 -110 -238 c 0
 -110 -148 -183 -76 -273 -76 c 0
 -326 -76 -389 -114 -415 -160 c 1
EndSplineSet
Validated: 5
Ligature2: "medialLigSub" u1039 u101f
EndChar

StartChar: u1039_u101f_u102f
Encoding: 65644 -1 286
Width: 180
VWidth: 0
GlyphClass: 3
Flags: HW
LayerCount: 2
Fore
SplineSet
-415 -160 m 1
 -404 -180 -395 -215 -395 -238 c 0
 -395 -328 -467 -401 -557 -401 c 0
 -647 -401 -720 -328 -720 -238 c 0
 -720 -181 -678 -115 -626 -91 c 1
 -609 -128 l 1
 -648 -146 -679 -195 -679 -238 c 0
 -679 -305 -624 -360 -557 -360 c 0
 -490 -360 -435 -305 -435 -238 c 0
 -435 -195 -467 -146 -506 -128 c 1
 -489 -91 l 1
 -437 -115 -395 -181 -395 -238 c 1
 -395 -171 -340 -117 -273 -117 c 0
 -206 -117 -151 -171 -151 -238 c 0
 -151 -305 -206 -360 -273 -360 c 1
 -273 -401 l 1
 -183 -401 -110 -328 -110 -238 c 0
 -110 -148 -183 -76 -273 -76 c 0
 -326 -76 -389 -114 -415 -160 c 1
40 349 m 1
 90 349 l 1
 90 -326 l 2
 90 -340 101 -351 115 -351 c 2
 165 -351 l 1
 165 -401 l 1
 115 -401 l 2
 74 -401 40 -367 40 -326 c 2
 40 349 l 1
EndSplineSet
Validated: 5
Ligature2: "medialLigSub" u1039 u101f u102f
EndChar

StartChar: u1039_u101f_u102d_u102f
Encoding: 65645 -1 287
Width: 180
VWidth: 0
GlyphClass: 3
Flags: HW
LayerCount: 2
Fore
SplineSet
-415 -160 m 1
 -404 -180 -395 -215 -395 -238 c 0
 -395 -328 -467 -401 -557 -401 c 0
 -647 -401 -720 -328 -720 -238 c 0
 -720 -181 -678 -115 -626 -91 c 1
 -609 -128 l 1
 -648 -146 -679 -195 -679 -238 c 0
 -679 -305 -624 -360 -557 -360 c 0
 -490 -360 -435 -305 -435 -238 c 0
 -435 -195 -467 -146 -506 -128 c 1
 -489 -91 l 1
 -437 -115 -395 -181 -395 -238 c 1
 -395 -171 -340 -117 -273 -117 c 0
 -206 -117 -151 -171 -151 -238 c 0
 -151 -305 -206 -360 -273 -360 c 1
 -273 -401 l 1
 -183 -401 -110 -328 -110 -238 c 0
 -110 -148 -183 -76 -273 -76 c 0
 -326 -76 -389 -114 -415 -160 c 1
-240 374 m 2
 -241 374 l 2
 -307 374 -360 428 -360 494 c 0
 -360 560 -306 614 -240 614 c 0
 -174 614 -120 560 -120 494 c 0
 -120 428 -174 374 -240 374 c 2
-241 404 m 2
 -240 404 l 2
 -191 404 -150 445 -150 494 c 0
 -150 544 -190 584 -240 584 c 0
 -290 584 -330 544 -330 494 c 0
 -330 445 -290 404 -241 404 c 2
40 349 m 1
 90 349 l 1
 90 -326 l 2
 90 -340 101 -351 115 -351 c 2
 165 -351 l 1
 165 -401 l 1
 115 -401 l 2
 74 -401 40 -367 40 -326 c 2
 40 349 l 1
EndSplineSet
Validated: 5
Ligature2: "medialLigSub" u1039 u101f u102d u102f
EndChar

StartChar: u1039_u101f_u1030
Encoding: 65646 -1 288
Width: 330
VWidth: 0
GlyphClass: 3
Flags: HW
LayerCount: 2
Fore
SplineSet
-415 -160 m 1
 -404 -180 -395 -215 -395 -238 c 0
 -395 -328 -467 -401 -557 -401 c 0
 -647 -401 -720 -328 -720 -238 c 0
 -720 -181 -678 -115 -626 -91 c 1
 -609 -128 l 1
 -648 -146 -679 -195 -679 -238 c 0
 -679 -305 -624 -360 -557 -360 c 0
 -490 -360 -435 -305 -435 -238 c 0
 -435 -195 -467 -146 -506 -128 c 1
 -489 -91 l 1
 -437 -115 -395 -181 -395 -238 c 1
 -395 -171 -340 -117 -273 -117 c 0
 -206 -117 -151 -171 -151 -238 c 0
 -151 -305 -206 -360 -273 -360 c 1
 -273 -401 l 1
 -183 -401 -110 -328 -110 -238 c 0
 -110 -148 -183 -76 -273 -76 c 0
 -326 -76 -389 -114 -415 -160 c 1
40 349 m 1
 90 349 l 1
 90 -401 l 1
 40 -401 l 1
 40 349 l 1
190 349 m 1
 240 349 l 1
 240 -326 l 2
 240 -340 251 -351 265 -351 c 2
 315 -351 l 1
 315 -401 l 1
 265 -401 l 2
 224 -401 190 -367 190 -326 c 2
 190 349 l 1
EndSplineSet
Validated: 5
Ligature2: "medialLigSub" u1039 u101f u1030
EndChar

StartChar: u1039_u1021
Encoding: 65647 -1 289
Width: 1
VWidth: 0
GlyphClass: 3
Flags: HW
LayerCount: 2
Fore
SplineSet
-720 -167 m 1
 -720 -117 -647 -76 -557 -76 c 0
 -467 -76 -395 -117 -395 -167 c 0
 -395 -191 -422 -223 -455 -238 c 1
 -422 -253 -395 -286 -395 -310 c 0
 -395 -360 -467 -401 -557 -401 c 0
 -647 -401 -720 -360 -720 -310 c 1
 -679 -310 l 1
 -679 -338 -624 -360 -557 -360 c 0
 -490 -360 -435 -338 -435 -310 c 0
 -435 -282 -490 -259 -557 -259 c 1
 -557 -218 l 1
 -490 -218 -435 -195 -435 -167 c 0
 -435 -139 -490 -117 -557 -117 c 0
 -624 -117 -679 -139 -679 -167 c 1
 -720 -167 l 1
-435 -167 m 1
 -435 -117 -363 -76 -273 -76 c 0
 -183 -76 -110 -148 -110 -238 c 0
 -110 -328 -183 -401 -273 -401 c 1
 -273 -311 -200 -238 -110 -238 c 1
 -159 -288 l 1
 -184 -299 -213 -327 -224 -352 c 1
 -181 -335 -146 -284 -146 -238 c 0
 -146 -171 -201 -117 -268 -117 c 0
 -269 -117 -272 -117 -273 -117 c 0
 -340 -117 -395 -139 -395 -167 c 1
 -435 -167 l 1
EndSplineSet
Validated: 5
Ligature2: "medialLigSub" u1039 u1021
EndChar

StartChar: u1039_u1021_u102f
Encoding: 65648 -1 290
Width: 180
VWidth: 0
GlyphClass: 3
Flags: HW
LayerCount: 2
Fore
SplineSet
-720 -167 m 1
 -720 -117 -647 -76 -557 -76 c 0
 -467 -76 -395 -117 -395 -167 c 0
 -395 -191 -422 -223 -455 -238 c 1
 -422 -253 -395 -286 -395 -310 c 0
 -395 -360 -467 -401 -557 -401 c 0
 -647 -401 -720 -360 -720 -310 c 1
 -679 -310 l 1
 -679 -338 -624 -360 -557 -360 c 0
 -490 -360 -435 -338 -435 -310 c 0
 -435 -282 -490 -259 -557 -259 c 1
 -557 -218 l 1
 -490 -218 -435 -195 -435 -167 c 0
 -435 -139 -490 -117 -557 -117 c 0
 -624 -117 -679 -139 -679 -167 c 1
 -720 -167 l 1
-435 -167 m 1
 -435 -117 -363 -76 -273 -76 c 0
 -183 -76 -110 -148 -110 -238 c 0
 -110 -328 -183 -401 -273 -401 c 1
 -273 -311 -200 -238 -110 -238 c 1
 -159 -288 l 1
 -184 -299 -213 -327 -224 -352 c 1
 -181 -335 -146 -284 -146 -238 c 0
 -146 -171 -201 -117 -268 -117 c 0
 -269 -117 -272 -117 -273 -117 c 0
 -340 -117 -395 -139 -395 -167 c 1
 -435 -167 l 1
40 349 m 1
 90 349 l 1
 90 -326 l 2
 90 -340 101 -351 115 -351 c 2
 165 -351 l 1
 165 -401 l 1
 115 -401 l 2
 74 -401 40 -367 40 -326 c 2
 40 349 l 1
EndSplineSet
Validated: 5
Ligature2: "medialLigSub" u1039 u1021 u102f
EndChar

StartChar: u1039_u1021_u102d_u102f
Encoding: 65649 -1 291
Width: 180
VWidth: 0
GlyphClass: 3
Flags: HW
LayerCount: 2
Fore
SplineSet
-720 -167 m 1
 -720 -117 -647 -76 -557 -76 c 0
 -467 -76 -395 -117 -395 -167 c 0
 -395 -191 -422 -223 -455 -238 c 1
 -422 -253 -395 -286 -395 -310 c 0
 -395 -360 -467 -401 -557 -401 c 0
 -647 -401 -720 -360 -720 -310 c 1
 -679 -310 l 1
 -679 -338 -624 -360 -557 -360 c 0
 -490 -360 -435 -338 -435 -310 c 0
 -435 -282 -490 -259 -557 -259 c 1
 -557 -218 l 1
 -490 -218 -435 -195 -435 -167 c 0
 -435 -139 -490 -117 -557 -117 c 0
 -624 -117 -679 -139 -679 -167 c 1
 -720 -167 l 1
-435 -167 m 1
 -435 -117 -363 -76 -273 -76 c 0
 -183 -76 -110 -148 -110 -238 c 0
 -110 -328 -183 -401 -273 -401 c 1
 -273 -311 -200 -238 -110 -238 c 1
 -159 -288 l 1
 -184 -299 -213 -327 -224 -352 c 1
 -181 -335 -146 -284 -146 -238 c 0
 -146 -171 -201 -117 -268 -117 c 0
 -269 -117 -272 -117 -273 -117 c 0
 -340 -117 -395 -139 -395 -167 c 1
 -435 -167 l 1
-240 374 m 2
 -241 374 l 2
 -307 374 -360 428 -360 494 c 0
 -360 560 -306 614 -240 614 c 0
 -174 614 -120 560 -120 494 c 0
 -120 428 -174 374 -240 374 c 2
-241 404 m 2
 -240 404 l 2
 -191 404 -150 445 -150 494 c 0
 -150 544 -190 584 -240 584 c 0
 -290 584 -330 544 -330 494 c 0
 -330 445 -290 404 -241 404 c 2
40 349 m 1
 90 349 l 1
 90 -326 l 2
 90 -340 101 -351 115 -351 c 2
 165 -351 l 1
 165 -401 l 1
 115 -401 l 2
 74 -401 40 -367 40 -326 c 2
 40 349 l 1
EndSplineSet
Validated: 5
Ligature2: "medialLigSub" u1039 u1021 u102d u102f
EndChar

StartChar: u1039_u1021_u1030
Encoding: 65650 -1 292
Width: 330
VWidth: 0
GlyphClass: 3
Flags: HW
LayerCount: 2
Fore
SplineSet
-720 -167 m 1
 -720 -117 -647 -76 -557 -76 c 0
 -467 -76 -395 -117 -395 -167 c 0
 -395 -191 -422 -223 -455 -238 c 1
 -422 -253 -395 -286 -395 -310 c 0
 -395 -360 -467 -401 -557 -401 c 0
 -647 -401 -720 -360 -720 -310 c 1
 -679 -310 l 1
 -679 -338 -624 -360 -557 -360 c 0
 -490 -360 -435 -338 -435 -310 c 0
 -435 -282 -490 -259 -557 -259 c 1
 -557 -218 l 1
 -490 -218 -435 -195 -435 -167 c 0
 -435 -139 -490 -117 -557 -117 c 0
 -624 -117 -679 -139 -679 -167 c 1
 -720 -167 l 1
-435 -167 m 1
 -435 -117 -363 -76 -273 -76 c 0
 -183 -76 -110 -148 -110 -238 c 0
 -110 -328 -183 -401 -273 -401 c 1
 -273 -311 -200 -238 -110 -238 c 1
 -159 -288 l 1
 -184 -299 -213 -327 -224 -352 c 1
 -181 -335 -146 -284 -146 -238 c 0
 -146 -171 -201 -117 -268 -117 c 0
 -269 -117 -272 -117 -273 -117 c 0
 -340 -117 -395 -139 -395 -167 c 1
 -435 -167 l 1
40 349 m 1
 90 349 l 1
 90 -401 l 1
 40 -401 l 1
 40 349 l 1
190 349 m 1
 240 349 l 1
 240 -326 l 2
 240 -340 251 -351 265 -351 c 2
 315 -351 l 1
 315 -401 l 1
 265 -401 l 2
 224 -401 190 -367 190 -326 c 2
 190 349 l 1
EndSplineSet
Validated: 5
Ligature2: "medialLigSub" u1039 u1021 u1030
EndChar

StartChar: u103b_u103d
Encoding: 65651 -1 293
Width: 140
VWidth: 0
GlyphClass: 3
Flags: HW
LayerCount: 2
Fore
SplineSet
-101 -323 m 1
 -127 -366 -190 -401 -240 -401 c 0
 -330 -401 -402 -328 -402 -238 c 0
 -402 -148 -330 -76 -240 -76 c 0
 -150 -76 -78 -148 -78 -238 c 0
 -78 -249 -79 -267 -82 -277 c 1
 4 -312 l 2
 7 -313 10 -314 13 -314 c 0
 27 -314 38 -303 38 -289 c 2
 38 349 l 1
 88 349 l 1
 88 -364 l 2
 88 -378 77 -389 63 -389 c 0
 60 -389 57 -388 54 -387 c 2
 -101 -323 l 1
-240 -117 m 2
 -241 -117 l 2
 -308 -117 -362 -171 -362 -238 c 0
 -362 -305 -307 -360 -240 -360 c 0
 -173 -360 -119 -305 -119 -238 c 0
 -119 -171 -173 -117 -240 -117 c 2
EndSplineSet
Validated: 1
Ligature2: "medialLigSub" u103b u103d
EndChar

StartChar: u103b_u103e
Encoding: 65652 -1 294
Width: 140
VWidth: 0
GlyphClass: 3
Flags: HW
LayerCount: 2
Fore
SplineSet
-177 -10 m 1
 -127 -10 l 1
 -127 -189 l 2
 -127 -197 -121 -207 -114 -211 c 2
 -52 -247 l 1
 -14 -269 l 2
 -11 -271 -6 -272 -2 -272 c 0
 12 -272 23 -261 23 -247 c 2
 23 349 l 1
 73 349 l 1
 73 -353 l 2
 73 -367 62 -378 48 -378 c 0
 44 -378 38 -375 34 -373 c 2
 -52 -314 l 1
 -159 -238 l 2
 -163 -236 -170 -234 -174 -234 c 0
 -180 -234 -187 -237 -191 -241 c 2
 -247 -297 l 1
 -300 -350 l 2
 -304 -354 -312 -357 -318 -357 c 0
 -324 -357 -332 -354 -336 -350 c 2
 -389 -297 l 1
 -353 -261 l 1
 -336 -279 l 2
 -332 -283 -324 -286 -318 -286 c 0
 -312 -286 -304 -283 -300 -279 c 2
 -247 -226 l 1
 -184 -163 l 2
 -180 -159 -177 -151 -177 -145 c 2
 -177 -10 l 1
EndSplineSet
Validated: 1
Ligature2: "medialLigSub" u103b u103e
EndChar

StartChar: u103b_u103d_u103e
Encoding: 65653 -1 295
Width: 140
VWidth: 0
GlyphClass: 3
Flags: HW
LayerCount: 2
Fore
SplineSet
-358 -350 m 1
 -446 -413 l 2
 -450 -416 -457 -418 -461 -418 c 0
 -468 -418 -477 -414 -481 -408 c 2
 -514 -362 l 1
 -481 -338 l 1
 -472 -351 l 2
 -468 -357 -459 -361 -452 -361 c 0
 -448 -361 -441 -360 -437 -357 c 2
 -382 -317 l 1
 -393 -297 -402 -261 -402 -238 c 0
 -402 -148 -330 -76 -240 -76 c 0
 -150 -76 -78 -148 -78 -238 c 0
 -78 -249 -79 -267 -82 -277 c 1
 4 -312 l 2
 7 -313 10 -314 13 -314 c 0
 27 -314 38 -303 38 -289 c 2
 38 349 l 1
 88 349 l 1
 88 -364 l 2
 88 -378 77 -389 63 -389 c 0
 60 -389 57 -388 54 -387 c 2
 -101 -323 l 1
 -127 -366 -190 -401 -240 -401 c 0
 -279 -401 -331 -378 -358 -350 c 1
-240 -117 m 2
 -241 -117 l 2
 -308 -117 -362 -171 -362 -238 c 0
 -362 -305 -307 -360 -240 -360 c 0
 -173 -360 -119 -305 -119 -238 c 0
 -119 -171 -173 -117 -240 -117 c 2
EndSplineSet
Validated: 1
Ligature2: "medialLigSub" u103b u103d u103e
EndChar

StartChar: u103b_u102d_u102f
Encoding: 65654 -1 296
Width: 315
VWidth: 0
GlyphClass: 3
Flags: HW
LayerCount: 2
Fore
SplineSet
-177 -10 m 1
 -127 -10 l 1
 -127 -189 l 2
 -127 -197 -121 -207 -114 -211 c 2
 -52 -247 l 1
 -14 -269 l 2
 -11 -271 -6 -272 -2 -272 c 0
 12 -272 23 -261 23 -247 c 2
 23 349 l 1
 73 349 l 1
 73 -353 l 2
 73 -367 62 -378 48 -378 c 0
 44 -378 38 -375 34 -373 c 2
 -52 -314 l 1
 -166 -233 l 2
 -172 -229 -177 -220 -177 -213 c 2
 -177 -10 l 1
190 349 m 1
 240 349 l 1
 240 -326 l 2
 240 -340 251 -351 265 -351 c 2
 315 -351 l 1
 315 -401 l 1
 265 -401 l 2
 224 -401 190 -367 190 -326 c 2
 190 349 l 1
-40 374 m 2
 -41 374 l 2
 -107 374 -160 428 -160 494 c 0
 -160 560 -106 614 -40 614 c 0
 26 614 80 560 80 494 c 0
 80 428 26 374 -40 374 c 2
-41 404 m 2
 -40 404 l 2
 9 404 50 445 50 494 c 0
 50 544 10 584 -40 584 c 0
 -90 584 -130 544 -130 494 c 0
 -130 445 -90 404 -41 404 c 2
EndSplineSet
Validated: 1
Ligature2: "medialLigSub" u103b u102d u102f
EndChar

